<?xml version="1.0" standalone="no"?>
 <!DOCTYPE svg PUBLIC "-//W3C//DTD SVG 1.1//EN" 
 "http://www.w3.org/Graphics/SVG/1.1/DTD/svg11.dtd"> 
<svg
  xmlns:svg="http://www.w3.org/2000/svg"
  xmlns="http://www.w3.org/2000/svg"
  xmlns:xlink="http://www.w3.org/1999/xlink"
  version="1.1"
  width="27.940000cm" height="21.590000cm" viewBox="0 0 110000 85000">
<title>SVG Picture created as TPDD_Cable_Z88.svg date 2020/09/07 11:06:10 </title>
  <desc>Picture generated by Eeschema-SVG </desc>
<g style="fill:#000000; fill-opacity:1;stroke:#000000; stroke-opacity:1;
stroke-linecap:round; stroke-linejoin:round;"
 transform="translate(0 0) scale(1 1)">
</g>
<g style="fill:#000000; fill-opacity:0.0; 
stroke:#000000; stroke-width:0; stroke-opacity:1; 
stroke-linecap:round; stroke-linejoin:round;">
<g >
</g>
<g style="fill:#840000; fill-opacity:0.0; 
stroke:#840000; stroke-width:0; stroke-opacity:1; 
stroke-linecap:round; stroke-linejoin:round;">
</g>
<g style="fill:#840000; fill-opacity:0.0; 
stroke:#840000; stroke-width:100; stroke-opacity:1; 
stroke-linecap:round; stroke-linejoin:round;">
<path d="M52250 37497.8 A1250 1250 0.0 0 0 49750 37497.8" />
<path d="M49750 38252.2 A1250 1250 0.0 0 0 52250 38252.2" />
</g>
<g style="fill:#840000; fill-opacity:0.0; 
stroke:#840000; stroke-width:60; stroke-opacity:1; 
stroke-linecap:round; stroke-linejoin:round;">
<circle cx="51000" cy="37500" r="50" /> 
<circle cx="50100" cy="39000" r="50" /> 
</g>
<g style="fill:#840000; fill-opacity:0.0; 
stroke:#840000; stroke-width:30; stroke-opacity:1; 
stroke-linecap:round; stroke-linejoin:round;">
<g transform="rotate(-90 51340 36700)">
<text x="51340" y="36800"
textLength="550" font-size="260" lengthAdjust="spacingAndGlyphs"
text-anchor="middle" opacity="0">10k</text>
</g>
<path d="M51430 36810
L51430 36930
" />
<path d="M51430 36870
L51230 36870
L51250 36890
L51270 36910
L51280 36930
" />
<path d="M51230 36690
L51230 36670
L51240 36650
L51240 36640
L51260 36630
L51300 36620
L51350 36620
L51390 36630
L51410 36640
L51420 36650
L51430 36670
L51430 36690
L51420 36710
L51410 36720
L51390 36730
L51350 36740
L51300 36740
L51260 36730
L51240 36720
L51240 36710
L51230 36690
" />
<path d="M51430 36540
L51230 36540
" />
<path d="M51350 36520
L51430 36460
" />
<path d="M51290 36460
L51370 36540
" />
<text x="50400" y="37260"
textLength="570" font-size="260" lengthAdjust="spacingAndGlyphs"
text-anchor="middle" opacity="0">10k</text>
<path d="M50280 37250
L50160 37250
" />
<path d="M50220 37250
L50220 37050
L50200 37070
L50180 37090
L50160 37100
" />
<path d="M50400 37050
L50420 37050
L50440 37060
L50450 37060
L50460 37080
L50470 37120
L50470 37170
L50460 37210
L50450 37230
L50440 37240
L50420 37250
L50400 37250
L50380 37240
L50370 37230
L50360 37210
L50350 37170
L50350 37120
L50360 37080
L50370 37060
L50380 37060
L50400 37050
" />
<path d="M50550 37250
L50550 37050
" />
<path d="M50570 37170
L50630 37250
" />
<path d="M50630 37110
L50550 37190
" />
</g>
<g style="fill:#840000; fill-opacity:0.0; 
stroke:#840000; stroke-width:60; stroke-opacity:1; 
stroke-linecap:round; stroke-linejoin:round;">
<path style="fill:#840000; fill-opacity:0.0; 
stroke:#840000; stroke-width:60; stroke-opacity:1; 
stroke-linecap:round; stroke-linejoin:round;fill:none"
d="M 51000,36650
51000,36500
" /> 
</g>
<g style="fill:#840000; fill-opacity:0.0; 
stroke:#840000; stroke-width:100; stroke-opacity:1; 
stroke-linecap:round; stroke-linejoin:round;">
<path style="fill:#840000; fill-opacity:0.0; 
stroke:#840000; stroke-width:100; stroke-opacity:1; 
stroke-linecap:round; stroke-linejoin:round;fill:none"
d="M 49750,37500
49750,38250
" /> 
<path style="fill:#840000; fill-opacity:0.0; 
stroke:#840000; stroke-width:100; stroke-opacity:1; 
stroke-linecap:round; stroke-linejoin:round;fill:none"
d="M 52250,37500
52250,38250
" /> 
</g>
<g style="fill:#840000; fill-opacity:0.0; 
stroke:#840000; stroke-width:60; stroke-opacity:1; 
stroke-linecap:round; stroke-linejoin:round;">
<path style="fill:#840000; fill-opacity:0.0; 
stroke:#840000; stroke-width:60; stroke-opacity:1; 
stroke-linecap:round; stroke-linejoin:round;fill:none"
d="M 50900,38000
51900,39000
" /> 
</g>
<g style="fill:#840000; fill-opacity:1.0; 
stroke:#840000; stroke-width:200; stroke-opacity:1; 
stroke-linecap:round; stroke-linejoin:round;">
<path style="fill:#840000; fill-opacity:1.0; 
stroke:#840000; stroke-width:200; stroke-opacity:1; 
stroke-linecap:round; stroke-linejoin:round;fill-rule:evenodd;"
d="M 51600,38050
50350,38050
" /> 
</g>
<g style="fill:#840000; fill-opacity:0.0; 
stroke:#840000; stroke-width:60; stroke-opacity:1; 
stroke-linecap:round; stroke-linejoin:round;">
<path style="fill:#840000; fill-opacity:0.0; 
stroke:#840000; stroke-width:60; stroke-opacity:1; 
stroke-linecap:round; stroke-linejoin:round;fill:none"
d="M 51900,39000
52000,39000
" /> 
<path style="fill:#840000; fill-opacity:0.0; 
stroke:#840000; stroke-width:60; stroke-opacity:1; 
stroke-linecap:round; stroke-linejoin:round;fill:none"
d="M 50100,39000
51100,38000
51100,38000
" /> 
</g>
<g style="fill:#840000; fill-opacity:1.0; 
stroke:#840000; stroke-width:60; stroke-opacity:1; 
stroke-linecap:round; stroke-linejoin:round;">
<path style="fill:#840000; fill-opacity:1.0; 
stroke:#840000; stroke-width:60; stroke-opacity:1; 
stroke-linecap:round; stroke-linejoin:round;fill-rule:evenodd;"
d="M 50350,38550
50550,38750
50750,38350
Z" /> 
</g>
<g style="fill:#840000; fill-opacity:0.0; 
stroke:#840000; stroke-width:60; stroke-opacity:1; 
stroke-linecap:round; stroke-linejoin:round;">
<path style="fill:#840000; fill-opacity:0.0; 
stroke:#840000; stroke-width:60; stroke-opacity:1; 
stroke-linecap:round; stroke-linejoin:round;fill:none"
d="M 51000,38000
51000,37250
51200,37200
50800,37100
51200,37000
50800,36900
51200,36800
50800,36700
51000,36650
" /> 
<path style="fill:#840000; fill-opacity:0.0; 
stroke:#840000; stroke-width:60; stroke-opacity:1; 
stroke-linecap:round; stroke-linejoin:round;fill:none"
d="M 51000,37500
50850,37500
50800,37700
50700,37300
50600,37700
50500,37300
50400,37700
50300,37300
50250,37500
50100,37500
50100,39000
" /> 
<path d="M51000 36500
L51000 35500
" />
<g transform="rotate(-90 51100 36000)">
<text x="51100" y="36500"
textLength="510" font-size="660" lengthAdjust="spacingAndGlyphs"
text-anchor="middle" opacity="0">1</text>
</g>
<path d="M51570 35850
L51570 36140
" />
<path d="M51570 36000
L51070 36000
L51140 36040
L51190 36090
L51210 36140
" />
<path d="M50000 39000
L49000 39000
" />
<text x="49500" y="39600"
textLength="540" font-size="660" lengthAdjust="spacingAndGlyphs"
text-anchor="middle" opacity="0">2</text>
<path d="M49350 39120
L49380 39100
L49420 39070
L49540 39070
L49590 39100
L49610 39120
L49640 39170
L49640 39210
L49610 39290
L49330 39570
L49640 39570
" />
<path d="M52000 39000
L53000 39000
" />
<text x="52500" y="39600"
textLength="540" font-size="660" lengthAdjust="spacingAndGlyphs"
text-anchor="middle" opacity="0">3</text>
<path d="M52330 39070
L52640 39070
L52470 39260
L52540 39260
L52590 39290
L52610 39310
L52640 39360
L52640 39480
L52610 39520
L52590 39550
L52540 39570
L52400 39570
L52350 39550
L52330 39520
" />
</g>
<g style="fill:#008484; fill-opacity:0.0; 
stroke:#008484; stroke-width:60; stroke-opacity:1; 
stroke-linecap:round; stroke-linejoin:round;">
<text x="53500" y="36670"
textLength="1060" font-size="660" lengthAdjust="spacingAndGlyphs"
text-anchor="middle" opacity="0">Q2</text>
<path d="M53450 36690
L53400 36670
L53350 36620
L53280 36550
L53230 36520
L53190 36520
" />
<path d="M53210 36640
L53160 36620
L53110 36570
L53090 36470
L53090 36310
L53110 36210
L53160 36170
L53210 36140
L53300 36140
L53350 36170
L53400 36210
L53420 36310
L53420 36470
L53400 36570
L53350 36620
L53300 36640
L53210 36640
" />
<path d="M53610 36190
L53640 36170
L53690 36140
L53800 36140
L53850 36170
L53880 36190
L53900 36240
L53900 36280
L53880 36360
L53590 36640
L53900 36640
" />
<text x="54600" y="37470"
textLength="4180" font-size="660" lengthAdjust="spacingAndGlyphs"
text-anchor="middle" opacity="0">DTA114EKA</text>
<path d="M52650 37440
L52650 36940
L52770 36940
L52850 36970
L52890 37010
L52920 37060
L52940 37160
L52940 37230
L52920 37320
L52890 37370
L52850 37420
L52770 37440
L52650 37440
" />
<path d="M53080 36940
L53370 36940
" />
<path d="M53230 37440
L53230 36940
" />
<path d="M53510 37300
L53750 37300
" />
<path d="M53460 37440
L53630 36940
L53800 37440
" />
<path d="M54230 37440
L53940 37440
" />
<path d="M54080 37440
L54080 36940
L54040 37010
L53990 37060
L53940 37080
" />
<path d="M54700 37440
L54420 37440
" />
<path d="M54560 37440
L54560 36940
L54510 37010
L54460 37060
L54420 37080
" />
<path d="M55130 37110
L55130 37440
" />
<path d="M55010 36920
L54890 37270
L55200 37270
" />
<path d="M55390 37180
L55560 37180
" />
<path d="M55630 37440
L55390 37440
L55390 36940
L55630 36940
" />
<path d="M55850 37440
L55850 36940
" />
<path d="M56130 37440
L55920 37160
" />
<path d="M56130 36940
L55850 37230
" />
<path d="M56320 37300
L56560 37300
" />
<path d="M56270 37440
L56440 36940
L56610 37440
" />
</g>
</g>
<g style="fill:#008484; fill-opacity:0.0; 
stroke:#008484; stroke-width:0; stroke-opacity:1; 
stroke-linecap:round; stroke-linejoin:round;">
<g >
</g>
<g style="fill:#840000; fill-opacity:0.0; 
stroke:#840000; stroke-width:0; stroke-opacity:1; 
stroke-linecap:round; stroke-linejoin:round;">
</g>
<g style="fill:#840000; fill-opacity:0.0; 
stroke:#840000; stroke-width:100; stroke-opacity:1; 
stroke-linecap:round; stroke-linejoin:round;">
<path d="M52250 42497.8 A1250 1250 0.0 0 0 49750 42497.8" />
<path d="M49750 43252.2 A1250 1250 0.0 0 0 52250 43252.2" />
</g>
<g style="fill:#840000; fill-opacity:0.0; 
stroke:#840000; stroke-width:60; stroke-opacity:1; 
stroke-linecap:round; stroke-linejoin:round;">
<circle cx="51000" cy="42500" r="50" /> 
<circle cx="50100" cy="44000" r="50" /> 
</g>
<g style="fill:#840000; fill-opacity:0.0; 
stroke:#840000; stroke-width:30; stroke-opacity:1; 
stroke-linecap:round; stroke-linejoin:round;">
<g transform="rotate(-90 51340 41700)">
<text x="51340" y="41800"
textLength="600" font-size="260" lengthAdjust="spacingAndGlyphs"
text-anchor="middle" opacity="0">10k</text>
</g>
<path d="M51430 41810
L51430 41930
" />
<path d="M51430 41870
L51230 41870
L51250 41890
L51270 41910
L51280 41930
" />
<path d="M51230 41690
L51230 41670
L51240 41650
L51240 41640
L51260 41630
L51300 41620
L51350 41620
L51390 41630
L51410 41640
L51420 41650
L51430 41670
L51430 41690
L51420 41710
L51410 41720
L51390 41730
L51350 41740
L51300 41740
L51260 41730
L51240 41720
L51240 41710
L51230 41690
" />
<path d="M51430 41540
L51230 41540
" />
<path d="M51350 41520
L51430 41460
" />
<path d="M51290 41460
L51370 41540
" />
<text x="50400" y="42260"
textLength="570" font-size="260" lengthAdjust="spacingAndGlyphs"
text-anchor="middle" opacity="0">10k</text>
<path d="M50280 42250
L50160 42250
" />
<path d="M50220 42250
L50220 42050
L50200 42070
L50180 42090
L50160 42100
" />
<path d="M50400 42050
L50420 42050
L50440 42060
L50450 42060
L50460 42080
L50470 42120
L50470 42170
L50460 42210
L50450 42230
L50440 42240
L50420 42250
L50400 42250
L50380 42240
L50370 42230
L50360 42210
L50350 42170
L50350 42120
L50360 42080
L50370 42060
L50380 42060
L50400 42050
" />
<path d="M50550 42250
L50550 42050
" />
<path d="M50570 42170
L50630 42250
" />
<path d="M50630 42110
L50550 42190
" />
</g>
<g style="fill:#840000; fill-opacity:0.0; 
stroke:#840000; stroke-width:60; stroke-opacity:1; 
stroke-linecap:round; stroke-linejoin:round;">
<path style="fill:#840000; fill-opacity:0.0; 
stroke:#840000; stroke-width:60; stroke-opacity:1; 
stroke-linecap:round; stroke-linejoin:round;fill:none"
d="M 51000,41650
51000,41500
" /> 
</g>
<g style="fill:#840000; fill-opacity:0.0; 
stroke:#840000; stroke-width:100; stroke-opacity:1; 
stroke-linecap:round; stroke-linejoin:round;">
<path style="fill:#840000; fill-opacity:0.0; 
stroke:#840000; stroke-width:100; stroke-opacity:1; 
stroke-linecap:round; stroke-linejoin:round;fill:none"
d="M 49750,42500
49750,43250
" /> 
<path style="fill:#840000; fill-opacity:0.0; 
stroke:#840000; stroke-width:100; stroke-opacity:1; 
stroke-linecap:round; stroke-linejoin:round;fill:none"
d="M 52250,42500
52250,43250
" /> 
</g>
<g style="fill:#840000; fill-opacity:0.0; 
stroke:#840000; stroke-width:60; stroke-opacity:1; 
stroke-linecap:round; stroke-linejoin:round;">
<path style="fill:#840000; fill-opacity:0.0; 
stroke:#840000; stroke-width:60; stroke-opacity:1; 
stroke-linecap:round; stroke-linejoin:round;fill:none"
d="M 50900,43000
51900,44000
" /> 
</g>
<g style="fill:#840000; fill-opacity:1.0; 
stroke:#840000; stroke-width:200; stroke-opacity:1; 
stroke-linecap:round; stroke-linejoin:round;">
<path style="fill:#840000; fill-opacity:1.0; 
stroke:#840000; stroke-width:200; stroke-opacity:1; 
stroke-linecap:round; stroke-linejoin:round;fill-rule:evenodd;"
d="M 51600,43050
50350,43050
" /> 
</g>
<g style="fill:#840000; fill-opacity:0.0; 
stroke:#840000; stroke-width:60; stroke-opacity:1; 
stroke-linecap:round; stroke-linejoin:round;">
<path style="fill:#840000; fill-opacity:0.0; 
stroke:#840000; stroke-width:60; stroke-opacity:1; 
stroke-linecap:round; stroke-linejoin:round;fill:none"
d="M 51900,44000
52000,44000
" /> 
<path style="fill:#840000; fill-opacity:0.0; 
stroke:#840000; stroke-width:60; stroke-opacity:1; 
stroke-linecap:round; stroke-linejoin:round;fill:none"
d="M 50100,44000
51100,43000
51100,43000
" /> 
</g>
<g style="fill:#840000; fill-opacity:1.0; 
stroke:#840000; stroke-width:60; stroke-opacity:1; 
stroke-linecap:round; stroke-linejoin:round;">
<path style="fill:#840000; fill-opacity:1.0; 
stroke:#840000; stroke-width:60; stroke-opacity:1; 
stroke-linecap:round; stroke-linejoin:round;fill-rule:evenodd;"
d="M 50350,43550
50550,43750
50750,43350
Z" /> 
</g>
<g style="fill:#840000; fill-opacity:0.0; 
stroke:#840000; stroke-width:60; stroke-opacity:1; 
stroke-linecap:round; stroke-linejoin:round;">
<path style="fill:#840000; fill-opacity:0.0; 
stroke:#840000; stroke-width:60; stroke-opacity:1; 
stroke-linecap:round; stroke-linejoin:round;fill:none"
d="M 51000,43000
51000,42250
51200,42200
50800,42100
51200,42000
50800,41900
51200,41800
50800,41700
51000,41650
" /> 
<path style="fill:#840000; fill-opacity:0.0; 
stroke:#840000; stroke-width:60; stroke-opacity:1; 
stroke-linecap:round; stroke-linejoin:round;fill:none"
d="M 51000,42500
50850,42500
50800,42700
50700,42300
50600,42700
50500,42300
50400,42700
50300,42300
50250,42500
50100,42500
50100,44000
" /> 
<path d="M51000 41500
L51000 40500
" />
<g transform="rotate(-90 51100 41000)">
<text x="51100" y="41500"
textLength="510" font-size="660" lengthAdjust="spacingAndGlyphs"
text-anchor="middle" opacity="0">1</text>
</g>
<path d="M51570 40850
L51570 41140
" />
<path d="M51570 41000
L51070 41000
L51140 41040
L51190 41090
L51210 41140
" />
<path d="M50000 44000
L49000 44000
" />
<text x="49500" y="44600"
textLength="540" font-size="660" lengthAdjust="spacingAndGlyphs"
text-anchor="middle" opacity="0">2</text>
<path d="M49350 44120
L49380 44100
L49420 44070
L49540 44070
L49590 44100
L49610 44120
L49640 44170
L49640 44210
L49610 44290
L49330 44570
L49640 44570
" />
<path d="M52000 44000
L53000 44000
" />
<text x="52500" y="44600"
textLength="540" font-size="660" lengthAdjust="spacingAndGlyphs"
text-anchor="middle" opacity="0">3</text>
<path d="M52330 44070
L52640 44070
L52470 44260
L52540 44260
L52590 44290
L52610 44310
L52640 44360
L52640 44480
L52610 44520
L52590 44550
L52540 44570
L52400 44570
L52350 44550
L52330 44520
" />
</g>
<g style="fill:#008484; fill-opacity:0.0; 
stroke:#008484; stroke-width:60; stroke-opacity:1; 
stroke-linecap:round; stroke-linejoin:round;">
<text x="53500" y="41670"
textLength="1060" font-size="660" lengthAdjust="spacingAndGlyphs"
text-anchor="middle" opacity="0">Q3</text>
<path d="M53450 41690
L53400 41670
L53350 41620
L53280 41550
L53230 41520
L53190 41520
" />
<path d="M53210 41640
L53160 41620
L53110 41570
L53090 41470
L53090 41310
L53110 41210
L53160 41170
L53210 41140
L53300 41140
L53350 41170
L53400 41210
L53420 41310
L53420 41470
L53400 41570
L53350 41620
L53300 41640
L53210 41640
" />
<path d="M53590 41140
L53900 41140
L53730 41330
L53800 41330
L53850 41360
L53880 41380
L53900 41430
L53900 41550
L53880 41590
L53850 41620
L53800 41640
L53660 41640
L53610 41620
L53590 41590
" />
<text x="54600" y="42470"
textLength="4180" font-size="660" lengthAdjust="spacingAndGlyphs"
text-anchor="middle" opacity="0">DTA114EKA</text>
<path d="M52650 42440
L52650 41940
L52770 41940
L52850 41970
L52890 42010
L52920 42060
L52940 42160
L52940 42230
L52920 42320
L52890 42370
L52850 42420
L52770 42440
L52650 42440
" />
<path d="M53080 41940
L53370 41940
" />
<path d="M53230 42440
L53230 41940
" />
<path d="M53510 42300
L53750 42300
" />
<path d="M53460 42440
L53630 41940
L53800 42440
" />
<path d="M54230 42440
L53940 42440
" />
<path d="M54080 42440
L54080 41940
L54040 42010
L53990 42060
L53940 42080
" />
<path d="M54700 42440
L54420 42440
" />
<path d="M54560 42440
L54560 41940
L54510 42010
L54460 42060
L54420 42080
" />
<path d="M55130 42110
L55130 42440
" />
<path d="M55010 41920
L54890 42270
L55200 42270
" />
<path d="M55390 42180
L55560 42180
" />
<path d="M55630 42440
L55390 42440
L55390 41940
L55630 41940
" />
<path d="M55850 42440
L55850 41940
" />
<path d="M56130 42440
L55920 42160
" />
<path d="M56130 41940
L55850 42230
" />
<path d="M56320 42300
L56560 42300
" />
<path d="M56270 42440
L56440 41940
L56610 42440
" />
</g>
</g>
<g style="fill:#008484; fill-opacity:0.0; 
stroke:#008484; stroke-width:0; stroke-opacity:1; 
stroke-linecap:round; stroke-linejoin:round;">
<g >
</g>
<g style="fill:#840000; fill-opacity:0.0; 
stroke:#840000; stroke-width:0; stroke-opacity:1; 
stroke-linecap:round; stroke-linejoin:round;">
</g>
<g style="fill:#FFFFC2; fill-opacity:0.0; 
stroke:#FFFFC2; stroke-width:0; stroke-opacity:1; 
stroke-linecap:round; stroke-linejoin:round;">
</g>
<g style="fill:#FFFFC2; fill-opacity:0.6; 
stroke:#FFFFC2; stroke-width:0; stroke-opacity:1; 
stroke-linecap:round; stroke-linejoin:round;">
<rect x="36600" y="38500" width="900" height="2000" rx="0" />
</g>
<g style="fill:#840000; fill-opacity:0.6; 
stroke:#840000; stroke-width:0; stroke-opacity:1; 
stroke-linecap:round; stroke-linejoin:round;">
</g>
<g style="fill:#840000; fill-opacity:0.0; 
stroke:#840000; stroke-width:100; stroke-opacity:1; 
stroke-linecap:round; stroke-linejoin:round;">
<rect x="36600" y="38500" width="900" height="2000" rx="0" />
</g>
<g style="fill:#FFFFC2; fill-opacity:0.0; 
stroke:#FFFFC2; stroke-width:100; stroke-opacity:1; 
stroke-linecap:round; stroke-linejoin:round;">
</g>
<g style="fill:#FFFFC2; fill-opacity:0.6; 
stroke:#FFFFC2; stroke-width:0; stroke-opacity:1; 
stroke-linecap:round; stroke-linejoin:round;">
<rect x="37500" y="37500" width="2000" height="4000" rx="0" />
</g>
<g style="fill:#840000; fill-opacity:0.6; 
stroke:#840000; stroke-width:0; stroke-opacity:1; 
stroke-linecap:round; stroke-linejoin:round;">
</g>
<g style="fill:#840000; fill-opacity:0.0; 
stroke:#840000; stroke-width:100; stroke-opacity:1; 
stroke-linecap:round; stroke-linejoin:round;">
<rect x="37500" y="37500" width="2000" height="4000" rx="0" />
<rect x="36600" y="38500" width="900" height="2000" rx="0" />
</g>
<g style="fill:#840000; fill-opacity:0.0; 
stroke:#840000; stroke-width:60; stroke-opacity:1; 
stroke-linecap:round; stroke-linejoin:round;">
<rect x="37500" y="40950" width="500" height="100" rx="0" />
<rect x="37500" y="39950" width="500" height="100" rx="0" />
<rect x="37500" y="38950" width="500" height="100" rx="0" />
<rect x="37500" y="37950" width="500" height="100" rx="0" />
</g>
<g style="fill:#840000; fill-opacity:0.0; 
stroke:#840000; stroke-width:100; stroke-opacity:1; 
stroke-linecap:round; stroke-linejoin:round;">
<rect x="37500" y="37500" width="2000" height="4000" rx="0" />
</g>
<g style="fill:#840000; fill-opacity:0.0; 
stroke:#840000; stroke-width:60; stroke-opacity:1; 
stroke-linecap:round; stroke-linejoin:round;">
<rect x="39000" y="40950" width="500" height="100" rx="0" />
<rect x="39000" y="39950" width="500" height="100" rx="0" />
<rect x="39000" y="38950" width="500" height="100" rx="0" />
<rect x="39000" y="37950" width="500" height="100" rx="0" />
<path d="M37500 38000
L36000 38000
" />
<text x="36750" y="37900"
textLength="540" font-size="660" lengthAdjust="spacingAndGlyphs"
text-anchor="middle" opacity="0">1</text>
<path d="M36890 37870
L36600 37870
" />
<path d="M36750 37870
L36750 37370
L36700 37440
L36650 37490
L36600 37510
" />
<path d="M39500 38000
L41000 38000
" />
<text x="40250" y="37900"
textLength="540" font-size="660" lengthAdjust="spacingAndGlyphs"
text-anchor="middle" opacity="0">2</text>
<path d="M40100 37420
L40130 37400
L40170 37370
L40290 37370
L40340 37400
L40360 37420
L40390 37470
L40390 37510
L40360 37590
L40080 37870
L40390 37870
" />
<path d="M37500 39000
L36000 39000
" />
<text x="36750" y="38900"
textLength="540" font-size="660" lengthAdjust="spacingAndGlyphs"
text-anchor="middle" opacity="0">3</text>
<path d="M36580 38370
L36890 38370
L36720 38560
L36790 38560
L36840 38590
L36860 38610
L36890 38660
L36890 38780
L36860 38820
L36840 38850
L36790 38870
L36650 38870
L36600 38850
L36580 38820
" />
<path d="M39500 39000
L41000 39000
" />
<text x="40250" y="38900"
textLength="540" font-size="660" lengthAdjust="spacingAndGlyphs"
text-anchor="middle" opacity="0">4</text>
<path d="M40340 38540
L40340 38870
" />
<path d="M40220 38350
L40100 38700
L40410 38700
" />
<path d="M37500 40000
L36000 40000
" />
<text x="36750" y="39900"
textLength="540" font-size="660" lengthAdjust="spacingAndGlyphs"
text-anchor="middle" opacity="0">5</text>
<path d="M36860 39370
L36630 39370
L36600 39610
L36630 39590
L36670 39560
L36790 39560
L36840 39590
L36860 39610
L36890 39660
L36890 39780
L36860 39820
L36840 39850
L36790 39870
L36670 39870
L36630 39850
L36600 39820
" />
<path d="M39500 40000
L41000 40000
" />
<text x="40250" y="39900"
textLength="540" font-size="660" lengthAdjust="spacingAndGlyphs"
text-anchor="middle" opacity="0">6</text>
<path d="M40340 39370
L40250 39370
L40200 39400
L40170 39420
L40130 39490
L40100 39590
L40100 39780
L40130 39820
L40150 39850
L40200 39870
L40290 39870
L40340 39850
L40360 39820
L40390 39780
L40390 39660
L40360 39610
L40340 39590
L40290 39560
L40200 39560
L40150 39590
L40130 39610
L40100 39660
" />
<path d="M37500 41000
L36000 41000
" />
<text x="36750" y="40900"
textLength="540" font-size="660" lengthAdjust="spacingAndGlyphs"
text-anchor="middle" opacity="0">7</text>
<path d="M36580 40370
L36910 40370
L36700 40870
" />
<path d="M39500 41000
L41000 41000
" />
<text x="40250" y="40900"
textLength="540" font-size="660" lengthAdjust="spacingAndGlyphs"
text-anchor="middle" opacity="0">8</text>
<path d="M40200 40590
L40150 40560
L40130 40540
L40100 40490
L40100 40470
L40130 40420
L40150 40400
L40200 40370
L40290 40370
L40340 40400
L40360 40420
L40390 40470
L40390 40490
L40360 40540
L40340 40560
L40290 40590
L40200 40590
L40150 40610
L40130 40630
L40100 40680
L40100 40780
L40130 40820
L40150 40850
L40200 40870
L40290 40870
L40340 40850
L40360 40820
L40390 40780
L40390 40680
L40360 40630
L40340 40610
L40290 40590
" />
</g>
<g style="fill:#008484; fill-opacity:0.0; 
stroke:#008484; stroke-width:60; stroke-opacity:1; 
stroke-linecap:round; stroke-linejoin:round;">
<text x="38400" y="35970"
textLength="920" font-size="660" lengthAdjust="spacingAndGlyphs"
text-anchor="middle" opacity="0">J2</text>
<path d="M38230 35440
L38230 35800
L38200 35870
L38160 35920
L38090 35940
L38040 35940
" />
<path d="M38440 35490
L38470 35470
L38510 35440
L38630 35440
L38680 35470
L38700 35490
L38730 35540
L38730 35580
L38700 35660
L38420 35940
L38730 35940
" />
<text x="38500" y="36770"
textLength="1940" font-size="660" lengthAdjust="spacingAndGlyphs"
text-anchor="middle" opacity="0">TPDD</text>
<path d="M37600 36240
L37890 36240
" />
<path d="M37750 36740
L37750 36240
" />
<path d="M38050 36740
L38050 36240
L38250 36240
L38290 36270
L38320 36290
L38340 36340
L38340 36410
L38320 36460
L38290 36480
L38250 36500
L38050 36500
" />
<path d="M38550 36740
L38550 36240
L38670 36240
L38750 36270
L38790 36310
L38820 36360
L38840 36460
L38840 36530
L38820 36620
L38790 36670
L38750 36720
L38670 36740
L38550 36740
" />
<path d="M39050 36740
L39050 36240
L39170 36240
L39250 36270
L39290 36310
L39320 36360
L39340 36460
L39340 36530
L39320 36620
L39290 36670
L39250 36720
L39170 36740
L39050 36740
" />
</g>
</g>
<g style="fill:#008484; fill-opacity:0.0; 
stroke:#008484; stroke-width:0; stroke-opacity:1; 
stroke-linecap:round; stroke-linejoin:round;">
<g >
</g>
<g style="fill:#840000; fill-opacity:0.0; 
stroke:#840000; stroke-width:0; stroke-opacity:1; 
stroke-linecap:round; stroke-linejoin:round;">
</g>
<g style="fill:#840000; fill-opacity:0.0; 
stroke:#840000; stroke-width:100; stroke-opacity:1; 
stroke-linecap:round; stroke-linejoin:round;">
<path d="M52250 32497.8 A1250 1250 0.0 0 0 49750 32497.8" />
<path d="M49750 33252.2 A1250 1250 0.0 0 0 52250 33252.2" />
</g>
<g style="fill:#840000; fill-opacity:0.0; 
stroke:#840000; stroke-width:60; stroke-opacity:1; 
stroke-linecap:round; stroke-linejoin:round;">
<circle cx="51000" cy="32500" r="50" /> 
<circle cx="50100" cy="34000" r="50" /> 
</g>
<g style="fill:#840000; fill-opacity:0.0; 
stroke:#840000; stroke-width:30; stroke-opacity:1; 
stroke-linecap:round; stroke-linejoin:round;">
<g transform="rotate(-90 51340 31700)">
<text x="51340" y="31800"
textLength="600" font-size="260" lengthAdjust="spacingAndGlyphs"
text-anchor="middle" opacity="0">10k</text>
</g>
<path d="M51430 31810
L51430 31930
" />
<path d="M51430 31870
L51230 31870
L51250 31890
L51270 31910
L51280 31930
" />
<path d="M51230 31690
L51230 31670
L51240 31650
L51240 31640
L51260 31630
L51300 31620
L51350 31620
L51390 31630
L51410 31640
L51420 31650
L51430 31670
L51430 31690
L51420 31710
L51410 31720
L51390 31730
L51350 31740
L51300 31740
L51260 31730
L51240 31720
L51240 31710
L51230 31690
" />
<path d="M51430 31540
L51230 31540
" />
<path d="M51350 31520
L51430 31460
" />
<path d="M51290 31460
L51370 31540
" />
<text x="50400" y="32260"
textLength="570" font-size="260" lengthAdjust="spacingAndGlyphs"
text-anchor="middle" opacity="0">10k</text>
<path d="M50280 32250
L50160 32250
" />
<path d="M50220 32250
L50220 32050
L50200 32070
L50180 32090
L50160 32100
" />
<path d="M50400 32050
L50420 32050
L50440 32060
L50450 32060
L50460 32080
L50470 32120
L50470 32170
L50460 32210
L50450 32230
L50440 32240
L50420 32250
L50400 32250
L50380 32240
L50370 32230
L50360 32210
L50350 32170
L50350 32120
L50360 32080
L50370 32060
L50380 32060
L50400 32050
" />
<path d="M50550 32250
L50550 32050
" />
<path d="M50570 32170
L50630 32250
" />
<path d="M50630 32110
L50550 32190
" />
</g>
<g style="fill:#840000; fill-opacity:0.0; 
stroke:#840000; stroke-width:60; stroke-opacity:1; 
stroke-linecap:round; stroke-linejoin:round;">
<path style="fill:#840000; fill-opacity:0.0; 
stroke:#840000; stroke-width:60; stroke-opacity:1; 
stroke-linecap:round; stroke-linejoin:round;fill:none"
d="M 51000,31650
51000,31500
" /> 
</g>
<g style="fill:#840000; fill-opacity:0.0; 
stroke:#840000; stroke-width:100; stroke-opacity:1; 
stroke-linecap:round; stroke-linejoin:round;">
<path style="fill:#840000; fill-opacity:0.0; 
stroke:#840000; stroke-width:100; stroke-opacity:1; 
stroke-linecap:round; stroke-linejoin:round;fill:none"
d="M 49750,32500
49750,33250
" /> 
<path style="fill:#840000; fill-opacity:0.0; 
stroke:#840000; stroke-width:100; stroke-opacity:1; 
stroke-linecap:round; stroke-linejoin:round;fill:none"
d="M 52250,32500
52250,33250
" /> 
</g>
<g style="fill:#840000; fill-opacity:0.0; 
stroke:#840000; stroke-width:60; stroke-opacity:1; 
stroke-linecap:round; stroke-linejoin:round;">
<path style="fill:#840000; fill-opacity:0.0; 
stroke:#840000; stroke-width:60; stroke-opacity:1; 
stroke-linecap:round; stroke-linejoin:round;fill:none"
d="M 50900,33000
51900,34000
" /> 
</g>
<g style="fill:#840000; fill-opacity:1.0; 
stroke:#840000; stroke-width:200; stroke-opacity:1; 
stroke-linecap:round; stroke-linejoin:round;">
<path style="fill:#840000; fill-opacity:1.0; 
stroke:#840000; stroke-width:200; stroke-opacity:1; 
stroke-linecap:round; stroke-linejoin:round;fill-rule:evenodd;"
d="M 51600,33050
50350,33050
" /> 
</g>
<g style="fill:#840000; fill-opacity:0.0; 
stroke:#840000; stroke-width:60; stroke-opacity:1; 
stroke-linecap:round; stroke-linejoin:round;">
<path style="fill:#840000; fill-opacity:0.0; 
stroke:#840000; stroke-width:60; stroke-opacity:1; 
stroke-linecap:round; stroke-linejoin:round;fill:none"
d="M 51900,34000
52000,34000
" /> 
<path style="fill:#840000; fill-opacity:0.0; 
stroke:#840000; stroke-width:60; stroke-opacity:1; 
stroke-linecap:round; stroke-linejoin:round;fill:none"
d="M 50100,34000
51100,33000
51100,33000
" /> 
</g>
<g style="fill:#840000; fill-opacity:1.0; 
stroke:#840000; stroke-width:60; stroke-opacity:1; 
stroke-linecap:round; stroke-linejoin:round;">
<path style="fill:#840000; fill-opacity:1.0; 
stroke:#840000; stroke-width:60; stroke-opacity:1; 
stroke-linecap:round; stroke-linejoin:round;fill-rule:evenodd;"
d="M 50350,33550
50550,33750
50750,33350
Z" /> 
</g>
<g style="fill:#840000; fill-opacity:0.0; 
stroke:#840000; stroke-width:60; stroke-opacity:1; 
stroke-linecap:round; stroke-linejoin:round;">
<path style="fill:#840000; fill-opacity:0.0; 
stroke:#840000; stroke-width:60; stroke-opacity:1; 
stroke-linecap:round; stroke-linejoin:round;fill:none"
d="M 51000,33000
51000,32250
51200,32200
50800,32100
51200,32000
50800,31900
51200,31800
50800,31700
51000,31650
" /> 
<path style="fill:#840000; fill-opacity:0.0; 
stroke:#840000; stroke-width:60; stroke-opacity:1; 
stroke-linecap:round; stroke-linejoin:round;fill:none"
d="M 51000,32500
50850,32500
50800,32700
50700,32300
50600,32700
50500,32300
50400,32700
50300,32300
50250,32500
50100,32500
50100,34000
" /> 
<path d="M51000 31500
L51000 30500
" />
<g transform="rotate(-90 51100 31000)">
<text x="51100" y="31500"
textLength="510" font-size="660" lengthAdjust="spacingAndGlyphs"
text-anchor="middle" opacity="0">1</text>
</g>
<path d="M51570 30850
L51570 31140
" />
<path d="M51570 31000
L51070 31000
L51140 31040
L51190 31090
L51210 31140
" />
<path d="M50000 34000
L49000 34000
" />
<text x="49500" y="34600"
textLength="540" font-size="660" lengthAdjust="spacingAndGlyphs"
text-anchor="middle" opacity="0">2</text>
<path d="M49350 34120
L49380 34100
L49420 34070
L49540 34070
L49590 34100
L49610 34120
L49640 34170
L49640 34210
L49610 34290
L49330 34570
L49640 34570
" />
<path d="M52000 34000
L53000 34000
" />
<text x="52500" y="34600"
textLength="540" font-size="660" lengthAdjust="spacingAndGlyphs"
text-anchor="middle" opacity="0">3</text>
<path d="M52330 34070
L52640 34070
L52470 34260
L52540 34260
L52590 34290
L52610 34310
L52640 34360
L52640 34480
L52610 34520
L52590 34550
L52540 34570
L52400 34570
L52350 34550
L52330 34520
" />
</g>
<g style="fill:#008484; fill-opacity:0.0; 
stroke:#008484; stroke-width:60; stroke-opacity:1; 
stroke-linecap:round; stroke-linejoin:round;">
<text x="53400" y="31570"
textLength="1060" font-size="660" lengthAdjust="spacingAndGlyphs"
text-anchor="middle" opacity="0">Q1</text>
<path d="M53350 31590
L53300 31570
L53250 31520
L53180 31450
L53130 31420
L53090 31420
" />
<path d="M53110 31540
L53060 31520
L53010 31470
L52990 31370
L52990 31210
L53010 31110
L53060 31070
L53110 31040
L53200 31040
L53250 31070
L53300 31110
L53320 31210
L53320 31370
L53300 31470
L53250 31520
L53200 31540
L53110 31540
" />
<path d="M53800 31540
L53510 31540
" />
<path d="M53660 31540
L53660 31040
L53610 31110
L53560 31160
L53510 31180
" />
<text x="54500" y="32370"
textLength="4180" font-size="660" lengthAdjust="spacingAndGlyphs"
text-anchor="middle" opacity="0">DTA114EKA</text>
<path d="M52550 32340
L52550 31840
L52670 31840
L52750 31870
L52790 31910
L52820 31960
L52840 32060
L52840 32130
L52820 32220
L52790 32270
L52750 32320
L52670 32340
L52550 32340
" />
<path d="M52980 31840
L53270 31840
" />
<path d="M53130 32340
L53130 31840
" />
<path d="M53410 32200
L53650 32200
" />
<path d="M53360 32340
L53530 31840
L53700 32340
" />
<path d="M54130 32340
L53840 32340
" />
<path d="M53980 32340
L53980 31840
L53940 31910
L53890 31960
L53840 31980
" />
<path d="M54600 32340
L54320 32340
" />
<path d="M54460 32340
L54460 31840
L54410 31910
L54360 31960
L54320 31980
" />
<path d="M55030 32010
L55030 32340
" />
<path d="M54910 31820
L54790 32170
L55100 32170
" />
<path d="M55290 32080
L55460 32080
" />
<path d="M55530 32340
L55290 32340
L55290 31840
L55530 31840
" />
<path d="M55750 32340
L55750 31840
" />
<path d="M56030 32340
L55820 32060
" />
<path d="M56030 31840
L55750 32130
" />
<path d="M56220 32200
L56460 32200
" />
<path d="M56170 32340
L56340 31840
L56510 32340
" />
</g>
</g>
<g style="fill:#008484; fill-opacity:0.0; 
stroke:#008484; stroke-width:0; stroke-opacity:1; 
stroke-linecap:round; stroke-linejoin:round;">
<g >
</g>
<g style="fill:#840000; fill-opacity:0.0; 
stroke:#840000; stroke-width:0; stroke-opacity:1; 
stroke-linecap:round; stroke-linejoin:round;">
</g>
<g style="fill:#840000; fill-opacity:1.0; 
stroke:#840000; stroke-width:60; stroke-opacity:1; 
stroke-linecap:round; stroke-linejoin:round;">
<circle cx="65000" cy="36000" r="300" /> 
<circle cx="65000" cy="38000" r="300" /> 
<circle cx="65000" cy="40000" r="300" /> 
<circle cx="65000" cy="42000" r="300" /> 
<circle cx="66200" cy="37000" r="300" /> 
<circle cx="66200" cy="39000" r="300" /> 
<circle cx="66200" cy="41000" r="300" /> 
</g>
<g style="fill:#840000; fill-opacity:0.0; 
stroke:#840000; stroke-width:60; stroke-opacity:1; 
stroke-linecap:round; stroke-linejoin:round;">
<path style="fill:#840000; fill-opacity:0.0; 
stroke:#840000; stroke-width:60; stroke-opacity:1; 
stroke-linecap:round; stroke-linejoin:round;fill:none"
d="M 64200,36000
64700,36000
" /> 
<path style="fill:#840000; fill-opacity:0.0; 
stroke:#840000; stroke-width:60; stroke-opacity:1; 
stroke-linecap:round; stroke-linejoin:round;fill:none"
d="M 64200,37000
65900,37000
" /> 
<path style="fill:#840000; fill-opacity:0.0; 
stroke:#840000; stroke-width:60; stroke-opacity:1; 
stroke-linecap:round; stroke-linejoin:round;fill:none"
d="M 64200,38000
64700,38000
" /> 
<path style="fill:#840000; fill-opacity:0.0; 
stroke:#840000; stroke-width:60; stroke-opacity:1; 
stroke-linecap:round; stroke-linejoin:round;fill:none"
d="M 64200,39000
65900,39000
" /> 
<path style="fill:#840000; fill-opacity:0.0; 
stroke:#840000; stroke-width:60; stroke-opacity:1; 
stroke-linecap:round; stroke-linejoin:round;fill:none"
d="M 64200,40000
64700,40000
" /> 
<path style="fill:#840000; fill-opacity:0.0; 
stroke:#840000; stroke-width:60; stroke-opacity:1; 
stroke-linecap:round; stroke-linejoin:round;fill:none"
d="M 64200,41000
65900,41000
" /> 
<path style="fill:#840000; fill-opacity:0.0; 
stroke:#840000; stroke-width:60; stroke-opacity:1; 
stroke-linecap:round; stroke-linejoin:round;fill:none"
d="M 64200,42000
64700,42000
" /> 
<path d="M64200 42000
L62700 42000
" />
<text x="63450" y="41900"
textLength="540" font-size="660" lengthAdjust="spacingAndGlyphs"
text-anchor="middle" opacity="0">1</text>
<path d="M63590 41870
L63300 41870
" />
<path d="M63450 41870
L63450 41370
L63400 41440
L63350 41490
L63300 41510
" />
<path d="M64200 41000
L62700 41000
" />
<text x="63450" y="40900"
textLength="540" font-size="660" lengthAdjust="spacingAndGlyphs"
text-anchor="middle" opacity="0">2</text>
<path d="M63300 40420
L63330 40400
L63370 40370
L63490 40370
L63540 40400
L63560 40420
L63590 40470
L63590 40510
L63560 40590
L63280 40870
L63590 40870
" />
<path d="M64200 40000
L62700 40000
" />
<text x="63450" y="39900"
textLength="540" font-size="660" lengthAdjust="spacingAndGlyphs"
text-anchor="middle" opacity="0">3</text>
<path d="M63280 39370
L63590 39370
L63420 39560
L63490 39560
L63540 39590
L63560 39610
L63590 39660
L63590 39780
L63560 39820
L63540 39850
L63490 39870
L63350 39870
L63300 39850
L63280 39820
" />
<path d="M64200 39000
L62700 39000
" />
<text x="63450" y="38900"
textLength="540" font-size="660" lengthAdjust="spacingAndGlyphs"
text-anchor="middle" opacity="0">4</text>
<path d="M63540 38540
L63540 38870
" />
<path d="M63420 38350
L63300 38700
L63610 38700
" />
<path d="M64200 38000
L62700 38000
" />
<text x="63450" y="37900"
textLength="540" font-size="660" lengthAdjust="spacingAndGlyphs"
text-anchor="middle" opacity="0">5</text>
<path d="M63560 37370
L63330 37370
L63300 37610
L63330 37590
L63370 37560
L63490 37560
L63540 37590
L63560 37610
L63590 37660
L63590 37780
L63560 37820
L63540 37850
L63490 37870
L63370 37870
L63330 37850
L63300 37820
" />
<path d="M64200 37000
L62700 37000
" />
<text x="63450" y="36900"
textLength="540" font-size="660" lengthAdjust="spacingAndGlyphs"
text-anchor="middle" opacity="0">6</text>
<path d="M63540 36370
L63450 36370
L63400 36400
L63370 36420
L63330 36490
L63300 36590
L63300 36780
L63330 36820
L63350 36850
L63400 36870
L63490 36870
L63540 36850
L63560 36820
L63590 36780
L63590 36660
L63560 36610
L63540 36590
L63490 36560
L63400 36560
L63350 36590
L63330 36610
L63300 36660
" />
<path d="M64200 36000
L62700 36000
" />
<text x="63450" y="35900"
textLength="540" font-size="660" lengthAdjust="spacingAndGlyphs"
text-anchor="middle" opacity="0">7</text>
<path d="M63280 35370
L63610 35370
L63400 35870
" />
</g>
<g style="fill:#008484; fill-opacity:0.0; 
stroke:#008484; stroke-width:60; stroke-opacity:1; 
stroke-linecap:round; stroke-linejoin:round;">
<text x="64700" y="33720"
textLength="920" font-size="660" lengthAdjust="spacingAndGlyphs"
text-anchor="middle" opacity="0">J1</text>
<path d="M64530 33190
L64530 33550
L64500 33620
L64460 33670
L64390 33690
L64340 33690
" />
<path d="M65030 33690
L64740 33690
" />
<path d="M64890 33690
L64890 33190
L64840 33260
L64790 33310
L64740 33330
" />
<text x="64700" y="34720"
textLength="6560" font-size="660" lengthAdjust="spacingAndGlyphs"
text-anchor="middle" opacity="0">Wire Solder Pads</text>
<path d="M61520 34190
L61640 34690
L61730 34330
L61830 34690
L61950 34190
" />
<path d="M62140 34690
L62140 34360
" />
<path d="M62140 34190
L62110 34220
L62140 34240
L62160 34220
L62140 34190
L62140 34240
" />
<path d="M62370 34690
L62370 34360
" />
<path d="M62370 34450
L62400 34410
L62420 34380
L62470 34360
L62520 34360
" />
<path d="M62870 34670
L62830 34690
L62730 34690
L62680 34670
L62660 34620
L62660 34430
L62680 34380
L62730 34360
L62830 34360
L62870 34380
L62900 34430
L62900 34480
L62660 34520
" />
<path d="M63470 34670
L63540 34690
L63660 34690
L63710 34670
L63730 34640
L63750 34600
L63750 34550
L63730 34500
L63710 34480
L63660 34450
L63560 34430
L63520 34410
L63490 34380
L63470 34330
L63470 34290
L63490 34240
L63520 34220
L63560 34190
L63680 34190
L63750 34220
" />
<path d="M64040 34690
L63990 34670
L63970 34640
L63950 34600
L63950 34450
L63970 34410
L63990 34380
L64040 34360
L64110 34360
L64160 34380
L64180 34410
L64210 34450
L64210 34600
L64180 34640
L64160 34670
L64110 34690
L64040 34690
" />
<path d="M64490 34690
L64450 34670
L64420 34620
L64420 34190
" />
<path d="M64900 34690
L64900 34190
" />
<path d="M64900 34670
L64850 34690
L64750 34690
L64710 34670
L64680 34640
L64660 34600
L64660 34450
L64680 34410
L64710 34380
L64750 34360
L64850 34360
L64900 34380
" />
<path d="M65330 34670
L65280 34690
L65180 34690
L65140 34670
L65110 34620
L65110 34430
L65140 34380
L65180 34360
L65280 34360
L65330 34380
L65350 34430
L65350 34480
L65110 34520
" />
<path d="M65560 34690
L65560 34360
" />
<path d="M65560 34450
L65590 34410
L65610 34380
L65660 34360
L65710 34360
" />
<path d="M66250 34690
L66250 34190
L66450 34190
L66490 34220
L66520 34240
L66540 34290
L66540 34360
L66520 34410
L66490 34430
L66450 34450
L66250 34450
" />
<path d="M66970 34690
L66970 34430
L66950 34380
L66900 34360
L66800 34360
L66750 34380
" />
<path d="M66970 34670
L66920 34690
L66800 34690
L66750 34670
L66730 34620
L66730 34570
L66750 34520
L66800 34500
L66920 34500
L66970 34480
" />
<path d="M67420 34690
L67420 34190
" />
<path d="M67420 34670
L67370 34690
L67280 34690
L67230 34670
L67210 34640
L67180 34600
L67180 34450
L67210 34410
L67230 34380
L67280 34360
L67370 34360
L67420 34380
" />
<path d="M67640 34670
L67680 34690
L67780 34690
L67830 34670
L67850 34620
L67850 34600
L67830 34550
L67780 34520
L67710 34520
L67660 34500
L67640 34450
L67640 34430
L67660 34380
L67710 34360
L67780 34360
L67830 34380
" />
</g>
</g>
<g style="fill:#008484; fill-opacity:0.0; 
stroke:#008484; stroke-width:60; stroke-opacity:1; 
stroke-linecap:round; stroke-linejoin:round;">
</g>
<g style="fill:#0000C2; fill-opacity:0.0; 
stroke:#0000C2; stroke-width:60; stroke-opacity:1; 
stroke-linecap:round; stroke-linejoin:round;">
</g>
<g style="fill:#0000C2; fill-opacity:0.0; 
stroke:#0000C2; stroke-width:60; stroke-opacity:1; 
stroke-linecap:round; stroke-linejoin:round;stroke-dasharray:150,150;">
<path d="M65000 42000
L72300 42000
" />
</g>
<g style="fill:#0000C2; fill-opacity:0.0; 
stroke:#0000C2; stroke-width:60; stroke-opacity:1; 
stroke-linecap:round; stroke-linejoin:round;">
</g>
<g style="fill:#0000C2; fill-opacity:0.0; 
stroke:#0000C2; stroke-width:60; stroke-opacity:1; 
stroke-linecap:round; stroke-linejoin:round;stroke-dasharray:150,150;">
<path d="M66200 41000
L72300 41000
" />
</g>
<g style="fill:#0000C2; fill-opacity:0.0; 
stroke:#0000C2; stroke-width:60; stroke-opacity:1; 
stroke-linecap:round; stroke-linejoin:round;">
</g>
<g style="fill:#0000C2; fill-opacity:0.0; 
stroke:#0000C2; stroke-width:60; stroke-opacity:1; 
stroke-linecap:round; stroke-linejoin:round;stroke-dasharray:150,150;">
<path d="M65000 40000
L72300 40000
" />
</g>
<g style="fill:#0000C2; fill-opacity:0.0; 
stroke:#0000C2; stroke-width:60; stroke-opacity:1; 
stroke-linecap:round; stroke-linejoin:round;">
</g>
<g style="fill:#0000C2; fill-opacity:0.0; 
stroke:#0000C2; stroke-width:60; stroke-opacity:1; 
stroke-linecap:round; stroke-linejoin:round;stroke-dasharray:150,150;">
<path d="M66200 39000
L72300 39000
" />
</g>
<g style="fill:#0000C2; fill-opacity:0.0; 
stroke:#0000C2; stroke-width:60; stroke-opacity:1; 
stroke-linecap:round; stroke-linejoin:round;">
</g>
<g style="fill:#0000C2; fill-opacity:0.0; 
stroke:#0000C2; stroke-width:60; stroke-opacity:1; 
stroke-linecap:round; stroke-linejoin:round;stroke-dasharray:150,150;">
<path d="M65000 36000
L72300 36000
" />
</g>
<g style="fill:#0000C2; fill-opacity:0.0; 
stroke:#0000C2; stroke-width:60; stroke-opacity:1; 
stroke-linecap:round; stroke-linejoin:round;">
</g>
<g style="fill:#0000C2; fill-opacity:0.0; 
stroke:#0000C2; stroke-width:60; stroke-opacity:1; 
stroke-linecap:round; stroke-linejoin:round;stroke-dasharray:150,150;">
<path d="M66200 37000
L72300 37000
" />
</g>
<g style="fill:#0000C2; fill-opacity:0.0; 
stroke:#0000C2; stroke-width:60; stroke-opacity:1; 
stroke-linecap:round; stroke-linejoin:round;">
</g>
<g style="fill:#0000C2; fill-opacity:0.0; 
stroke:#0000C2; stroke-width:60; stroke-opacity:1; 
stroke-linecap:round; stroke-linejoin:round;stroke-dasharray:150,150;">
<path d="M65000 38000
L72300 38000
" />
</g>
<g style="fill:#0000C2; fill-opacity:0.0; 
stroke:#0000C2; stroke-width:60; stroke-opacity:1; 
stroke-linecap:round; stroke-linejoin:round;">
</g>
<g style="fill:#008400; fill-opacity:0.0; 
stroke:#008400; stroke-width:60; stroke-opacity:1; 
stroke-linecap:round; stroke-linejoin:round;">
<path d="M35000 45000
L60000 45000
" />
<path d="M34000 39000
L36000 39000
" />
<path d="M49000 34000
L34000 34000
" />
<path d="M45000 29500
L45000 38000
" />
<path d="M36000 41000
L35000 41000
" />
<path d="M34000 40000
L36000 40000
" />
<path d="M34000 46000
L34000 40000
" />
<path d="M58000 40000
L58000 46000
" />
<path d="M35000 41000
L35000 45000
" />
<path d="M47000 30500
L51000 30500
" />
<path d="M45000 40000
L45000 44000
" />
<path d="M45000 40000
L41000 40000
" />
<path d="M45000 44000
L49000 44000
" />
<path d="M49000 39000
L41000 39000
" />
<path d="M45000 38000
L41000 38000
" />
<path d="M34900 30500
L34900 38000
" />
<path d="M47000 30500
L34900 30500
" />
<path d="M51000 30500
L60000 30500
" />
<path d="M34000 46000
L58000 46000
" />
<path d="M60000 36000
L62700 36000
" />
<path d="M60000 30500
L60000 36000
" />
<path d="M62700 37000
L59000 37000
" />
<path d="M62700 38000
L58000 38000
" />
<path d="M62700 40000
L58000 40000
" />
<path d="M62700 41000
L59000 41000
" />
<path d="M62700 42000
L60000 42000
" />
<path d="M53000 39000
L62700 39000
" />
<path d="M36000 38000
L34900 38000
" />
<path d="M34000 34000
L34000 39000
" />
<path d="M53000 34000
L58000 34000
" />
<path d="M47000 40500
L51000 40500
" />
<path d="M47000 30500
L47000 35500
" />
<path d="M51000 35500
L47000 35500
" />
<path d="M47000 35500
L47000 40500
" />
<path d="M60000 42000
L60000 45000
" />
<path d="M59000 29500
L59000 37000
" />
<path d="M45000 29500
L59000 29500
" />
<path d="M58000 34000
L58000 38000
" />
<path d="M59000 41000
L59000 44000
" />
<path d="M53000 44000
L59000 44000
" />
</g>
<g style="fill:#000000; fill-opacity:0.0; 
stroke:#000000; stroke-width:60; stroke-opacity:1; 
stroke-linecap:round; stroke-linejoin:round;">
<text x="62700" y="36900"
textLength="1420" font-size="660" lengthAdjust="spacingAndGlyphs"
text-anchor="end" opacity="0">RTS</text>
<path d="M61710 36870
L61550 36630
" />
<path d="M61430 36870
L61430 36370
L61620 36370
L61670 36400
L61690 36420
L61710 36470
L61710 36540
L61690 36590
L61670 36610
L61620 36630
L61430 36630
" />
<path d="M61860 36370
L62140 36370
" />
<path d="M62000 36870
L62000 36370
" />
<path d="M62280 36850
L62360 36870
L62470 36870
L62520 36850
L62550 36820
L62570 36780
L62570 36730
L62550 36680
L62520 36660
L62470 36630
L62380 36610
L62330 36590
L62310 36560
L62280 36510
L62280 36470
L62310 36420
L62330 36400
L62380 36370
L62500 36370
L62570 36400
" />
<text x="62700" y="39900"
textLength="1440" font-size="660" lengthAdjust="spacingAndGlyphs"
text-anchor="end" opacity="0">DTR</text>
<path d="M61400 39870
L61400 39370
L61520 39370
L61590 39400
L61640 39440
L61670 39490
L61690 39590
L61690 39660
L61670 39750
L61640 39800
L61590 39850
L61520 39870
L61400 39870
" />
<path d="M61830 39370
L62120 39370
" />
<path d="M61970 39870
L61970 39370
" />
<path d="M62570 39870
L62400 39630
" />
<path d="M62280 39870
L62280 39370
L62470 39370
L62520 39400
L62550 39420
L62570 39470
L62570 39540
L62550 39590
L62520 39610
L62470 39630
L62280 39630
" />
<text x="62700" y="37900"
textLength="1540" font-size="660" lengthAdjust="spacingAndGlyphs"
text-anchor="end" opacity="0">DSR</text>
<path d="M61310 37870
L61310 37370
L61430 37370
L61500 37400
L61550 37440
L61570 37490
L61590 37590
L61590 37660
L61570 37750
L61550 37800
L61500 37850
L61430 37870
L61310 37870
" />
<path d="M61780 37850
L61860 37870
L61970 37870
L62020 37850
L62050 37820
L62070 37780
L62070 37730
L62050 37680
L62020 37660
L61970 37630
L61880 37610
L61830 37590
L61810 37560
L61780 37510
L61780 37470
L61810 37420
L61830 37400
L61880 37370
L62000 37370
L62070 37400
" />
<path d="M62570 37870
L62400 37630
" />
<path d="M62280 37870
L62280 37370
L62470 37370
L62520 37400
L62550 37420
L62570 37470
L62570 37540
L62550 37590
L62520 37610
L62470 37630
L62280 37630
" />
<text x="62700" y="38900"
textLength="1420" font-size="660" lengthAdjust="spacingAndGlyphs"
text-anchor="end" opacity="0">CTS</text>
<path d="M61710 38820
L61690 38850
L61620 38870
L61570 38870
L61500 38850
L61450 38800
L61430 38750
L61400 38660
L61400 38590
L61430 38490
L61450 38440
L61500 38400
L61570 38370
L61620 38370
L61690 38400
L61710 38420
" />
<path d="M61860 38370
L62140 38370
" />
<path d="M62000 38870
L62000 38370
" />
<path d="M62280 38850
L62360 38870
L62470 38870
L62520 38850
L62550 38820
L62570 38780
L62570 38730
L62550 38680
L62520 38660
L62470 38630
L62380 38610
L62330 38590
L62310 38560
L62280 38510
L62280 38470
L62310 38420
L62330 38400
L62380 38370
L62500 38370
L62570 38400
" />
<text x="62700" y="40900"
textLength="1040" font-size="660" lengthAdjust="spacingAndGlyphs"
text-anchor="end" opacity="0">RX</text>
<path d="M62090 40870
L61930 40630
" />
<path d="M61810 40870
L61810 40370
L62000 40370
L62050 40400
L62070 40420
L62090 40470
L62090 40540
L62070 40590
L62050 40610
L62000 40630
L61810 40630
" />
<path d="M62260 40370
L62590 40870
" />
<path d="M62590 40370
L62260 40870
" />
<text x="62700" y="41900"
textLength="920" font-size="660" lengthAdjust="spacingAndGlyphs"
text-anchor="end" opacity="0">TX</text>
<path d="M61860 41370
L62140 41370
" />
<path d="M62000 41870
L62000 41370
" />
<path d="M62260 41370
L62590 41870
" />
<path d="M62590 41370
L62260 41870
" />
<text x="36000" y="40900"
textLength="920" font-size="660" lengthAdjust="spacingAndGlyphs"
text-anchor="end" opacity="0">TX</text>
<path d="M35160 40370
L35440 40370
" />
<path d="M35300 40870
L35300 40370
" />
<path d="M35560 40370
L35890 40870
" />
<path d="M35890 40370
L35560 40870
" />
<text x="41000" y="39900"
textLength="2580" font-size="660" lengthAdjust="spacingAndGlyphs"
text-anchor="start" opacity="0">RX_TTL</text>
<path d="M41430 39870
L41260 39630
" />
<path d="M41140 39870
L41140 39370
L41330 39370
L41380 39400
L41410 39420
L41430 39470
L41430 39540
L41410 39590
L41380 39610
L41330 39630
L41140 39630
" />
<path d="M41600 39370
L41930 39870
" />
<path d="M41930 39370
L41600 39870
" />
<path d="M42000 39920
L42380 39920
" />
<path d="M42430 39370
L42720 39370
" />
<path d="M42570 39870
L42570 39370
" />
<path d="M42810 39370
L43100 39370
" />
<path d="M42950 39870
L42950 39370
" />
<path d="M43500 39870
L43260 39870
L43260 39370
" />
<text x="36000" y="39900"
textLength="1440" font-size="660" lengthAdjust="spacingAndGlyphs"
text-anchor="end" opacity="0">DTR</text>
<path d="M34700 39870
L34700 39370
L34820 39370
L34890 39400
L34940 39440
L34970 39490
L34990 39590
L34990 39660
L34970 39750
L34940 39800
L34890 39850
L34820 39870
L34700 39870
" />
<path d="M35130 39370
L35420 39370
" />
<path d="M35270 39870
L35270 39370
" />
<path d="M35870 39870
L35700 39630
" />
<path d="M35580 39870
L35580 39370
L35770 39370
L35820 39400
L35850 39420
L35870 39470
L35870 39540
L35850 39590
L35820 39610
L35770 39630
L35580 39630
" />
<text x="36000" y="38900"
textLength="3080" font-size="660" lengthAdjust="spacingAndGlyphs"
text-anchor="end" opacity="0">DSR_TTL</text>
<path d="M33060 38870
L33060 38370
L33180 38370
L33250 38400
L33300 38440
L33320 38490
L33350 38590
L33350 38660
L33320 38750
L33300 38800
L33250 38850
L33180 38870
L33060 38870
" />
<path d="M33540 38850
L33610 38870
L33730 38870
L33770 38850
L33800 38820
L33820 38780
L33820 38730
L33800 38680
L33770 38660
L33730 38630
L33630 38610
L33580 38590
L33560 38560
L33540 38510
L33540 38470
L33560 38420
L33580 38400
L33630 38370
L33750 38370
L33820 38400
" />
<path d="M34320 38870
L34160 38630
" />
<path d="M34040 38870
L34040 38370
L34230 38370
L34270 38400
L34300 38420
L34320 38470
L34320 38540
L34300 38590
L34270 38610
L34230 38630
L34040 38630
" />
<path d="M34420 38920
L34800 38920
" />
<path d="M34850 38370
L35130 38370
" />
<path d="M34990 38870
L34990 38370
" />
<path d="M35230 38370
L35510 38370
" />
<path d="M35370 38870
L35370 38370
" />
<path d="M35920 38870
L35680 38870
L35680 38370
" />
<text x="41000" y="37900"
textLength="1420" font-size="660" lengthAdjust="spacingAndGlyphs"
text-anchor="start" opacity="0">RTS</text>
<path d="M41430 37870
L41260 37630
" />
<path d="M41140 37870
L41140 37370
L41330 37370
L41380 37400
L41410 37420
L41430 37470
L41430 37540
L41410 37590
L41380 37610
L41330 37630
L41140 37630
" />
<path d="M41570 37370
L41860 37370
" />
<path d="M41720 37870
L41720 37370
" />
<path d="M42000 37850
L42070 37870
L42190 37870
L42240 37850
L42260 37820
L42290 37780
L42290 37730
L42260 37680
L42240 37660
L42190 37630
L42100 37610
L42050 37590
L42030 37560
L42000 37510
L42000 37470
L42030 37420
L42050 37400
L42100 37370
L42220 37370
L42290 37400
" />
<text x="36000" y="37900"
textLength="1040" font-size="660" lengthAdjust="spacingAndGlyphs"
text-anchor="end" opacity="0">SG</text>
<path d="M35080 37850
L35160 37870
L35270 37870
L35320 37850
L35350 37820
L35370 37780
L35370 37730
L35350 37680
L35320 37660
L35270 37630
L35180 37610
L35130 37590
L35110 37560
L35080 37510
L35080 37470
L35110 37420
L35130 37400
L35180 37370
L35300 37370
L35370 37400
" />
<path d="M35850 37400
L35800 37370
L35730 37370
L35660 37400
L35610 37440
L35580 37490
L35560 37590
L35560 37660
L35580 37750
L35610 37800
L35660 37850
L35730 37870
L35770 37870
L35850 37850
L35870 37820
L35870 37660
L35770 37660
" />
<text x="62700" y="35900"
textLength="1040" font-size="660" lengthAdjust="spacingAndGlyphs"
text-anchor="end" opacity="0">SG</text>
<path d="M61780 35850
L61860 35870
L61970 35870
L62020 35850
L62050 35820
L62070 35780
L62070 35730
L62050 35680
L62020 35660
L61970 35630
L61880 35610
L61830 35590
L61810 35560
L61780 35510
L61780 35470
L61810 35420
L61830 35400
L61880 35370
L62000 35370
L62070 35400
" />
<path d="M62550 35400
L62500 35370
L62430 35370
L62360 35400
L62310 35440
L62280 35490
L62260 35590
L62260 35660
L62280 35750
L62310 35800
L62360 35850
L62430 35870
L62470 35870
L62550 35850
L62570 35820
L62570 35660
L62470 35660
" />
<text x="41000" y="38900"
textLength="2960" font-size="660" lengthAdjust="spacingAndGlyphs"
text-anchor="start" opacity="0">CTS_TTL</text>
<path d="M41430 38820
L41410 38850
L41330 38870
L41290 38870
L41220 38850
L41170 38800
L41140 38750
L41120 38660
L41120 38590
L41140 38490
L41170 38440
L41220 38400
L41290 38370
L41330 38370
L41410 38400
L41430 38420
" />
<path d="M41570 38370
L41860 38370
" />
<path d="M41720 38870
L41720 38370
" />
<path d="M42000 38850
L42070 38870
L42190 38870
L42240 38850
L42260 38820
L42290 38780
L42290 38730
L42260 38680
L42240 38660
L42190 38630
L42100 38610
L42050 38590
L42030 38560
L42000 38510
L42000 38470
L42030 38420
L42050 38400
L42100 38370
L42220 38370
L42290 38400
" />
<path d="M42380 38920
L42760 38920
" />
<path d="M42810 38370
L43100 38370
" />
<path d="M42950 38870
L42950 38370
" />
<path d="M43190 38370
L43480 38370
" />
<path d="M43330 38870
L43330 38370
" />
<path d="M43880 38870
L43640 38870
L43640 38370
" />
<text x="49000" y="43900"
textLength="2580" font-size="660" lengthAdjust="spacingAndGlyphs"
text-anchor="end" opacity="0">RX_TTL</text>
<path d="M46850 43870
L46680 43630
" />
<path d="M46560 43870
L46560 43370
L46750 43370
L46800 43400
L46820 43420
L46850 43470
L46850 43540
L46820 43590
L46800 43610
L46750 43630
L46560 43630
" />
<path d="M47010 43370
L47350 43870
" />
<path d="M47350 43370
L47010 43870
" />
<path d="M47420 43920
L47800 43920
" />
<path d="M47850 43370
L48130 43370
" />
<path d="M47990 43870
L47990 43370
" />
<path d="M48230 43370
L48510 43370
" />
<path d="M48370 43870
L48370 43370
" />
<path d="M48920 43870
L48680 43870
L48680 43370
" />
<text x="49000" y="38900"
textLength="2960" font-size="660" lengthAdjust="spacingAndGlyphs"
text-anchor="end" opacity="0">CTS_TTL</text>
<path d="M46470 38820
L46440 38850
L46370 38870
L46320 38870
L46250 38850
L46200 38800
L46180 38750
L46160 38660
L46160 38590
L46180 38490
L46200 38440
L46250 38400
L46320 38370
L46370 38370
L46440 38400
L46470 38420
" />
<path d="M46610 38370
L46890 38370
" />
<path d="M46750 38870
L46750 38370
" />
<path d="M47040 38850
L47110 38870
L47230 38870
L47270 38850
L47300 38820
L47320 38780
L47320 38730
L47300 38680
L47270 38660
L47230 38630
L47130 38610
L47080 38590
L47060 38560
L47040 38510
L47040 38470
L47060 38420
L47080 38400
L47130 38370
L47250 38370
L47320 38400
" />
<path d="M47420 38920
L47800 38920
" />
<path d="M47850 38370
L48130 38370
" />
<path d="M47990 38870
L47990 38370
" />
<path d="M48230 38370
L48510 38370
" />
<path d="M48370 38870
L48370 38370
" />
<path d="M48920 38870
L48680 38870
L48680 38370
" />
<text x="49000" y="33900"
textLength="3080" font-size="660" lengthAdjust="spacingAndGlyphs"
text-anchor="end" opacity="0">DSR_TTL</text>
<path d="M46060 33870
L46060 33370
L46180 33370
L46250 33400
L46300 33440
L46320 33490
L46350 33590
L46350 33660
L46320 33750
L46300 33800
L46250 33850
L46180 33870
L46060 33870
" />
<path d="M46540 33850
L46610 33870
L46730 33870
L46770 33850
L46800 33820
L46820 33780
L46820 33730
L46800 33680
L46770 33660
L46730 33630
L46630 33610
L46580 33590
L46560 33560
L46540 33510
L46540 33470
L46560 33420
L46580 33400
L46630 33370
L46750 33370
L46820 33400
" />
<path d="M47320 33870
L47160 33630
" />
<path d="M47040 33870
L47040 33370
L47230 33370
L47270 33400
L47300 33420
L47320 33470
L47320 33540
L47300 33590
L47270 33610
L47230 33630
L47040 33630
" />
<path d="M47420 33920
L47800 33920
" />
<path d="M47850 33370
L48130 33370
" />
<path d="M47990 33870
L47990 33370
" />
<path d="M48230 33370
L48510 33370
" />
<path d="M48370 33870
L48370 33370
" />
<path d="M48920 33870
L48680 33870
L48680 33370
" />
<text x="53000" y="33900"
textLength="1540" font-size="660" lengthAdjust="spacingAndGlyphs"
text-anchor="start" opacity="0">DSR</text>
<path d="M53140 33870
L53140 33370
L53260 33370
L53330 33400
L53380 33440
L53410 33490
L53430 33590
L53430 33660
L53410 33750
L53380 33800
L53330 33850
L53260 33870
L53140 33870
" />
<path d="M53620 33850
L53690 33870
L53810 33870
L53860 33850
L53880 33820
L53910 33780
L53910 33730
L53880 33680
L53860 33660
L53810 33630
L53720 33610
L53670 33590
L53640 33560
L53620 33510
L53620 33470
L53640 33420
L53670 33400
L53720 33370
L53830 33370
L53910 33400
" />
<path d="M54410 33870
L54240 33630
" />
<path d="M54120 33870
L54120 33370
L54310 33370
L54360 33400
L54380 33420
L54410 33470
L54410 33540
L54380 33590
L54360 33610
L54310 33630
L54120 33630
" />
<text x="53000" y="38900"
textLength="1420" font-size="660" lengthAdjust="spacingAndGlyphs"
text-anchor="start" opacity="0">CTS</text>
<path d="M53430 38820
L53410 38850
L53330 38870
L53290 38870
L53220 38850
L53170 38800
L53140 38750
L53120 38660
L53120 38590
L53140 38490
L53170 38440
L53220 38400
L53290 38370
L53330 38370
L53410 38400
L53430 38420
" />
<path d="M53570 38370
L53860 38370
" />
<path d="M53720 38870
L53720 38370
" />
<path d="M54000 38850
L54070 38870
L54190 38870
L54240 38850
L54260 38820
L54290 38780
L54290 38730
L54260 38680
L54240 38660
L54190 38630
L54100 38610
L54050 38590
L54030 38560
L54000 38510
L54000 38470
L54030 38420
L54050 38400
L54100 38370
L54220 38370
L54290 38400
" />
<text x="53000" y="43900"
textLength="1040" font-size="660" lengthAdjust="spacingAndGlyphs"
text-anchor="start" opacity="0">RX</text>
<path d="M53430 43870
L53260 43630
" />
<path d="M53140 43870
L53140 43370
L53330 43370
L53380 43400
L53410 43420
L53430 43470
L53430 43540
L53410 43590
L53380 43610
L53330 43630
L53140 43630
" />
<path d="M53600 43370
L53930 43870
" />
<path d="M53930 43370
L53600 43870
" />
</g>
<g style="fill:#0000C2; fill-opacity:0.0; 
stroke:#0000C2; stroke-width:60; stroke-opacity:1; 
stroke-linecap:round; stroke-linejoin:round;">
<text x="72700" y="42300"
textLength="1890" font-size="660" lengthAdjust="spacingAndGlyphs"
text-anchor="start" opacity="0">3 RX</text>
<path d="M72800 41770
L73110 41770
L72940 41960
L73010 41960
L73060 41990
L73080 42010
L73110 42060
L73110 42180
L73080 42220
L73060 42250
L73010 42270
L72870 42270
L72820 42250
L72800 42220
" />
<path d="M73990 42270
L73820 42030
" />
<path d="M73700 42270
L73700 41770
L73890 41770
L73940 41800
L73960 41820
L73990 41870
L73990 41940
L73960 41990
L73940 42010
L73890 42030
L73700 42030
" />
<path d="M74150 41770
L74490 42270
" />
<path d="M74490 41770
L74150 42270
" />
<text x="72700" y="41300"
textLength="1770" font-size="660" lengthAdjust="spacingAndGlyphs"
text-anchor="start" opacity="0">2 TX</text>
<path d="M72820 40820
L72840 40800
L72890 40770
L73010 40770
L73060 40800
L73080 40820
L73110 40870
L73110 40910
L73080 40990
L72800 41270
L73110 41270
" />
<path d="M73630 40770
L73920 40770
" />
<path d="M73770 41270
L73770 40770
" />
<path d="M74030 40770
L74370 41270
" />
<path d="M74370 40770
L74030 41270
" />
<text x="72600" y="40300"
textLength="2420" font-size="660" lengthAdjust="spacingAndGlyphs"
text-anchor="start" opacity="0">8 DCD</text>
<path d="M72820 39990
L72770 39960
L72740 39940
L72720 39890
L72720 39870
L72740 39820
L72770 39800
L72820 39770
L72910 39770
L72960 39800
L72980 39820
L73010 39870
L73010 39890
L72980 39940
L72960 39960
L72910 39990
L72820 39990
L72770 40010
L72740 40030
L72720 40080
L72720 40180
L72740 40220
L72770 40250
L72820 40270
L72910 40270
L72960 40250
L72980 40220
L73010 40180
L73010 40080
L72980 40030
L72960 40010
L72910 39990
" />
<path d="M73600 40270
L73600 39770
L73720 39770
L73790 39800
L73840 39840
L73860 39890
L73890 39990
L73890 40060
L73860 40150
L73840 40200
L73790 40250
L73720 40270
L73600 40270
" />
<path d="M74390 40220
L74360 40250
L74290 40270
L74240 40270
L74170 40250
L74130 40200
L74100 40150
L74080 40060
L74080 39990
L74100 39890
L74130 39840
L74170 39800
L74240 39770
L74290 39770
L74360 39800
L74390 39820
" />
<path d="M74600 40270
L74600 39770
L74720 39770
L74790 39800
L74840 39840
L74860 39890
L74890 39990
L74890 40060
L74860 40150
L74840 40200
L74790 40250
L74720 40270
L74600 40270
" />
<text x="72700" y="39300"
textLength="2270" font-size="660" lengthAdjust="spacingAndGlyphs"
text-anchor="start" opacity="0">4 RTS</text>
<path d="M73060 38940
L73060 39270
" />
<path d="M72940 38750
L72820 39100
L73130 39100
" />
<path d="M73990 39270
L73820 39030
" />
<path d="M73700 39270
L73700 38770
L73890 38770
L73940 38800
L73960 38820
L73990 38870
L73990 38940
L73960 38990
L73940 39010
L73890 39030
L73700 39030
" />
<path d="M74130 38770
L74420 38770
" />
<path d="M74270 39270
L74270 38770
" />
<path d="M74560 39250
L74630 39270
L74750 39270
L74800 39250
L74820 39220
L74840 39180
L74840 39130
L74820 39080
L74800 39060
L74750 39030
L74650 39010
L74610 38990
L74580 38960
L74560 38910
L74560 38870
L74580 38820
L74610 38800
L74650 38770
L74770 38770
L74840 38800
" />
<text x="72700" y="38300"
textLength="2300" font-size="660" lengthAdjust="spacingAndGlyphs"
text-anchor="start" opacity="0">9 DTR</text>
<path d="M72870 38270
L72960 38270
L73010 38250
L73030 38220
L73080 38150
L73110 38060
L73110 37870
L73080 37820
L73060 37800
L73010 37770
L72920 37770
L72870 37800
L72840 37820
L72820 37870
L72820 37990
L72840 38030
L72870 38060
L72920 38080
L73010 38080
L73060 38060
L73080 38030
L73110 37990
" />
<path d="M73700 38270
L73700 37770
L73820 37770
L73890 37800
L73940 37840
L73960 37890
L73990 37990
L73990 38060
L73960 38150
L73940 38200
L73890 38250
L73820 38270
L73700 38270
" />
<path d="M74130 37770
L74420 37770
" />
<path d="M74270 38270
L74270 37770
" />
<path d="M74870 38270
L74700 38030
" />
<path d="M74580 38270
L74580 37770
L74770 37770
L74820 37800
L74840 37820
L74870 37870
L74870 37940
L74840 37990
L74820 38010
L74770 38030
L74580 38030
" />
<text x="72700" y="37300"
textLength="2270" font-size="660" lengthAdjust="spacingAndGlyphs"
text-anchor="start" opacity="0">5 CTS</text>
<path d="M73080 36770
L72840 36770
L72820 37010
L72840 36990
L72890 36960
L73010 36960
L73060 36990
L73080 37010
L73110 37060
L73110 37180
L73080 37220
L73060 37250
L73010 37270
L72890 37270
L72840 37250
L72820 37220
" />
<path d="M73990 37220
L73960 37250
L73890 37270
L73840 37270
L73770 37250
L73730 37200
L73700 37150
L73680 37060
L73680 36990
L73700 36890
L73730 36840
L73770 36800
L73840 36770
L73890 36770
L73960 36800
L73990 36820
" />
<path d="M74130 36770
L74420 36770
" />
<path d="M74270 37270
L74270 36770
" />
<path d="M74560 37250
L74630 37270
L74750 37270
L74800 37250
L74820 37220
L74840 37180
L74840 37130
L74820 37080
L74800 37060
L74750 37030
L74650 37010
L74610 36990
L74580 36960
L74560 36910
L74560 36870
L74580 36820
L74610 36800
L74650 36770
L74770 36770
L74840 36800
" />
<text x="72700" y="36300"
textLength="1890" font-size="660" lengthAdjust="spacingAndGlyphs"
text-anchor="start" opacity="0">7 SG</text>
<path d="M72800 35770
L73130 35770
L72920 36270
" />
<path d="M73680 36250
L73750 36270
L73870 36270
L73920 36250
L73940 36220
L73960 36180
L73960 36130
L73940 36080
L73920 36060
L73870 36030
L73770 36010
L73730 35990
L73700 35960
L73680 35910
L73680 35870
L73700 35820
L73730 35800
L73770 35770
L73890 35770
L73960 35800
" />
<path d="M74440 35800
L74390 35770
L74320 35770
L74250 35800
L74200 35840
L74180 35890
L74150 35990
L74150 36060
L74180 36150
L74200 36200
L74250 36250
L74320 36270
L74370 36270
L74440 36250
L74460 36220
L74460 36060
L74370 36060
" />
<text x="71700" y="35100"
textLength="3580" font-size="660" lengthAdjust="spacingAndGlyphs"
text-anchor="start" opacity="0">DE9 Male</text>
<path d="M71840 35070
L71840 34570
L71960 34570
L72030 34600
L72080 34640
L72110 34690
L72130 34790
L72130 34860
L72110 34950
L72080 35000
L72030 35050
L71960 35070
L71840 35070
" />
<path d="M72340 34810
L72510 34810
" />
<path d="M72580 35070
L72340 35070
L72340 34570
L72580 34570
" />
<path d="M72820 35070
L72920 35070
L72960 35050
L72990 35020
L73030 34950
L73060 34860
L73060 34670
L73030 34620
L73010 34600
L72960 34570
L72870 34570
L72820 34600
L72800 34620
L72770 34670
L72770 34790
L72800 34830
L72820 34860
L72870 34880
L72960 34880
L73010 34860
L73030 34830
L73060 34790
" />
<path d="M73650 35070
L73650 34570
L73820 34930
L73990 34570
L73990 35070
" />
<path d="M74440 35070
L74440 34810
L74420 34760
L74370 34740
L74270 34740
L74230 34760
" />
<path d="M74440 35050
L74390 35070
L74270 35070
L74230 35050
L74200 35000
L74200 34950
L74230 34900
L74270 34880
L74390 34880
L74440 34860
" />
<path d="M74750 35070
L74700 35050
L74680 35000
L74680 34570
" />
<path d="M75130 35050
L75080 35070
L74990 35070
L74940 35050
L74920 35000
L74920 34810
L74940 34760
L74990 34740
L75080 34740
L75130 34760
L75150 34810
L75150 34860
L74920 34900
" />
<text x="72300" y="31200"
textLength="2920" font-size="1330" lengthAdjust="spacingAndGlyphs"
text-anchor="start" opacity="0">Z88</text>
<path d="M72470 30150
L73130 30150
L72470 31150
L73130 31150
" />
<path d="M73660 30580
L73560 30530
L73520 30480
L73470 30390
L73470 30340
L73520 30240
L73560 30200
L73660 30150
L73850 30150
L73940 30200
L73990 30240
L74040 30340
L74040 30390
L73990 30480
L73940 30530
L73850 30580
L73660 30580
L73560 30620
L73520 30670
L73470 30770
L73470 30960
L73520 31050
L73560 31100
L73660 31150
L73850 31150
L73940 31100
L73990 31050
L74040 30960
L74040 30770
L73990 30670
L73940 30620
L73850 30580
" />
<path d="M74610 30580
L74520 30530
L74470 30480
L74420 30390
L74420 30340
L74470 30240
L74520 30200
L74610 30150
L74800 30150
L74900 30200
L74940 30240
L74990 30340
L74990 30390
L74940 30480
L74900 30530
L74800 30580
L74610 30580
L74520 30620
L74470 30670
L74420 30770
L74420 30960
L74470 31050
L74520 31100
L74610 31150
L74800 31150
L74900 31100
L74940 31050
L74990 30960
L74990 30770
L74940 30670
L74900 30620
L74800 30580
" />
<text x="67800" y="44160"
textLength="10870" font-size="660" lengthAdjust="spacingAndGlyphs"
text-anchor="start" opacity="0">DE9M-DE9F extension cable</text>
<path d="M67940 44130
L67940 43630
L68060 43630
L68130 43660
L68180 43700
L68210 43750
L68230 43850
L68230 43920
L68210 44010
L68180 44060
L68130 44110
L68060 44130
L67940 44130
" />
<path d="M68440 43870
L68610 43870
" />
<path d="M68680 44130
L68440 44130
L68440 43630
L68680 43630
" />
<path d="M68920 44130
L69020 44130
L69060 44110
L69090 44080
L69130 44010
L69160 43920
L69160 43730
L69130 43680
L69110 43660
L69060 43630
L68970 43630
L68920 43660
L68900 43680
L68870 43730
L68870 43850
L68900 43890
L68920 43920
L68970 43940
L69060 43940
L69110 43920
L69130 43890
L69160 43850
" />
<path d="M69370 44130
L69370 43630
L69540 43990
L69710 43630
L69710 44130
" />
<path d="M69940 43940
L70330 43940
" />
<path d="M70560 44130
L70560 43630
L70680 43630
L70750 43660
L70800 43700
L70830 43750
L70850 43850
L70850 43920
L70830 44010
L70800 44060
L70750 44110
L70680 44130
L70560 44130
" />
<path d="M71060 43870
L71230 43870
" />
<path d="M71300 44130
L71060 44130
L71060 43630
L71300 43630
" />
<path d="M71540 44130
L71630 44130
L71680 44110
L71710 44080
L71750 44010
L71780 43920
L71780 43730
L71750 43680
L71730 43660
L71680 43630
L71590 43630
L71540 43660
L71520 43680
L71490 43730
L71490 43850
L71520 43890
L71540 43920
L71590 43940
L71680 43940
L71730 43920
L71750 43890
L71780 43850
" />
<path d="M72160 43870
L71990 43870
" />
<path d="M71990 44130
L71990 43630
L72230 43630
" />
<path d="M72990 44110
L72940 44130
L72850 44130
L72800 44110
L72780 44060
L72780 43870
L72800 43820
L72850 43800
L72940 43800
L72990 43820
L73020 43870
L73020 43920
L72780 43960
" />
<path d="M73180 44130
L73440 43800
" />
<path d="M73180 43800
L73440 44130
" />
<path d="M73560 43800
L73750 43800
" />
<path d="M73630 43630
L73630 44060
L73660 44110
L73710 44130
L73750 44130
" />
<path d="M74110 44110
L74060 44130
L73970 44130
L73920 44110
L73900 44060
L73900 43870
L73920 43820
L73970 43800
L74060 43800
L74110 43820
L74130 43870
L74130 43920
L73900 43960
" />
<path d="M74350 43800
L74350 44130
" />
<path d="M74350 43850
L74370 43820
L74420 43800
L74490 43800
L74540 43820
L74560 43870
L74560 44130
" />
<path d="M74780 44110
L74830 44130
L74920 44130
L74970 44110
L74990 44060
L74990 44040
L74970 43990
L74920 43960
L74850 43960
L74800 43940
L74780 43890
L74780 43870
L74800 43820
L74850 43800
L74920 43800
L74970 43820
" />
<path d="M75210 44130
L75210 43800
" />
<path d="M75210 43630
L75180 43660
L75210 43680
L75230 43660
L75210 43630
L75210 43680
" />
<path d="M75520 44130
L75470 44110
L75440 44080
L75420 44040
L75420 43890
L75440 43850
L75470 43820
L75520 43800
L75590 43800
L75630 43820
L75660 43850
L75680 43890
L75680 44040
L75660 44080
L75630 44110
L75590 44130
L75520 44130
" />
<path d="M75900 43800
L75900 44130
" />
<path d="M75900 43850
L75920 43820
L75970 43800
L76040 43800
L76090 43820
L76110 43870
L76110 44130
" />
<path d="M76940 44110
L76900 44130
L76800 44130
L76750 44110
L76730 44080
L76710 44040
L76710 43890
L76730 43850
L76750 43820
L76800 43800
L76900 43800
L76940 43820
" />
<path d="M77370 44130
L77370 43870
L77350 43820
L77300 43800
L77210 43800
L77160 43820
" />
<path d="M77370 44110
L77330 44130
L77210 44130
L77160 44110
L77130 44060
L77130 44010
L77160 43960
L77210 43940
L77330 43940
L77370 43920
" />
<path d="M77610 44130
L77610 43630
" />
<path d="M77610 43820
L77660 43800
L77750 43800
L77800 43820
L77830 43850
L77850 43890
L77850 44040
L77830 44080
L77800 44110
L77750 44130
L77660 44130
L77610 44110
" />
<path d="M78130 44130
L78090 44110
L78060 44060
L78060 43630
" />
<path d="M78520 44110
L78470 44130
L78370 44130
L78330 44110
L78300 44060
L78300 43870
L78330 43820
L78370 43800
L78470 43800
L78520 43820
L78540 43870
L78540 43920
L78300 43960
" />
<text x="67800" y="44970"
textLength="7850" font-size="660" lengthAdjust="spacingAndGlyphs"
text-anchor="start" opacity="0">Cut off female plug.</text>
<path d="M68230 44890
L68210 44920
L68130 44940
L68090 44940
L68020 44920
L67970 44870
L67940 44820
L67920 44730
L67920 44660
L67940 44560
L67970 44510
L68020 44470
L68090 44440
L68130 44440
L68210 44470
L68230 44490
" />
<path d="M68660 44610
L68660 44940
" />
<path d="M68440 44610
L68440 44870
L68470 44920
L68520 44940
L68590 44940
L68630 44920
L68660 44890
" />
<path d="M68830 44610
L69020 44610
" />
<path d="M68900 44440
L68900 44870
L68920 44920
L68970 44940
L69020 44940
" />
<path d="M69630 44940
L69590 44920
L69560 44890
L69540 44850
L69540 44700
L69560 44660
L69590 44630
L69630 44610
L69710 44610
L69750 44630
L69780 44660
L69800 44700
L69800 44850
L69780 44890
L69750 44920
L69710 44940
L69630 44940
" />
<path d="M69940 44610
L70130 44610
" />
<path d="M70020 44940
L70020 44510
L70040 44470
L70090 44440
L70130 44440
" />
<path d="M70230 44610
L70420 44610
" />
<path d="M70300 44940
L70300 44510
L70330 44470
L70370 44440
L70420 44440
" />
<path d="M70900 44610
L71090 44610
" />
<path d="M70970 44940
L70970 44510
L70990 44470
L71040 44440
L71090 44440
" />
<path d="M71440 44920
L71400 44940
L71300 44940
L71250 44920
L71230 44870
L71230 44680
L71250 44630
L71300 44610
L71400 44610
L71440 44630
L71470 44680
L71470 44730
L71230 44770
" />
<path d="M71680 44940
L71680 44610
" />
<path d="M71680 44660
L71710 44630
L71750 44610
L71830 44610
L71870 44630
L71900 44680
L71900 44940
" />
<path d="M71900 44680
L71920 44630
L71970 44610
L72040 44610
L72090 44630
L72110 44680
L72110 44940
" />
<path d="M72560 44940
L72560 44680
L72540 44630
L72490 44610
L72400 44610
L72350 44630
" />
<path d="M72560 44920
L72520 44940
L72400 44940
L72350 44920
L72330 44870
L72330 44820
L72350 44770
L72400 44750
L72520 44750
L72560 44730
" />
<path d="M72870 44940
L72830 44920
L72800 44870
L72800 44440
" />
<path d="M73250 44920
L73210 44940
L73110 44940
L73060 44920
L73040 44870
L73040 44680
L73060 44630
L73110 44610
L73210 44610
L73250 44630
L73280 44680
L73280 44730
L73040 44770
" />
<path d="M73870 44610
L73870 45110
" />
<path d="M73870 44630
L73920 44610
L74020 44610
L74060 44630
L74090 44660
L74110 44700
L74110 44850
L74090 44890
L74060 44920
L74020 44940
L73920 44940
L73870 44920
" />
<path d="M74400 44940
L74350 44920
L74330 44870
L74330 44440
" />
<path d="M74800 44610
L74800 44940
" />
<path d="M74590 44610
L74590 44870
L74610 44920
L74660 44940
L74730 44940
L74780 44920
L74800 44890
" />
<path d="M75250 44610
L75250 45010
L75230 45060
L75210 45080
L75160 45110
L75090 45110
L75040 45080
" />
<path d="M75250 44920
L75210 44940
L75110 44940
L75060 44920
L75040 44890
L75020 44850
L75020 44700
L75040 44660
L75060 44630
L75110 44610
L75210 44610
L75250 44630
" />
<path d="M75490 44890
L75520 44920
L75490 44940
L75470 44920
L75490 44890
L75490 44940
" />
<text x="67800" y="45780"
textLength="7320" font-size="660" lengthAdjust="spacingAndGlyphs"
text-anchor="start" opacity="0">Solder wires to J1.</text>
<path d="M67920 45730
L67990 45750
L68110 45750
L68160 45730
L68180 45700
L68210 45660
L68210 45610
L68180 45560
L68160 45540
L68110 45510
L68020 45490
L67970 45470
L67940 45440
L67920 45390
L67920 45350
L67940 45300
L67970 45280
L68020 45250
L68130 45250
L68210 45280
" />
<path d="M68490 45750
L68440 45730
L68420 45700
L68400 45660
L68400 45510
L68420 45470
L68440 45440
L68490 45420
L68560 45420
L68610 45440
L68630 45470
L68660 45510
L68660 45660
L68630 45700
L68610 45730
L68560 45750
L68490 45750
" />
<path d="M68940 45750
L68900 45730
L68870 45680
L68870 45250
" />
<path d="M69350 45750
L69350 45250
" />
<path d="M69350 45730
L69300 45750
L69210 45750
L69160 45730
L69130 45700
L69110 45660
L69110 45510
L69130 45470
L69160 45440
L69210 45420
L69300 45420
L69350 45440
" />
<path d="M69780 45730
L69730 45750
L69630 45750
L69590 45730
L69560 45680
L69560 45490
L69590 45440
L69630 45420
L69730 45420
L69780 45440
L69800 45490
L69800 45540
L69560 45580
" />
<path d="M70020 45750
L70020 45420
" />
<path d="M70020 45510
L70040 45470
L70060 45440
L70110 45420
L70160 45420
" />
<path d="M70660 45420
L70750 45750
L70850 45510
L70940 45750
L71040 45420
" />
<path d="M71230 45750
L71230 45420
" />
<path d="M71230 45250
L71210 45280
L71230 45300
L71250 45280
L71230 45250
L71230 45300
" />
<path d="M71470 45750
L71470 45420
" />
<path d="M71470 45510
L71490 45470
L71520 45440
L71560 45420
L71610 45420
" />
<path d="M71970 45730
L71920 45750
L71830 45750
L71780 45730
L71750 45680
L71750 45490
L71780 45440
L71830 45420
L71920 45420
L71970 45440
L71990 45490
L71990 45540
L71750 45580
" />
<path d="M72180 45730
L72230 45750
L72330 45750
L72370 45730
L72400 45680
L72400 45660
L72370 45610
L72330 45580
L72250 45580
L72210 45560
L72180 45510
L72180 45490
L72210 45440
L72250 45420
L72330 45420
L72370 45440
" />
<path d="M72920 45420
L73110 45420
" />
<path d="M72990 45250
L72990 45680
L73020 45730
L73060 45750
L73110 45750
" />
<path d="M73350 45750
L73300 45730
L73280 45700
L73250 45660
L73250 45510
L73280 45470
L73300 45440
L73350 45420
L73420 45420
L73470 45440
L73490 45470
L73520 45510
L73520 45660
L73490 45700
L73470 45730
L73420 45750
L73350 45750
" />
<path d="M74250 45250
L74250 45610
L74230 45680
L74180 45730
L74110 45750
L74060 45750
" />
<path d="M74750 45750
L74470 45750
" />
<path d="M74610 45750
L74610 45250
L74560 45320
L74520 45370
L74470 45390
" />
<path d="M74970 45700
L74990 45730
L74970 45750
L74940 45730
L74970 45700
L74970 45750
" />
<text x="67800" y="46590"
textLength="12940" font-size="660" lengthAdjust="spacingAndGlyphs"
text-anchor="start" opacity="0">Match numbers on pcb silkscreen</text>
<path d="M67940 46560
L67940 46060
L68110 46420
L68280 46060
L68280 46560
" />
<path d="M68730 46560
L68730 46300
L68710 46250
L68660 46230
L68560 46230
L68520 46250
" />
<path d="M68730 46540
L68680 46560
L68560 46560
L68520 46540
L68490 46490
L68490 46440
L68520 46390
L68560 46370
L68680 46370
L68730 46350
" />
<path d="M68900 46230
L69090 46230
" />
<path d="M68970 46060
L68970 46490
L68990 46540
L69040 46560
L69090 46560
" />
<path d="M69470 46540
L69420 46560
L69330 46560
L69280 46540
L69250 46510
L69230 46470
L69230 46320
L69250 46280
L69280 46250
L69330 46230
L69420 46230
L69470 46250
" />
<path d="M69680 46560
L69680 46060
" />
<path d="M69900 46560
L69900 46300
L69870 46250
L69830 46230
L69750 46230
L69710 46250
L69680 46280
" />
<path d="M70520 46230
L70520 46560
" />
<path d="M70520 46280
L70540 46250
L70590 46230
L70660 46230
L70710 46250
L70730 46300
L70730 46560
" />
<path d="M71180 46230
L71180 46560
" />
<path d="M70970 46230
L70970 46490
L70990 46540
L71040 46560
L71110 46560
L71160 46540
L71180 46510
" />
<path d="M71420 46560
L71420 46230
" />
<path d="M71420 46280
L71440 46250
L71490 46230
L71560 46230
L71610 46250
L71630 46300
L71630 46560
" />
<path d="M71630 46300
L71660 46250
L71710 46230
L71780 46230
L71830 46250
L71850 46300
L71850 46560
" />
<path d="M72090 46560
L72090 46060
" />
<path d="M72090 46250
L72130 46230
L72230 46230
L72280 46250
L72300 46280
L72330 46320
L72330 46470
L72300 46510
L72280 46540
L72230 46560
L72130 46560
L72090 46540
" />
<path d="M72730 46540
L72680 46560
L72590 46560
L72540 46540
L72520 46490
L72520 46300
L72540 46250
L72590 46230
L72680 46230
L72730 46250
L72750 46300
L72750 46350
L72520 46390
" />
<path d="M72970 46560
L72970 46230
" />
<path d="M72970 46320
L72990 46280
L73020 46250
L73060 46230
L73110 46230
" />
<path d="M73250 46540
L73300 46560
L73400 46560
L73440 46540
L73470 46490
L73470 46470
L73440 46420
L73400 46390
L73330 46390
L73280 46370
L73250 46320
L73250 46300
L73280 46250
L73330 46230
L73400 46230
L73440 46250
" />
<path d="M74130 46560
L74090 46540
L74060 46510
L74040 46470
L74040 46320
L74060 46280
L74090 46250
L74130 46230
L74210 46230
L74250 46250
L74280 46280
L74300 46320
L74300 46470
L74280 46510
L74250 46540
L74210 46560
L74130 46560
" />
<path d="M74520 46230
L74520 46560
" />
<path d="M74520 46280
L74540 46250
L74590 46230
L74660 46230
L74710 46250
L74730 46300
L74730 46560
" />
<path d="M75350 46230
L75350 46730
" />
<path d="M75350 46250
L75400 46230
L75490 46230
L75540 46250
L75560 46280
L75590 46320
L75590 46470
L75560 46510
L75540 46540
L75490 46560
L75400 46560
L75350 46540
" />
<path d="M76020 46540
L75970 46560
L75870 46560
L75830 46540
L75800 46510
L75780 46470
L75780 46320
L75800 46280
L75830 46250
L75870 46230
L75970 46230
L76020 46250
" />
<path d="M76230 46560
L76230 46060
" />
<path d="M76230 46250
L76280 46230
L76370 46230
L76420 46250
L76440 46280
L76470 46320
L76470 46470
L76440 46510
L76420 46540
L76370 46560
L76280 46560
L76230 46540
" />
<path d="M77040 46540
L77090 46560
L77180 46560
L77230 46540
L77250 46490
L77250 46470
L77230 46420
L77180 46390
L77110 46390
L77060 46370
L77040 46320
L77040 46300
L77060 46250
L77110 46230
L77180 46230
L77230 46250
" />
<path d="M77470 46560
L77470 46230
" />
<path d="M77470 46060
L77440 46090
L77470 46110
L77490 46090
L77470 46060
L77470 46110
" />
<path d="M77780 46560
L77730 46540
L77710 46490
L77710 46060
" />
<path d="M77970 46560
L77970 46060
" />
<path d="M78020 46370
L78160 46560
" />
<path d="M78160 46230
L77970 46420
" />
<path d="M78350 46540
L78400 46560
L78490 46560
L78540 46540
L78560 46490
L78560 46470
L78540 46420
L78490 46390
L78420 46390
L78370 46370
L78350 46320
L78350 46300
L78370 46250
L78420 46230
L78490 46230
L78540 46250
" />
<path d="M78990 46540
L78940 46560
L78850 46560
L78800 46540
L78780 46510
L78750 46470
L78750 46320
L78780 46280
L78800 46250
L78850 46230
L78940 46230
L78990 46250
" />
<path d="M79210 46560
L79210 46230
" />
<path d="M79210 46320
L79230 46280
L79250 46250
L79300 46230
L79350 46230
" />
<path d="M79710 46540
L79660 46560
L79560 46560
L79520 46540
L79490 46490
L79490 46300
L79520 46250
L79560 46230
L79660 46230
L79710 46250
L79730 46300
L79730 46350
L79490 46390
" />
<path d="M80130 46540
L80090 46560
L79990 46560
L79940 46540
L79920 46490
L79920 46300
L79940 46250
L79990 46230
L80090 46230
L80130 46250
L80160 46300
L80160 46350
L79920 46390
" />
<path d="M80370 46230
L80370 46560
" />
<path d="M80370 46280
L80400 46250
L80440 46230
L80520 46230
L80560 46250
L80590 46300
L80590 46560
" />
<text x="67800" y="47400"
textLength="13660" font-size="660" lengthAdjust="spacingAndGlyphs"
text-anchor="start" opacity="0">to pin numbers on male connector.</text>
<path d="M67870 47040
L68060 47040
" />
<path d="M67940 46870
L67940 47300
L67970 47350
L68020 47370
L68060 47370
" />
<path d="M68300 47370
L68250 47350
L68230 47320
L68210 47280
L68210 47130
L68230 47090
L68250 47060
L68300 47040
L68370 47040
L68420 47060
L68440 47090
L68470 47130
L68470 47280
L68440 47320
L68420 47350
L68370 47370
L68300 47370
" />
<path d="M69060 47040
L69060 47540
" />
<path d="M69060 47060
L69110 47040
L69210 47040
L69250 47060
L69280 47090
L69300 47130
L69300 47280
L69280 47320
L69250 47350
L69210 47370
L69110 47370
L69060 47350
" />
<path d="M69520 47370
L69520 47040
" />
<path d="M69520 46870
L69490 46900
L69520 46920
L69540 46900
L69520 46870
L69520 46920
" />
<path d="M69750 47040
L69750 47370
" />
<path d="M69750 47090
L69780 47060
L69830 47040
L69900 47040
L69940 47060
L69970 47110
L69970 47370
" />
<path d="M70590 47040
L70590 47370
" />
<path d="M70590 47090
L70610 47060
L70660 47040
L70730 47040
L70780 47060
L70800 47110
L70800 47370
" />
<path d="M71250 47040
L71250 47370
" />
<path d="M71040 47040
L71040 47300
L71060 47350
L71110 47370
L71180 47370
L71230 47350
L71250 47320
" />
<path d="M71490 47370
L71490 47040
" />
<path d="M71490 47090
L71520 47060
L71560 47040
L71630 47040
L71680 47060
L71710 47110
L71710 47370
" />
<path d="M71710 47110
L71730 47060
L71780 47040
L71850 47040
L71900 47060
L71920 47110
L71920 47370
" />
<path d="M72160 47370
L72160 46870
" />
<path d="M72160 47060
L72210 47040
L72300 47040
L72350 47060
L72370 47090
L72400 47130
L72400 47280
L72370 47320
L72350 47350
L72300 47370
L72210 47370
L72160 47350
" />
<path d="M72800 47350
L72750 47370
L72660 47370
L72610 47350
L72590 47300
L72590 47110
L72610 47060
L72660 47040
L72750 47040
L72800 47060
L72830 47110
L72830 47160
L72590 47200
" />
<path d="M73040 47370
L73040 47040
" />
<path d="M73040 47130
L73060 47090
L73090 47060
L73130 47040
L73180 47040
" />
<path d="M73330 47350
L73370 47370
L73470 47370
L73520 47350
L73540 47300
L73540 47280
L73520 47230
L73470 47200
L73400 47200
L73350 47180
L73330 47130
L73330 47110
L73350 47060
L73400 47040
L73470 47040
L73520 47060
" />
<path d="M74210 47370
L74160 47350
L74130 47320
L74110 47280
L74110 47130
L74130 47090
L74160 47060
L74210 47040
L74280 47040
L74330 47060
L74350 47090
L74370 47130
L74370 47280
L74350 47320
L74330 47350
L74280 47370
L74210 47370
" />
<path d="M74590 47040
L74590 47370
" />
<path d="M74590 47090
L74610 47060
L74660 47040
L74730 47040
L74780 47060
L74800 47110
L74800 47370
" />
<path d="M75420 47370
L75420 47040
" />
<path d="M75420 47090
L75440 47060
L75490 47040
L75560 47040
L75610 47060
L75630 47110
L75630 47370
" />
<path d="M75630 47110
L75660 47060
L75710 47040
L75780 47040
L75830 47060
L75850 47110
L75850 47370
" />
<path d="M76300 47370
L76300 47110
L76280 47060
L76230 47040
L76130 47040
L76090 47060
" />
<path d="M76300 47350
L76250 47370
L76130 47370
L76090 47350
L76060 47300
L76060 47250
L76090 47200
L76130 47180
L76250 47180
L76300 47160
" />
<path d="M76610 47370
L76560 47350
L76540 47300
L76540 46870
" />
<path d="M76990 47350
L76940 47370
L76850 47370
L76800 47350
L76780 47300
L76780 47110
L76800 47060
L76850 47040
L76940 47040
L76990 47060
L77020 47110
L77020 47160
L76780 47200
" />
<path d="M77830 47350
L77780 47370
L77680 47370
L77630 47350
L77610 47320
L77590 47280
L77590 47130
L77610 47090
L77630 47060
L77680 47040
L77780 47040
L77830 47060
" />
<path d="M78110 47370
L78060 47350
L78040 47320
L78020 47280
L78020 47130
L78040 47090
L78060 47060
L78110 47040
L78180 47040
L78230 47060
L78250 47090
L78280 47130
L78280 47280
L78250 47320
L78230 47350
L78180 47370
L78110 47370
" />
<path d="M78490 47040
L78490 47370
" />
<path d="M78490 47090
L78520 47060
L78560 47040
L78630 47040
L78680 47060
L78710 47110
L78710 47370
" />
<path d="M78940 47040
L78940 47370
" />
<path d="M78940 47090
L78970 47060
L79020 47040
L79090 47040
L79130 47060
L79160 47110
L79160 47370
" />
<path d="M79590 47350
L79540 47370
L79440 47370
L79400 47350
L79370 47300
L79370 47110
L79400 47060
L79440 47040
L79540 47040
L79590 47060
L79610 47110
L79610 47160
L79370 47200
" />
<path d="M80040 47350
L79990 47370
L79900 47370
L79850 47350
L79830 47320
L79800 47280
L79800 47130
L79830 47090
L79850 47060
L79900 47040
L79990 47040
L80040 47060
" />
<path d="M80180 47040
L80370 47040
" />
<path d="M80250 46870
L80250 47300
L80280 47350
L80330 47370
L80370 47370
" />
<path d="M80610 47370
L80560 47350
L80540 47320
L80520 47280
L80520 47130
L80540 47090
L80560 47060
L80610 47040
L80680 47040
L80730 47060
L80750 47090
L80780 47130
L80780 47280
L80750 47320
L80730 47350
L80680 47370
L80610 47370
" />
<path d="M80990 47370
L80990 47040
" />
<path d="M80990 47130
L81020 47090
L81040 47060
L81090 47040
L81130 47040
" />
<path d="M81300 47320
L81330 47350
L81300 47370
L81280 47350
L81300 47320
L81300 47370
" />
<text x="68400" y="38800"
textLength="2080" font-size="660" lengthAdjust="spacingAndGlyphs"
text-anchor="start" opacity="0">cable</text>
<path d="M68760 38750
L68710 38770
L68620 38770
L68570 38750
L68540 38720
L68520 38680
L68520 38530
L68540 38490
L68570 38460
L68620 38440
L68710 38440
L68760 38460
" />
<path d="M69190 38770
L69190 38510
L69160 38460
L69120 38440
L69020 38440
L68970 38460
" />
<path d="M69190 38750
L69140 38770
L69020 38770
L68970 38750
L68950 38700
L68950 38650
L68970 38600
L69020 38580
L69140 38580
L69190 38560
" />
<path d="M69430 38770
L69430 38270
" />
<path d="M69430 38460
L69470 38440
L69570 38440
L69620 38460
L69640 38490
L69660 38530
L69660 38680
L69640 38720
L69620 38750
L69570 38770
L69470 38770
L69430 38750
" />
<path d="M69950 38770
L69900 38750
L69880 38700
L69880 38270
" />
<path d="M70330 38750
L70280 38770
L70190 38770
L70140 38750
L70120 38700
L70120 38510
L70140 38460
L70190 38440
L70280 38440
L70330 38460
L70350 38510
L70350 38560
L70120 38600
" />
<text x="71500" y="32200"
textLength="4800" font-size="660" lengthAdjust="spacingAndGlyphs"
text-anchor="start" opacity="0">RS-232 DTE</text>
<path d="M71930 32170
L71760 31930
" />
<path d="M71640 32170
L71640 31670
L71830 31670
L71880 31700
L71910 31720
L71930 31770
L71930 31840
L71910 31890
L71880 31910
L71830 31930
L71640 31930
" />
<path d="M72120 32150
L72190 32170
L72310 32170
L72360 32150
L72380 32120
L72410 32080
L72410 32030
L72380 31980
L72360 31960
L72310 31930
L72220 31910
L72170 31890
L72140 31860
L72120 31810
L72120 31770
L72140 31720
L72170 31700
L72220 31670
L72330 31670
L72410 31700
" />
<path d="M72620 31980
L73000 31980
" />
<path d="M73220 31720
L73240 31700
L73290 31670
L73410 31670
L73450 31700
L73480 31720
L73500 31770
L73500 31810
L73480 31890
L73190 32170
L73500 32170
" />
<path d="M73670 31670
L73980 31670
L73810 31860
L73880 31860
L73930 31890
L73950 31910
L73980 31960
L73980 32080
L73950 32120
L73930 32150
L73880 32170
L73740 32170
L73690 32150
L73670 32120
" />
<path d="M74170 31720
L74190 31700
L74240 31670
L74360 31670
L74410 31700
L74430 31720
L74450 31770
L74450 31810
L74430 31890
L74140 32170
L74450 32170
" />
<path d="M75050 32170
L75050 31670
L75170 31670
L75240 31700
L75290 31740
L75310 31790
L75330 31890
L75330 31960
L75310 32050
L75290 32100
L75240 32150
L75170 32170
L75050 32170
" />
<path d="M75480 31670
L75760 31670
" />
<path d="M75620 32170
L75620 31670
" />
<path d="M75930 31910
L76100 31910
" />
<path d="M76170 32170
L75930 32170
L75930 31670
L76170 31670
" />
<text x="40500" y="32900"
textLength="3820" font-size="1330" lengthAdjust="spacingAndGlyphs"
text-anchor="end" opacity="0">TPDD</text>
<path d="M36800 31850
L37370 31850
" />
<path d="M37080 32850
L37080 31850
" />
<path d="M37700 32850
L37700 31850
L38080 31850
L38180 31900
L38230 31940
L38270 32040
L38270 32180
L38230 32280
L38180 32320
L38080 32370
L37700 32370
" />
<path d="M38700 32850
L38700 31850
L38940 31850
L39080 31900
L39180 31990
L39230 32090
L39270 32280
L39270 32420
L39230 32610
L39180 32700
L39080 32800
L38940 32850
L38700 32850
" />
<path d="M39700 32850
L39700 31850
L39940 31850
L40080 31900
L40180 31990
L40230 32090
L40270 32280
L40270 32420
L40230 32610
L40180 32700
L40080 32800
L39940 32850
L39700 32850
" />
</g>
<g style="fill:#0000C2; fill-opacity:0.0; 
stroke:#0000C2; stroke-width:0; stroke-opacity:1; 
stroke-linecap:round; stroke-linejoin:round;">
</g>
<g style="fill:#008400; fill-opacity:0.0; 
stroke:#008400; stroke-width:0; stroke-opacity:1; 
stroke-linecap:round; stroke-linejoin:round;">
</g>
<g style="fill:#008400; fill-opacity:1.0; 
stroke:#008400; stroke-width:100; stroke-opacity:1; 
stroke-linecap:round; stroke-linejoin:round;">
<circle cx="47000" cy="30500" r="200" /> 
</g>
<g style="fill:#008400; fill-opacity:1.0; 
stroke:#008400; stroke-width:0; stroke-opacity:1; 
stroke-linecap:round; stroke-linejoin:round;">
</g>
<g style="fill:#008400; fill-opacity:1.0; 
stroke:#008400; stroke-width:100; stroke-opacity:1; 
stroke-linecap:round; stroke-linejoin:round;">
<circle cx="51000" cy="30500" r="200" /> 
</g>
<g style="fill:#008400; fill-opacity:1.0; 
stroke:#008400; stroke-width:0; stroke-opacity:1; 
stroke-linecap:round; stroke-linejoin:round;">
</g>
<g style="fill:#008400; fill-opacity:1.0; 
stroke:#008400; stroke-width:100; stroke-opacity:1; 
stroke-linecap:round; stroke-linejoin:round;">
<circle cx="47000" cy="35500" r="200" /> 
</g> 
</svg>
