<?xml version="1.0" standalone="no"?>
 <!DOCTYPE svg PUBLIC "-//W3C//DTD SVG 1.1//EN" 
 "http://www.w3.org/Graphics/SVG/1.1/DTD/svg11.dtd"> 
<svg
  xmlns:svg="http://www.w3.org/2000/svg"
  xmlns="http://www.w3.org/2000/svg"
  xmlns:xlink="http://www.w3.org/1999/xlink"
  version="1.1"
  width="27.940000cm" height="21.590000cm" viewBox="0 0 110000 85000">
<title>SVG Picture created as TPDD_Cable.svg date 2020/09/07 11:05:11 </title>
  <desc>Picture generated by Eeschema-SVG </desc>
<g style="fill:#000000; fill-opacity:1;stroke:#000000; stroke-opacity:1;
stroke-linecap:round; stroke-linejoin:round;"
 transform="translate(0 0) scale(1 1)">
</g>
<g style="fill:#000000; fill-opacity:0.0; 
stroke:#000000; stroke-width:0; stroke-opacity:1; 
stroke-linecap:round; stroke-linejoin:round;">
<g >
</g>
<g style="fill:#840000; fill-opacity:0.0; 
stroke:#840000; stroke-width:0; stroke-opacity:1; 
stroke-linecap:round; stroke-linejoin:round;">
</g>
<g style="fill:#840000; fill-opacity:0.0; 
stroke:#840000; stroke-width:100; stroke-opacity:1; 
stroke-linecap:round; stroke-linejoin:round;">
<path d="M52250 37497.8 A1250 1250 0.0 0 0 49750 37497.8" />
<path d="M49750 38252.2 A1250 1250 0.0 0 0 52250 38252.2" />
</g>
<g style="fill:#840000; fill-opacity:0.0; 
stroke:#840000; stroke-width:60; stroke-opacity:1; 
stroke-linecap:round; stroke-linejoin:round;">
<circle cx="51000" cy="37500" r="50" /> 
<circle cx="50100" cy="39000" r="50" /> 
</g>
<g style="fill:#840000; fill-opacity:0.0; 
stroke:#840000; stroke-width:30; stroke-opacity:1; 
stroke-linecap:round; stroke-linejoin:round;">
<g transform="rotate(-90 51340 36700)">
<text x="51340" y="36800"
textLength="550" font-size="260" lengthAdjust="spacingAndGlyphs"
text-anchor="middle" opacity="0">10k</text>
</g>
<path d="M51430 36810
L51430 36930
" />
<path d="M51430 36870
L51230 36870
L51250 36890
L51270 36910
L51280 36930
" />
<path d="M51230 36690
L51230 36670
L51240 36650
L51240 36640
L51260 36630
L51300 36620
L51350 36620
L51390 36630
L51410 36640
L51420 36650
L51430 36670
L51430 36690
L51420 36710
L51410 36720
L51390 36730
L51350 36740
L51300 36740
L51260 36730
L51240 36720
L51240 36710
L51230 36690
" />
<path d="M51430 36540
L51230 36540
" />
<path d="M51350 36520
L51430 36460
" />
<path d="M51290 36460
L51370 36540
" />
<text x="50400" y="37260"
textLength="570" font-size="260" lengthAdjust="spacingAndGlyphs"
text-anchor="middle" opacity="0">10k</text>
<path d="M50280 37250
L50160 37250
" />
<path d="M50220 37250
L50220 37050
L50200 37070
L50180 37090
L50160 37100
" />
<path d="M50400 37050
L50420 37050
L50440 37060
L50450 37060
L50460 37080
L50470 37120
L50470 37170
L50460 37210
L50450 37230
L50440 37240
L50420 37250
L50400 37250
L50380 37240
L50370 37230
L50360 37210
L50350 37170
L50350 37120
L50360 37080
L50370 37060
L50380 37060
L50400 37050
" />
<path d="M50550 37250
L50550 37050
" />
<path d="M50570 37170
L50630 37250
" />
<path d="M50630 37110
L50550 37190
" />
</g>
<g style="fill:#840000; fill-opacity:0.0; 
stroke:#840000; stroke-width:60; stroke-opacity:1; 
stroke-linecap:round; stroke-linejoin:round;">
<path style="fill:#840000; fill-opacity:0.0; 
stroke:#840000; stroke-width:60; stroke-opacity:1; 
stroke-linecap:round; stroke-linejoin:round;fill:none"
d="M 51000,36650
51000,36500
" /> 
</g>
<g style="fill:#840000; fill-opacity:0.0; 
stroke:#840000; stroke-width:100; stroke-opacity:1; 
stroke-linecap:round; stroke-linejoin:round;">
<path style="fill:#840000; fill-opacity:0.0; 
stroke:#840000; stroke-width:100; stroke-opacity:1; 
stroke-linecap:round; stroke-linejoin:round;fill:none"
d="M 49750,37500
49750,38250
" /> 
<path style="fill:#840000; fill-opacity:0.0; 
stroke:#840000; stroke-width:100; stroke-opacity:1; 
stroke-linecap:round; stroke-linejoin:round;fill:none"
d="M 52250,37500
52250,38250
" /> 
</g>
<g style="fill:#840000; fill-opacity:0.0; 
stroke:#840000; stroke-width:60; stroke-opacity:1; 
stroke-linecap:round; stroke-linejoin:round;">
<path style="fill:#840000; fill-opacity:0.0; 
stroke:#840000; stroke-width:60; stroke-opacity:1; 
stroke-linecap:round; stroke-linejoin:round;fill:none"
d="M 50900,38000
51900,39000
" /> 
</g>
<g style="fill:#840000; fill-opacity:1.0; 
stroke:#840000; stroke-width:200; stroke-opacity:1; 
stroke-linecap:round; stroke-linejoin:round;">
<path style="fill:#840000; fill-opacity:1.0; 
stroke:#840000; stroke-width:200; stroke-opacity:1; 
stroke-linecap:round; stroke-linejoin:round;fill-rule:evenodd;"
d="M 51600,38050
50350,38050
" /> 
</g>
<g style="fill:#840000; fill-opacity:0.0; 
stroke:#840000; stroke-width:60; stroke-opacity:1; 
stroke-linecap:round; stroke-linejoin:round;">
<path style="fill:#840000; fill-opacity:0.0; 
stroke:#840000; stroke-width:60; stroke-opacity:1; 
stroke-linecap:round; stroke-linejoin:round;fill:none"
d="M 51900,39000
52000,39000
" /> 
<path style="fill:#840000; fill-opacity:0.0; 
stroke:#840000; stroke-width:60; stroke-opacity:1; 
stroke-linecap:round; stroke-linejoin:round;fill:none"
d="M 50100,39000
51100,38000
51100,38000
" /> 
</g>
<g style="fill:#840000; fill-opacity:1.0; 
stroke:#840000; stroke-width:60; stroke-opacity:1; 
stroke-linecap:round; stroke-linejoin:round;">
<path style="fill:#840000; fill-opacity:1.0; 
stroke:#840000; stroke-width:60; stroke-opacity:1; 
stroke-linecap:round; stroke-linejoin:round;fill-rule:evenodd;"
d="M 50350,38550
50550,38750
50750,38350
Z" /> 
</g>
<g style="fill:#840000; fill-opacity:0.0; 
stroke:#840000; stroke-width:60; stroke-opacity:1; 
stroke-linecap:round; stroke-linejoin:round;">
<path style="fill:#840000; fill-opacity:0.0; 
stroke:#840000; stroke-width:60; stroke-opacity:1; 
stroke-linecap:round; stroke-linejoin:round;fill:none"
d="M 51000,38000
51000,37250
51200,37200
50800,37100
51200,37000
50800,36900
51200,36800
50800,36700
51000,36650
" /> 
<path style="fill:#840000; fill-opacity:0.0; 
stroke:#840000; stroke-width:60; stroke-opacity:1; 
stroke-linecap:round; stroke-linejoin:round;fill:none"
d="M 51000,37500
50850,37500
50800,37700
50700,37300
50600,37700
50500,37300
50400,37700
50300,37300
50250,37500
50100,37500
50100,39000
" /> 
<path d="M51000 36500
L51000 35500
" />
<g transform="rotate(-90 51100 36000)">
<text x="51100" y="36500"
textLength="510" font-size="660" lengthAdjust="spacingAndGlyphs"
text-anchor="middle" opacity="0">1</text>
</g>
<path d="M51570 35850
L51570 36140
" />
<path d="M51570 36000
L51070 36000
L51140 36040
L51190 36090
L51210 36140
" />
<path d="M50000 39000
L49000 39000
" />
<text x="49500" y="39600"
textLength="540" font-size="660" lengthAdjust="spacingAndGlyphs"
text-anchor="middle" opacity="0">2</text>
<path d="M49350 39120
L49380 39100
L49420 39070
L49540 39070
L49590 39100
L49610 39120
L49640 39170
L49640 39210
L49610 39290
L49330 39570
L49640 39570
" />
<path d="M52000 39000
L53000 39000
" />
<text x="52500" y="39600"
textLength="540" font-size="660" lengthAdjust="spacingAndGlyphs"
text-anchor="middle" opacity="0">3</text>
<path d="M52330 39070
L52640 39070
L52470 39260
L52540 39260
L52590 39290
L52610 39310
L52640 39360
L52640 39480
L52610 39520
L52590 39550
L52540 39570
L52400 39570
L52350 39550
L52330 39520
" />
</g>
<g style="fill:#008484; fill-opacity:0.0; 
stroke:#008484; stroke-width:60; stroke-opacity:1; 
stroke-linecap:round; stroke-linejoin:round;">
<text x="53500" y="36670"
textLength="1060" font-size="660" lengthAdjust="spacingAndGlyphs"
text-anchor="middle" opacity="0">Q2</text>
<path d="M53450 36690
L53400 36670
L53350 36620
L53280 36550
L53230 36520
L53190 36520
" />
<path d="M53210 36640
L53160 36620
L53110 36570
L53090 36470
L53090 36310
L53110 36210
L53160 36170
L53210 36140
L53300 36140
L53350 36170
L53400 36210
L53420 36310
L53420 36470
L53400 36570
L53350 36620
L53300 36640
L53210 36640
" />
<path d="M53610 36190
L53640 36170
L53690 36140
L53800 36140
L53850 36170
L53880 36190
L53900 36240
L53900 36280
L53880 36360
L53590 36640
L53900 36640
" />
<text x="54600" y="37470"
textLength="4180" font-size="660" lengthAdjust="spacingAndGlyphs"
text-anchor="middle" opacity="0">DTA114EKA</text>
<path d="M52650 37440
L52650 36940
L52770 36940
L52850 36970
L52890 37010
L52920 37060
L52940 37160
L52940 37230
L52920 37320
L52890 37370
L52850 37420
L52770 37440
L52650 37440
" />
<path d="M53080 36940
L53370 36940
" />
<path d="M53230 37440
L53230 36940
" />
<path d="M53510 37300
L53750 37300
" />
<path d="M53460 37440
L53630 36940
L53800 37440
" />
<path d="M54230 37440
L53940 37440
" />
<path d="M54080 37440
L54080 36940
L54040 37010
L53990 37060
L53940 37080
" />
<path d="M54700 37440
L54420 37440
" />
<path d="M54560 37440
L54560 36940
L54510 37010
L54460 37060
L54420 37080
" />
<path d="M55130 37110
L55130 37440
" />
<path d="M55010 36920
L54890 37270
L55200 37270
" />
<path d="M55390 37180
L55560 37180
" />
<path d="M55630 37440
L55390 37440
L55390 36940
L55630 36940
" />
<path d="M55850 37440
L55850 36940
" />
<path d="M56130 37440
L55920 37160
" />
<path d="M56130 36940
L55850 37230
" />
<path d="M56320 37300
L56560 37300
" />
<path d="M56270 37440
L56440 36940
L56610 37440
" />
</g>
</g>
<g style="fill:#008484; fill-opacity:0.0; 
stroke:#008484; stroke-width:0; stroke-opacity:1; 
stroke-linecap:round; stroke-linejoin:round;">
<g >
</g>
<g style="fill:#840000; fill-opacity:0.0; 
stroke:#840000; stroke-width:0; stroke-opacity:1; 
stroke-linecap:round; stroke-linejoin:round;">
</g>
<g style="fill:#840000; fill-opacity:0.0; 
stroke:#840000; stroke-width:100; stroke-opacity:1; 
stroke-linecap:round; stroke-linejoin:round;">
<path d="M52250 42497.8 A1250 1250 0.0 0 0 49750 42497.8" />
<path d="M49750 43252.2 A1250 1250 0.0 0 0 52250 43252.2" />
</g>
<g style="fill:#840000; fill-opacity:0.0; 
stroke:#840000; stroke-width:60; stroke-opacity:1; 
stroke-linecap:round; stroke-linejoin:round;">
<circle cx="51000" cy="42500" r="50" /> 
<circle cx="50100" cy="44000" r="50" /> 
</g>
<g style="fill:#840000; fill-opacity:0.0; 
stroke:#840000; stroke-width:30; stroke-opacity:1; 
stroke-linecap:round; stroke-linejoin:round;">
<g transform="rotate(-90 51340 41700)">
<text x="51340" y="41800"
textLength="600" font-size="260" lengthAdjust="spacingAndGlyphs"
text-anchor="middle" opacity="0">10k</text>
</g>
<path d="M51430 41810
L51430 41930
" />
<path d="M51430 41870
L51230 41870
L51250 41890
L51270 41910
L51280 41930
" />
<path d="M51230 41690
L51230 41670
L51240 41650
L51240 41640
L51260 41630
L51300 41620
L51350 41620
L51390 41630
L51410 41640
L51420 41650
L51430 41670
L51430 41690
L51420 41710
L51410 41720
L51390 41730
L51350 41740
L51300 41740
L51260 41730
L51240 41720
L51240 41710
L51230 41690
" />
<path d="M51430 41540
L51230 41540
" />
<path d="M51350 41520
L51430 41460
" />
<path d="M51290 41460
L51370 41540
" />
<text x="50400" y="42260"
textLength="570" font-size="260" lengthAdjust="spacingAndGlyphs"
text-anchor="middle" opacity="0">10k</text>
<path d="M50280 42250
L50160 42250
" />
<path d="M50220 42250
L50220 42050
L50200 42070
L50180 42090
L50160 42100
" />
<path d="M50400 42050
L50420 42050
L50440 42060
L50450 42060
L50460 42080
L50470 42120
L50470 42170
L50460 42210
L50450 42230
L50440 42240
L50420 42250
L50400 42250
L50380 42240
L50370 42230
L50360 42210
L50350 42170
L50350 42120
L50360 42080
L50370 42060
L50380 42060
L50400 42050
" />
<path d="M50550 42250
L50550 42050
" />
<path d="M50570 42170
L50630 42250
" />
<path d="M50630 42110
L50550 42190
" />
</g>
<g style="fill:#840000; fill-opacity:0.0; 
stroke:#840000; stroke-width:60; stroke-opacity:1; 
stroke-linecap:round; stroke-linejoin:round;">
<path style="fill:#840000; fill-opacity:0.0; 
stroke:#840000; stroke-width:60; stroke-opacity:1; 
stroke-linecap:round; stroke-linejoin:round;fill:none"
d="M 51000,41650
51000,41500
" /> 
</g>
<g style="fill:#840000; fill-opacity:0.0; 
stroke:#840000; stroke-width:100; stroke-opacity:1; 
stroke-linecap:round; stroke-linejoin:round;">
<path style="fill:#840000; fill-opacity:0.0; 
stroke:#840000; stroke-width:100; stroke-opacity:1; 
stroke-linecap:round; stroke-linejoin:round;fill:none"
d="M 49750,42500
49750,43250
" /> 
<path style="fill:#840000; fill-opacity:0.0; 
stroke:#840000; stroke-width:100; stroke-opacity:1; 
stroke-linecap:round; stroke-linejoin:round;fill:none"
d="M 52250,42500
52250,43250
" /> 
</g>
<g style="fill:#840000; fill-opacity:0.0; 
stroke:#840000; stroke-width:60; stroke-opacity:1; 
stroke-linecap:round; stroke-linejoin:round;">
<path style="fill:#840000; fill-opacity:0.0; 
stroke:#840000; stroke-width:60; stroke-opacity:1; 
stroke-linecap:round; stroke-linejoin:round;fill:none"
d="M 50900,43000
51900,44000
" /> 
</g>
<g style="fill:#840000; fill-opacity:1.0; 
stroke:#840000; stroke-width:200; stroke-opacity:1; 
stroke-linecap:round; stroke-linejoin:round;">
<path style="fill:#840000; fill-opacity:1.0; 
stroke:#840000; stroke-width:200; stroke-opacity:1; 
stroke-linecap:round; stroke-linejoin:round;fill-rule:evenodd;"
d="M 51600,43050
50350,43050
" /> 
</g>
<g style="fill:#840000; fill-opacity:0.0; 
stroke:#840000; stroke-width:60; stroke-opacity:1; 
stroke-linecap:round; stroke-linejoin:round;">
<path style="fill:#840000; fill-opacity:0.0; 
stroke:#840000; stroke-width:60; stroke-opacity:1; 
stroke-linecap:round; stroke-linejoin:round;fill:none"
d="M 51900,44000
52000,44000
" /> 
<path style="fill:#840000; fill-opacity:0.0; 
stroke:#840000; stroke-width:60; stroke-opacity:1; 
stroke-linecap:round; stroke-linejoin:round;fill:none"
d="M 50100,44000
51100,43000
51100,43000
" /> 
</g>
<g style="fill:#840000; fill-opacity:1.0; 
stroke:#840000; stroke-width:60; stroke-opacity:1; 
stroke-linecap:round; stroke-linejoin:round;">
<path style="fill:#840000; fill-opacity:1.0; 
stroke:#840000; stroke-width:60; stroke-opacity:1; 
stroke-linecap:round; stroke-linejoin:round;fill-rule:evenodd;"
d="M 50350,43550
50550,43750
50750,43350
Z" /> 
</g>
<g style="fill:#840000; fill-opacity:0.0; 
stroke:#840000; stroke-width:60; stroke-opacity:1; 
stroke-linecap:round; stroke-linejoin:round;">
<path style="fill:#840000; fill-opacity:0.0; 
stroke:#840000; stroke-width:60; stroke-opacity:1; 
stroke-linecap:round; stroke-linejoin:round;fill:none"
d="M 51000,43000
51000,42250
51200,42200
50800,42100
51200,42000
50800,41900
51200,41800
50800,41700
51000,41650
" /> 
<path style="fill:#840000; fill-opacity:0.0; 
stroke:#840000; stroke-width:60; stroke-opacity:1; 
stroke-linecap:round; stroke-linejoin:round;fill:none"
d="M 51000,42500
50850,42500
50800,42700
50700,42300
50600,42700
50500,42300
50400,42700
50300,42300
50250,42500
50100,42500
50100,44000
" /> 
<path d="M51000 41500
L51000 40500
" />
<g transform="rotate(-90 51100 41000)">
<text x="51100" y="41500"
textLength="510" font-size="660" lengthAdjust="spacingAndGlyphs"
text-anchor="middle" opacity="0">1</text>
</g>
<path d="M51570 40850
L51570 41140
" />
<path d="M51570 41000
L51070 41000
L51140 41040
L51190 41090
L51210 41140
" />
<path d="M50000 44000
L49000 44000
" />
<text x="49500" y="44600"
textLength="540" font-size="660" lengthAdjust="spacingAndGlyphs"
text-anchor="middle" opacity="0">2</text>
<path d="M49350 44120
L49380 44100
L49420 44070
L49540 44070
L49590 44100
L49610 44120
L49640 44170
L49640 44210
L49610 44290
L49330 44570
L49640 44570
" />
<path d="M52000 44000
L53000 44000
" />
<text x="52500" y="44600"
textLength="540" font-size="660" lengthAdjust="spacingAndGlyphs"
text-anchor="middle" opacity="0">3</text>
<path d="M52330 44070
L52640 44070
L52470 44260
L52540 44260
L52590 44290
L52610 44310
L52640 44360
L52640 44480
L52610 44520
L52590 44550
L52540 44570
L52400 44570
L52350 44550
L52330 44520
" />
</g>
<g style="fill:#008484; fill-opacity:0.0; 
stroke:#008484; stroke-width:60; stroke-opacity:1; 
stroke-linecap:round; stroke-linejoin:round;">
<text x="53500" y="41670"
textLength="1060" font-size="660" lengthAdjust="spacingAndGlyphs"
text-anchor="middle" opacity="0">Q3</text>
<path d="M53450 41690
L53400 41670
L53350 41620
L53280 41550
L53230 41520
L53190 41520
" />
<path d="M53210 41640
L53160 41620
L53110 41570
L53090 41470
L53090 41310
L53110 41210
L53160 41170
L53210 41140
L53300 41140
L53350 41170
L53400 41210
L53420 41310
L53420 41470
L53400 41570
L53350 41620
L53300 41640
L53210 41640
" />
<path d="M53590 41140
L53900 41140
L53730 41330
L53800 41330
L53850 41360
L53880 41380
L53900 41430
L53900 41550
L53880 41590
L53850 41620
L53800 41640
L53660 41640
L53610 41620
L53590 41590
" />
<text x="54600" y="42470"
textLength="4180" font-size="660" lengthAdjust="spacingAndGlyphs"
text-anchor="middle" opacity="0">DTA114EKA</text>
<path d="M52650 42440
L52650 41940
L52770 41940
L52850 41970
L52890 42010
L52920 42060
L52940 42160
L52940 42230
L52920 42320
L52890 42370
L52850 42420
L52770 42440
L52650 42440
" />
<path d="M53080 41940
L53370 41940
" />
<path d="M53230 42440
L53230 41940
" />
<path d="M53510 42300
L53750 42300
" />
<path d="M53460 42440
L53630 41940
L53800 42440
" />
<path d="M54230 42440
L53940 42440
" />
<path d="M54080 42440
L54080 41940
L54040 42010
L53990 42060
L53940 42080
" />
<path d="M54700 42440
L54420 42440
" />
<path d="M54560 42440
L54560 41940
L54510 42010
L54460 42060
L54420 42080
" />
<path d="M55130 42110
L55130 42440
" />
<path d="M55010 41920
L54890 42270
L55200 42270
" />
<path d="M55390 42180
L55560 42180
" />
<path d="M55630 42440
L55390 42440
L55390 41940
L55630 41940
" />
<path d="M55850 42440
L55850 41940
" />
<path d="M56130 42440
L55920 42160
" />
<path d="M56130 41940
L55850 42230
" />
<path d="M56320 42300
L56560 42300
" />
<path d="M56270 42440
L56440 41940
L56610 42440
" />
</g>
</g>
<g style="fill:#008484; fill-opacity:0.0; 
stroke:#008484; stroke-width:0; stroke-opacity:1; 
stroke-linecap:round; stroke-linejoin:round;">
<g >
</g>
<g style="fill:#840000; fill-opacity:0.0; 
stroke:#840000; stroke-width:0; stroke-opacity:1; 
stroke-linecap:round; stroke-linejoin:round;">
</g>
<g style="fill:#840000; fill-opacity:0.0; 
stroke:#840000; stroke-width:100; stroke-opacity:1; 
stroke-linecap:round; stroke-linejoin:round;">
<path d="M52250 32497.8 A1250 1250 0.0 0 0 49750 32497.8" />
<path d="M49750 33252.2 A1250 1250 0.0 0 0 52250 33252.2" />
</g>
<g style="fill:#840000; fill-opacity:0.0; 
stroke:#840000; stroke-width:60; stroke-opacity:1; 
stroke-linecap:round; stroke-linejoin:round;">
<circle cx="51000" cy="32500" r="50" /> 
<circle cx="50100" cy="34000" r="50" /> 
</g>
<g style="fill:#840000; fill-opacity:0.0; 
stroke:#840000; stroke-width:30; stroke-opacity:1; 
stroke-linecap:round; stroke-linejoin:round;">
<g transform="rotate(-90 51340 31700)">
<text x="51340" y="31800"
textLength="600" font-size="260" lengthAdjust="spacingAndGlyphs"
text-anchor="middle" opacity="0">10k</text>
</g>
<path d="M51430 31810
L51430 31930
" />
<path d="M51430 31870
L51230 31870
L51250 31890
L51270 31910
L51280 31930
" />
<path d="M51230 31690
L51230 31670
L51240 31650
L51240 31640
L51260 31630
L51300 31620
L51350 31620
L51390 31630
L51410 31640
L51420 31650
L51430 31670
L51430 31690
L51420 31710
L51410 31720
L51390 31730
L51350 31740
L51300 31740
L51260 31730
L51240 31720
L51240 31710
L51230 31690
" />
<path d="M51430 31540
L51230 31540
" />
<path d="M51350 31520
L51430 31460
" />
<path d="M51290 31460
L51370 31540
" />
<text x="50400" y="32260"
textLength="570" font-size="260" lengthAdjust="spacingAndGlyphs"
text-anchor="middle" opacity="0">10k</text>
<path d="M50280 32250
L50160 32250
" />
<path d="M50220 32250
L50220 32050
L50200 32070
L50180 32090
L50160 32100
" />
<path d="M50400 32050
L50420 32050
L50440 32060
L50450 32060
L50460 32080
L50470 32120
L50470 32170
L50460 32210
L50450 32230
L50440 32240
L50420 32250
L50400 32250
L50380 32240
L50370 32230
L50360 32210
L50350 32170
L50350 32120
L50360 32080
L50370 32060
L50380 32060
L50400 32050
" />
<path d="M50550 32250
L50550 32050
" />
<path d="M50570 32170
L50630 32250
" />
<path d="M50630 32110
L50550 32190
" />
</g>
<g style="fill:#840000; fill-opacity:0.0; 
stroke:#840000; stroke-width:60; stroke-opacity:1; 
stroke-linecap:round; stroke-linejoin:round;">
<path style="fill:#840000; fill-opacity:0.0; 
stroke:#840000; stroke-width:60; stroke-opacity:1; 
stroke-linecap:round; stroke-linejoin:round;fill:none"
d="M 51000,31650
51000,31500
" /> 
</g>
<g style="fill:#840000; fill-opacity:0.0; 
stroke:#840000; stroke-width:100; stroke-opacity:1; 
stroke-linecap:round; stroke-linejoin:round;">
<path style="fill:#840000; fill-opacity:0.0; 
stroke:#840000; stroke-width:100; stroke-opacity:1; 
stroke-linecap:round; stroke-linejoin:round;fill:none"
d="M 49750,32500
49750,33250
" /> 
<path style="fill:#840000; fill-opacity:0.0; 
stroke:#840000; stroke-width:100; stroke-opacity:1; 
stroke-linecap:round; stroke-linejoin:round;fill:none"
d="M 52250,32500
52250,33250
" /> 
</g>
<g style="fill:#840000; fill-opacity:0.0; 
stroke:#840000; stroke-width:60; stroke-opacity:1; 
stroke-linecap:round; stroke-linejoin:round;">
<path style="fill:#840000; fill-opacity:0.0; 
stroke:#840000; stroke-width:60; stroke-opacity:1; 
stroke-linecap:round; stroke-linejoin:round;fill:none"
d="M 50900,33000
51900,34000
" /> 
</g>
<g style="fill:#840000; fill-opacity:1.0; 
stroke:#840000; stroke-width:200; stroke-opacity:1; 
stroke-linecap:round; stroke-linejoin:round;">
<path style="fill:#840000; fill-opacity:1.0; 
stroke:#840000; stroke-width:200; stroke-opacity:1; 
stroke-linecap:round; stroke-linejoin:round;fill-rule:evenodd;"
d="M 51600,33050
50350,33050
" /> 
</g>
<g style="fill:#840000; fill-opacity:0.0; 
stroke:#840000; stroke-width:60; stroke-opacity:1; 
stroke-linecap:round; stroke-linejoin:round;">
<path style="fill:#840000; fill-opacity:0.0; 
stroke:#840000; stroke-width:60; stroke-opacity:1; 
stroke-linecap:round; stroke-linejoin:round;fill:none"
d="M 51900,34000
52000,34000
" /> 
<path style="fill:#840000; fill-opacity:0.0; 
stroke:#840000; stroke-width:60; stroke-opacity:1; 
stroke-linecap:round; stroke-linejoin:round;fill:none"
d="M 50100,34000
51100,33000
51100,33000
" /> 
</g>
<g style="fill:#840000; fill-opacity:1.0; 
stroke:#840000; stroke-width:60; stroke-opacity:1; 
stroke-linecap:round; stroke-linejoin:round;">
<path style="fill:#840000; fill-opacity:1.0; 
stroke:#840000; stroke-width:60; stroke-opacity:1; 
stroke-linecap:round; stroke-linejoin:round;fill-rule:evenodd;"
d="M 50350,33550
50550,33750
50750,33350
Z" /> 
</g>
<g style="fill:#840000; fill-opacity:0.0; 
stroke:#840000; stroke-width:60; stroke-opacity:1; 
stroke-linecap:round; stroke-linejoin:round;">
<path style="fill:#840000; fill-opacity:0.0; 
stroke:#840000; stroke-width:60; stroke-opacity:1; 
stroke-linecap:round; stroke-linejoin:round;fill:none"
d="M 51000,33000
51000,32250
51200,32200
50800,32100
51200,32000
50800,31900
51200,31800
50800,31700
51000,31650
" /> 
<path style="fill:#840000; fill-opacity:0.0; 
stroke:#840000; stroke-width:60; stroke-opacity:1; 
stroke-linecap:round; stroke-linejoin:round;fill:none"
d="M 51000,32500
50850,32500
50800,32700
50700,32300
50600,32700
50500,32300
50400,32700
50300,32300
50250,32500
50100,32500
50100,34000
" /> 
<path d="M51000 31500
L51000 30500
" />
<g transform="rotate(-90 51100 31000)">
<text x="51100" y="31500"
textLength="510" font-size="660" lengthAdjust="spacingAndGlyphs"
text-anchor="middle" opacity="0">1</text>
</g>
<path d="M51570 30850
L51570 31140
" />
<path d="M51570 31000
L51070 31000
L51140 31040
L51190 31090
L51210 31140
" />
<path d="M50000 34000
L49000 34000
" />
<text x="49500" y="34600"
textLength="540" font-size="660" lengthAdjust="spacingAndGlyphs"
text-anchor="middle" opacity="0">2</text>
<path d="M49350 34120
L49380 34100
L49420 34070
L49540 34070
L49590 34100
L49610 34120
L49640 34170
L49640 34210
L49610 34290
L49330 34570
L49640 34570
" />
<path d="M52000 34000
L53000 34000
" />
<text x="52500" y="34600"
textLength="540" font-size="660" lengthAdjust="spacingAndGlyphs"
text-anchor="middle" opacity="0">3</text>
<path d="M52330 34070
L52640 34070
L52470 34260
L52540 34260
L52590 34290
L52610 34310
L52640 34360
L52640 34480
L52610 34520
L52590 34550
L52540 34570
L52400 34570
L52350 34550
L52330 34520
" />
</g>
<g style="fill:#008484; fill-opacity:0.0; 
stroke:#008484; stroke-width:60; stroke-opacity:1; 
stroke-linecap:round; stroke-linejoin:round;">
<text x="53400" y="31570"
textLength="1060" font-size="660" lengthAdjust="spacingAndGlyphs"
text-anchor="middle" opacity="0">Q1</text>
<path d="M53350 31590
L53300 31570
L53250 31520
L53180 31450
L53130 31420
L53090 31420
" />
<path d="M53110 31540
L53060 31520
L53010 31470
L52990 31370
L52990 31210
L53010 31110
L53060 31070
L53110 31040
L53200 31040
L53250 31070
L53300 31110
L53320 31210
L53320 31370
L53300 31470
L53250 31520
L53200 31540
L53110 31540
" />
<path d="M53800 31540
L53510 31540
" />
<path d="M53660 31540
L53660 31040
L53610 31110
L53560 31160
L53510 31180
" />
<text x="54500" y="32370"
textLength="4180" font-size="660" lengthAdjust="spacingAndGlyphs"
text-anchor="middle" opacity="0">DTA114EKA</text>
<path d="M52550 32340
L52550 31840
L52670 31840
L52750 31870
L52790 31910
L52820 31960
L52840 32060
L52840 32130
L52820 32220
L52790 32270
L52750 32320
L52670 32340
L52550 32340
" />
<path d="M52980 31840
L53270 31840
" />
<path d="M53130 32340
L53130 31840
" />
<path d="M53410 32200
L53650 32200
" />
<path d="M53360 32340
L53530 31840
L53700 32340
" />
<path d="M54130 32340
L53840 32340
" />
<path d="M53980 32340
L53980 31840
L53940 31910
L53890 31960
L53840 31980
" />
<path d="M54600 32340
L54320 32340
" />
<path d="M54460 32340
L54460 31840
L54410 31910
L54360 31960
L54320 31980
" />
<path d="M55030 32010
L55030 32340
" />
<path d="M54910 31820
L54790 32170
L55100 32170
" />
<path d="M55290 32080
L55460 32080
" />
<path d="M55530 32340
L55290 32340
L55290 31840
L55530 31840
" />
<path d="M55750 32340
L55750 31840
" />
<path d="M56030 32340
L55820 32060
" />
<path d="M56030 31840
L55750 32130
" />
<path d="M56220 32200
L56460 32200
" />
<path d="M56170 32340
L56340 31840
L56510 32340
" />
</g>
</g>
<g style="fill:#008484; fill-opacity:0.0; 
stroke:#008484; stroke-width:0; stroke-opacity:1; 
stroke-linecap:round; stroke-linejoin:round;">
<g >
</g>
<g style="fill:#840000; fill-opacity:0.0; 
stroke:#840000; stroke-width:0; stroke-opacity:1; 
stroke-linecap:round; stroke-linejoin:round;">
</g>
<g style="fill:#FFFFC2; fill-opacity:0.0; 
stroke:#FFFFC2; stroke-width:0; stroke-opacity:1; 
stroke-linecap:round; stroke-linejoin:round;">
</g>
<g style="fill:#FFFFC2; fill-opacity:0.6; 
stroke:#FFFFC2; stroke-width:0; stroke-opacity:1; 
stroke-linecap:round; stroke-linejoin:round;">
<rect x="36600" y="38500" width="900" height="2000" rx="0" />
</g>
<g style="fill:#840000; fill-opacity:0.6; 
stroke:#840000; stroke-width:0; stroke-opacity:1; 
stroke-linecap:round; stroke-linejoin:round;">
</g>
<g style="fill:#840000; fill-opacity:0.0; 
stroke:#840000; stroke-width:100; stroke-opacity:1; 
stroke-linecap:round; stroke-linejoin:round;">
<rect x="36600" y="38500" width="900" height="2000" rx="0" />
</g>
<g style="fill:#FFFFC2; fill-opacity:0.0; 
stroke:#FFFFC2; stroke-width:100; stroke-opacity:1; 
stroke-linecap:round; stroke-linejoin:round;">
</g>
<g style="fill:#FFFFC2; fill-opacity:0.6; 
stroke:#FFFFC2; stroke-width:0; stroke-opacity:1; 
stroke-linecap:round; stroke-linejoin:round;">
<rect x="37500" y="37500" width="2000" height="4000" rx="0" />
</g>
<g style="fill:#840000; fill-opacity:0.6; 
stroke:#840000; stroke-width:0; stroke-opacity:1; 
stroke-linecap:round; stroke-linejoin:round;">
</g>
<g style="fill:#840000; fill-opacity:0.0; 
stroke:#840000; stroke-width:100; stroke-opacity:1; 
stroke-linecap:round; stroke-linejoin:round;">
<rect x="37500" y="37500" width="2000" height="4000" rx="0" />
<rect x="36600" y="38500" width="900" height="2000" rx="0" />
</g>
<g style="fill:#840000; fill-opacity:0.0; 
stroke:#840000; stroke-width:60; stroke-opacity:1; 
stroke-linecap:round; stroke-linejoin:round;">
<rect x="37500" y="40950" width="500" height="100" rx="0" />
<rect x="37500" y="39950" width="500" height="100" rx="0" />
<rect x="37500" y="38950" width="500" height="100" rx="0" />
<rect x="37500" y="37950" width="500" height="100" rx="0" />
</g>
<g style="fill:#840000; fill-opacity:0.0; 
stroke:#840000; stroke-width:100; stroke-opacity:1; 
stroke-linecap:round; stroke-linejoin:round;">
<rect x="37500" y="37500" width="2000" height="4000" rx="0" />
</g>
<g style="fill:#840000; fill-opacity:0.0; 
stroke:#840000; stroke-width:60; stroke-opacity:1; 
stroke-linecap:round; stroke-linejoin:round;">
<rect x="39000" y="40950" width="500" height="100" rx="0" />
<rect x="39000" y="39950" width="500" height="100" rx="0" />
<rect x="39000" y="38950" width="500" height="100" rx="0" />
<rect x="39000" y="37950" width="500" height="100" rx="0" />
<path d="M37500 38000
L36000 38000
" />
<text x="36750" y="37900"
textLength="540" font-size="660" lengthAdjust="spacingAndGlyphs"
text-anchor="middle" opacity="0">1</text>
<path d="M36890 37870
L36600 37870
" />
<path d="M36750 37870
L36750 37370
L36700 37440
L36650 37490
L36600 37510
" />
<path d="M39500 38000
L41000 38000
" />
<text x="40250" y="37900"
textLength="540" font-size="660" lengthAdjust="spacingAndGlyphs"
text-anchor="middle" opacity="0">2</text>
<path d="M40100 37420
L40130 37400
L40170 37370
L40290 37370
L40340 37400
L40360 37420
L40390 37470
L40390 37510
L40360 37590
L40080 37870
L40390 37870
" />
<path d="M37500 39000
L36000 39000
" />
<text x="36750" y="38900"
textLength="540" font-size="660" lengthAdjust="spacingAndGlyphs"
text-anchor="middle" opacity="0">3</text>
<path d="M36580 38370
L36890 38370
L36720 38560
L36790 38560
L36840 38590
L36860 38610
L36890 38660
L36890 38780
L36860 38820
L36840 38850
L36790 38870
L36650 38870
L36600 38850
L36580 38820
" />
<path d="M39500 39000
L41000 39000
" />
<text x="40250" y="38900"
textLength="540" font-size="660" lengthAdjust="spacingAndGlyphs"
text-anchor="middle" opacity="0">4</text>
<path d="M40340 38540
L40340 38870
" />
<path d="M40220 38350
L40100 38700
L40410 38700
" />
<path d="M37500 40000
L36000 40000
" />
<text x="36750" y="39900"
textLength="540" font-size="660" lengthAdjust="spacingAndGlyphs"
text-anchor="middle" opacity="0">5</text>
<path d="M36860 39370
L36630 39370
L36600 39610
L36630 39590
L36670 39560
L36790 39560
L36840 39590
L36860 39610
L36890 39660
L36890 39780
L36860 39820
L36840 39850
L36790 39870
L36670 39870
L36630 39850
L36600 39820
" />
<path d="M39500 40000
L41000 40000
" />
<text x="40250" y="39900"
textLength="540" font-size="660" lengthAdjust="spacingAndGlyphs"
text-anchor="middle" opacity="0">6</text>
<path d="M40340 39370
L40250 39370
L40200 39400
L40170 39420
L40130 39490
L40100 39590
L40100 39780
L40130 39820
L40150 39850
L40200 39870
L40290 39870
L40340 39850
L40360 39820
L40390 39780
L40390 39660
L40360 39610
L40340 39590
L40290 39560
L40200 39560
L40150 39590
L40130 39610
L40100 39660
" />
<path d="M37500 41000
L36000 41000
" />
<text x="36750" y="40900"
textLength="540" font-size="660" lengthAdjust="spacingAndGlyphs"
text-anchor="middle" opacity="0">7</text>
<path d="M36580 40370
L36910 40370
L36700 40870
" />
<path d="M39500 41000
L41000 41000
" />
<text x="40250" y="40900"
textLength="540" font-size="660" lengthAdjust="spacingAndGlyphs"
text-anchor="middle" opacity="0">8</text>
<path d="M40200 40590
L40150 40560
L40130 40540
L40100 40490
L40100 40470
L40130 40420
L40150 40400
L40200 40370
L40290 40370
L40340 40400
L40360 40420
L40390 40470
L40390 40490
L40360 40540
L40340 40560
L40290 40590
L40200 40590
L40150 40610
L40130 40630
L40100 40680
L40100 40780
L40130 40820
L40150 40850
L40200 40870
L40290 40870
L40340 40850
L40360 40820
L40390 40780
L40390 40680
L40360 40630
L40340 40610
L40290 40590
" />
</g>
<g style="fill:#008484; fill-opacity:0.0; 
stroke:#008484; stroke-width:60; stroke-opacity:1; 
stroke-linecap:round; stroke-linejoin:round;">
<text x="38400" y="35970"
textLength="920" font-size="660" lengthAdjust="spacingAndGlyphs"
text-anchor="middle" opacity="0">J2</text>
<path d="M38230 35440
L38230 35800
L38200 35870
L38160 35920
L38090 35940
L38040 35940
" />
<path d="M38440 35490
L38470 35470
L38510 35440
L38630 35440
L38680 35470
L38700 35490
L38730 35540
L38730 35580
L38700 35660
L38420 35940
L38730 35940
" />
<text x="38500" y="36770"
textLength="1940" font-size="660" lengthAdjust="spacingAndGlyphs"
text-anchor="middle" opacity="0">TPDD</text>
<path d="M37600 36240
L37890 36240
" />
<path d="M37750 36740
L37750 36240
" />
<path d="M38050 36740
L38050 36240
L38250 36240
L38290 36270
L38320 36290
L38340 36340
L38340 36410
L38320 36460
L38290 36480
L38250 36500
L38050 36500
" />
<path d="M38550 36740
L38550 36240
L38670 36240
L38750 36270
L38790 36310
L38820 36360
L38840 36460
L38840 36530
L38820 36620
L38790 36670
L38750 36720
L38670 36740
L38550 36740
" />
<path d="M39050 36740
L39050 36240
L39170 36240
L39250 36270
L39290 36310
L39320 36360
L39340 36460
L39340 36530
L39320 36620
L39290 36670
L39250 36720
L39170 36740
L39050 36740
" />
</g>
</g>
<g style="fill:#008484; fill-opacity:0.0; 
stroke:#008484; stroke-width:0; stroke-opacity:1; 
stroke-linecap:round; stroke-linejoin:round;">
<g >
</g>
<g style="fill:#840000; fill-opacity:0.0; 
stroke:#840000; stroke-width:0; stroke-opacity:1; 
stroke-linecap:round; stroke-linejoin:round;">
</g>
<g style="fill:#840000; fill-opacity:1.0; 
stroke:#840000; stroke-width:60; stroke-opacity:1; 
stroke-linecap:round; stroke-linejoin:round;">
<circle cx="65000" cy="36000" r="300" /> 
<circle cx="65000" cy="38000" r="300" /> 
<circle cx="65000" cy="40000" r="300" /> 
<circle cx="65000" cy="42000" r="300" /> 
<circle cx="66200" cy="37000" r="300" /> 
<circle cx="66200" cy="39000" r="300" /> 
<circle cx="66200" cy="41000" r="300" /> 
</g>
<g style="fill:#840000; fill-opacity:0.0; 
stroke:#840000; stroke-width:60; stroke-opacity:1; 
stroke-linecap:round; stroke-linejoin:round;">
<path style="fill:#840000; fill-opacity:0.0; 
stroke:#840000; stroke-width:60; stroke-opacity:1; 
stroke-linecap:round; stroke-linejoin:round;fill:none"
d="M 64200,36000
64700,36000
" /> 
<path style="fill:#840000; fill-opacity:0.0; 
stroke:#840000; stroke-width:60; stroke-opacity:1; 
stroke-linecap:round; stroke-linejoin:round;fill:none"
d="M 64200,37000
65900,37000
" /> 
<path style="fill:#840000; fill-opacity:0.0; 
stroke:#840000; stroke-width:60; stroke-opacity:1; 
stroke-linecap:round; stroke-linejoin:round;fill:none"
d="M 64200,38000
64700,38000
" /> 
<path style="fill:#840000; fill-opacity:0.0; 
stroke:#840000; stroke-width:60; stroke-opacity:1; 
stroke-linecap:round; stroke-linejoin:round;fill:none"
d="M 64200,39000
65900,39000
" /> 
<path style="fill:#840000; fill-opacity:0.0; 
stroke:#840000; stroke-width:60; stroke-opacity:1; 
stroke-linecap:round; stroke-linejoin:round;fill:none"
d="M 64200,40000
64700,40000
" /> 
<path style="fill:#840000; fill-opacity:0.0; 
stroke:#840000; stroke-width:60; stroke-opacity:1; 
stroke-linecap:round; stroke-linejoin:round;fill:none"
d="M 64200,41000
65900,41000
" /> 
<path style="fill:#840000; fill-opacity:0.0; 
stroke:#840000; stroke-width:60; stroke-opacity:1; 
stroke-linecap:round; stroke-linejoin:round;fill:none"
d="M 64200,42000
64700,42000
" /> 
<path d="M64200 42000
L62700 42000
" />
<text x="63450" y="41900"
textLength="540" font-size="660" lengthAdjust="spacingAndGlyphs"
text-anchor="middle" opacity="0">1</text>
<path d="M63590 41870
L63300 41870
" />
<path d="M63450 41870
L63450 41370
L63400 41440
L63350 41490
L63300 41510
" />
<path d="M64200 41000
L62700 41000
" />
<text x="63450" y="40900"
textLength="540" font-size="660" lengthAdjust="spacingAndGlyphs"
text-anchor="middle" opacity="0">2</text>
<path d="M63300 40420
L63330 40400
L63370 40370
L63490 40370
L63540 40400
L63560 40420
L63590 40470
L63590 40510
L63560 40590
L63280 40870
L63590 40870
" />
<path d="M64200 40000
L62700 40000
" />
<text x="63450" y="39900"
textLength="540" font-size="660" lengthAdjust="spacingAndGlyphs"
text-anchor="middle" opacity="0">3</text>
<path d="M63280 39370
L63590 39370
L63420 39560
L63490 39560
L63540 39590
L63560 39610
L63590 39660
L63590 39780
L63560 39820
L63540 39850
L63490 39870
L63350 39870
L63300 39850
L63280 39820
" />
<path d="M64200 39000
L62700 39000
" />
<text x="63450" y="38900"
textLength="540" font-size="660" lengthAdjust="spacingAndGlyphs"
text-anchor="middle" opacity="0">4</text>
<path d="M63540 38540
L63540 38870
" />
<path d="M63420 38350
L63300 38700
L63610 38700
" />
<path d="M64200 38000
L62700 38000
" />
<text x="63450" y="37900"
textLength="540" font-size="660" lengthAdjust="spacingAndGlyphs"
text-anchor="middle" opacity="0">5</text>
<path d="M63560 37370
L63330 37370
L63300 37610
L63330 37590
L63370 37560
L63490 37560
L63540 37590
L63560 37610
L63590 37660
L63590 37780
L63560 37820
L63540 37850
L63490 37870
L63370 37870
L63330 37850
L63300 37820
" />
<path d="M64200 37000
L62700 37000
" />
<text x="63450" y="36900"
textLength="540" font-size="660" lengthAdjust="spacingAndGlyphs"
text-anchor="middle" opacity="0">6</text>
<path d="M63540 36370
L63450 36370
L63400 36400
L63370 36420
L63330 36490
L63300 36590
L63300 36780
L63330 36820
L63350 36850
L63400 36870
L63490 36870
L63540 36850
L63560 36820
L63590 36780
L63590 36660
L63560 36610
L63540 36590
L63490 36560
L63400 36560
L63350 36590
L63330 36610
L63300 36660
" />
<path d="M64200 36000
L62700 36000
" />
<text x="63450" y="35900"
textLength="540" font-size="660" lengthAdjust="spacingAndGlyphs"
text-anchor="middle" opacity="0">7</text>
<path d="M63280 35370
L63610 35370
L63400 35870
" />
</g>
<g style="fill:#008484; fill-opacity:0.0; 
stroke:#008484; stroke-width:60; stroke-opacity:1; 
stroke-linecap:round; stroke-linejoin:round;">
<text x="64700" y="33720"
textLength="920" font-size="660" lengthAdjust="spacingAndGlyphs"
text-anchor="middle" opacity="0">J1</text>
<path d="M64530 33190
L64530 33550
L64500 33620
L64460 33670
L64390 33690
L64340 33690
" />
<path d="M65030 33690
L64740 33690
" />
<path d="M64890 33690
L64890 33190
L64840 33260
L64790 33310
L64740 33330
" />
<text x="64700" y="34720"
textLength="6560" font-size="660" lengthAdjust="spacingAndGlyphs"
text-anchor="middle" opacity="0">Wire Solder Pads</text>
<path d="M61520 34190
L61640 34690
L61730 34330
L61830 34690
L61950 34190
" />
<path d="M62140 34690
L62140 34360
" />
<path d="M62140 34190
L62110 34220
L62140 34240
L62160 34220
L62140 34190
L62140 34240
" />
<path d="M62370 34690
L62370 34360
" />
<path d="M62370 34450
L62400 34410
L62420 34380
L62470 34360
L62520 34360
" />
<path d="M62870 34670
L62830 34690
L62730 34690
L62680 34670
L62660 34620
L62660 34430
L62680 34380
L62730 34360
L62830 34360
L62870 34380
L62900 34430
L62900 34480
L62660 34520
" />
<path d="M63470 34670
L63540 34690
L63660 34690
L63710 34670
L63730 34640
L63750 34600
L63750 34550
L63730 34500
L63710 34480
L63660 34450
L63560 34430
L63520 34410
L63490 34380
L63470 34330
L63470 34290
L63490 34240
L63520 34220
L63560 34190
L63680 34190
L63750 34220
" />
<path d="M64040 34690
L63990 34670
L63970 34640
L63950 34600
L63950 34450
L63970 34410
L63990 34380
L64040 34360
L64110 34360
L64160 34380
L64180 34410
L64210 34450
L64210 34600
L64180 34640
L64160 34670
L64110 34690
L64040 34690
" />
<path d="M64490 34690
L64450 34670
L64420 34620
L64420 34190
" />
<path d="M64900 34690
L64900 34190
" />
<path d="M64900 34670
L64850 34690
L64750 34690
L64710 34670
L64680 34640
L64660 34600
L64660 34450
L64680 34410
L64710 34380
L64750 34360
L64850 34360
L64900 34380
" />
<path d="M65330 34670
L65280 34690
L65180 34690
L65140 34670
L65110 34620
L65110 34430
L65140 34380
L65180 34360
L65280 34360
L65330 34380
L65350 34430
L65350 34480
L65110 34520
" />
<path d="M65560 34690
L65560 34360
" />
<path d="M65560 34450
L65590 34410
L65610 34380
L65660 34360
L65710 34360
" />
<path d="M66250 34690
L66250 34190
L66450 34190
L66490 34220
L66520 34240
L66540 34290
L66540 34360
L66520 34410
L66490 34430
L66450 34450
L66250 34450
" />
<path d="M66970 34690
L66970 34430
L66950 34380
L66900 34360
L66800 34360
L66750 34380
" />
<path d="M66970 34670
L66920 34690
L66800 34690
L66750 34670
L66730 34620
L66730 34570
L66750 34520
L66800 34500
L66920 34500
L66970 34480
" />
<path d="M67420 34690
L67420 34190
" />
<path d="M67420 34670
L67370 34690
L67280 34690
L67230 34670
L67210 34640
L67180 34600
L67180 34450
L67210 34410
L67230 34380
L67280 34360
L67370 34360
L67420 34380
" />
<path d="M67640 34670
L67680 34690
L67780 34690
L67830 34670
L67850 34620
L67850 34600
L67830 34550
L67780 34520
L67710 34520
L67660 34500
L67640 34450
L67640 34430
L67660 34380
L67710 34360
L67780 34360
L67830 34380
" />
</g>
</g>
<g style="fill:#008484; fill-opacity:0.0; 
stroke:#008484; stroke-width:60; stroke-opacity:1; 
stroke-linecap:round; stroke-linejoin:round;">
</g>
<g style="fill:#0000C2; fill-opacity:0.0; 
stroke:#0000C2; stroke-width:60; stroke-opacity:1; 
stroke-linecap:round; stroke-linejoin:round;">
</g>
<g style="fill:#0000C2; fill-opacity:0.0; 
stroke:#0000C2; stroke-width:60; stroke-opacity:1; 
stroke-linecap:round; stroke-linejoin:round;stroke-dasharray:150,150;">
<path d="M65000 42000
L72300 42000
" />
</g>
<g style="fill:#0000C2; fill-opacity:0.0; 
stroke:#0000C2; stroke-width:60; stroke-opacity:1; 
stroke-linecap:round; stroke-linejoin:round;">
</g>
<g style="fill:#0000C2; fill-opacity:0.0; 
stroke:#0000C2; stroke-width:60; stroke-opacity:1; 
stroke-linecap:round; stroke-linejoin:round;stroke-dasharray:150,150;">
<path d="M66200 41000
L72300 41000
" />
</g>
<g style="fill:#0000C2; fill-opacity:0.0; 
stroke:#0000C2; stroke-width:60; stroke-opacity:1; 
stroke-linecap:round; stroke-linejoin:round;">
</g>
<g style="fill:#0000C2; fill-opacity:0.0; 
stroke:#0000C2; stroke-width:60; stroke-opacity:1; 
stroke-linecap:round; stroke-linejoin:round;stroke-dasharray:150,150;">
<path d="M65000 40000
L72300 40000
" />
</g>
<g style="fill:#0000C2; fill-opacity:0.0; 
stroke:#0000C2; stroke-width:60; stroke-opacity:1; 
stroke-linecap:round; stroke-linejoin:round;">
</g>
<g style="fill:#0000C2; fill-opacity:0.0; 
stroke:#0000C2; stroke-width:60; stroke-opacity:1; 
stroke-linecap:round; stroke-linejoin:round;stroke-dasharray:150,150;">
<path d="M66200 39000
L72300 39000
" />
</g>
<g style="fill:#0000C2; fill-opacity:0.0; 
stroke:#0000C2; stroke-width:60; stroke-opacity:1; 
stroke-linecap:round; stroke-linejoin:round;">
</g>
<g style="fill:#0000C2; fill-opacity:0.0; 
stroke:#0000C2; stroke-width:60; stroke-opacity:1; 
stroke-linecap:round; stroke-linejoin:round;stroke-dasharray:150,150;">
<path d="M65000 38000
L72300 38000
" />
</g>
<g style="fill:#0000C2; fill-opacity:0.0; 
stroke:#0000C2; stroke-width:60; stroke-opacity:1; 
stroke-linecap:round; stroke-linejoin:round;">
</g>
<g style="fill:#0000C2; fill-opacity:0.0; 
stroke:#0000C2; stroke-width:60; stroke-opacity:1; 
stroke-linecap:round; stroke-linejoin:round;stroke-dasharray:150,150;">
<path d="M66200 37000
L72300 37000
" />
</g>
<g style="fill:#0000C2; fill-opacity:0.0; 
stroke:#0000C2; stroke-width:60; stroke-opacity:1; 
stroke-linecap:round; stroke-linejoin:round;">
</g>
<g style="fill:#0000C2; fill-opacity:0.0; 
stroke:#0000C2; stroke-width:60; stroke-opacity:1; 
stroke-linecap:round; stroke-linejoin:round;stroke-dasharray:150,150;">
<path d="M65000 36000
L72300 36000
" />
</g>
<g style="fill:#0000C2; fill-opacity:0.0; 
stroke:#0000C2; stroke-width:60; stroke-opacity:1; 
stroke-linecap:round; stroke-linejoin:round;">
</g>
<g style="fill:#008400; fill-opacity:0.0; 
stroke:#008400; stroke-width:60; stroke-opacity:1; 
stroke-linecap:round; stroke-linejoin:round;">
<path d="M49000 34000
L34000 34000
" />
<path d="M34000 39000
L36000 39000
" />
<path d="M45000 29500
L45000 38000
" />
<path d="M35000 41000
L35000 45000
" />
<path d="M36000 41000
L35000 41000
" />
<path d="M34000 40000
L36000 40000
" />
<path d="M34000 46000
L34000 40000
" />
<path d="M58000 40000
L58000 46000
" />
<path d="M45000 40000
L45000 44000
" />
<path d="M60000 36000
L62700 36000
" />
<path d="M45000 40000
L41000 40000
" />
<path d="M45000 44000
L49000 44000
" />
<path d="M49000 39000
L41000 39000
" />
<path d="M45000 38000
L41000 38000
" />
<path d="M34900 30500
L34900 38000
" />
<path d="M47000 30500
L34900 30500
" />
<path d="M51000 30500
L60000 30500
" />
<path d="M47000 30500
L51000 30500
" />
<path d="M35000 45000
L60000 45000
" />
<path d="M60000 30500
L60000 36000
" />
<path d="M62700 37000
L59000 37000
" />
<path d="M62700 38000
L58000 38000
" />
<path d="M62700 40000
L58000 40000
" />
<path d="M62700 41000
L59000 41000
" />
<path d="M62700 42000
L60000 42000
" />
<path d="M53000 39000
L62700 39000
" />
<path d="M34000 46000
L58000 46000
" />
<path d="M36000 38000
L34900 38000
" />
<path d="M51000 35500
L47000 35500
" />
<path d="M47000 30500
L47000 35500
" />
<path d="M47000 40500
L51000 40500
" />
<path d="M47000 35500
L47000 40500
" />
<path d="M53000 34000
L58000 34000
" />
<path d="M34000 34000
L34000 39000
" />
<path d="M59000 41000
L59000 44000
" />
<path d="M53000 44000
L59000 44000
" />
<path d="M60000 42000
L60000 45000
" />
<path d="M59000 29500
L59000 37000
" />
<path d="M45000 29500
L59000 29500
" />
<path d="M58000 34000
L58000 38000
" />
</g>
<g style="fill:#000000; fill-opacity:0.0; 
stroke:#000000; stroke-width:60; stroke-opacity:1; 
stroke-linecap:round; stroke-linejoin:round;">
<text x="36000" y="37900"
textLength="1040" font-size="660" lengthAdjust="spacingAndGlyphs"
text-anchor="end" opacity="0">SG</text>
<path d="M35080 37850
L35160 37870
L35270 37870
L35320 37850
L35350 37820
L35370 37780
L35370 37730
L35350 37680
L35320 37660
L35270 37630
L35180 37610
L35130 37590
L35110 37560
L35080 37510
L35080 37470
L35110 37420
L35130 37400
L35180 37370
L35300 37370
L35370 37400
" />
<path d="M35850 37400
L35800 37370
L35730 37370
L35660 37400
L35610 37440
L35580 37490
L35560 37590
L35560 37660
L35580 37750
L35610 37800
L35660 37850
L35730 37870
L35770 37870
L35850 37850
L35870 37820
L35870 37660
L35770 37660
" />
<text x="62700" y="39900"
textLength="1440" font-size="660" lengthAdjust="spacingAndGlyphs"
text-anchor="end" opacity="0">DTR</text>
<path d="M61400 39870
L61400 39370
L61520 39370
L61590 39400
L61640 39440
L61670 39490
L61690 39590
L61690 39660
L61670 39750
L61640 39800
L61590 39850
L61520 39870
L61400 39870
" />
<path d="M61830 39370
L62120 39370
" />
<path d="M61970 39870
L61970 39370
" />
<path d="M62570 39870
L62400 39630
" />
<path d="M62280 39870
L62280 39370
L62470 39370
L62520 39400
L62550 39420
L62570 39470
L62570 39540
L62550 39590
L62520 39610
L62470 39630
L62280 39630
" />
<text x="62700" y="35900"
textLength="1040" font-size="660" lengthAdjust="spacingAndGlyphs"
text-anchor="end" opacity="0">SG</text>
<path d="M61780 35850
L61860 35870
L61970 35870
L62020 35850
L62050 35820
L62070 35780
L62070 35730
L62050 35680
L62020 35660
L61970 35630
L61880 35610
L61830 35590
L61810 35560
L61780 35510
L61780 35470
L61810 35420
L61830 35400
L61880 35370
L62000 35370
L62070 35400
" />
<path d="M62550 35400
L62500 35370
L62430 35370
L62360 35400
L62310 35440
L62280 35490
L62260 35590
L62260 35660
L62280 35750
L62310 35800
L62360 35850
L62430 35870
L62470 35870
L62550 35850
L62570 35820
L62570 35660
L62470 35660
" />
<text x="62700" y="37900"
textLength="1540" font-size="660" lengthAdjust="spacingAndGlyphs"
text-anchor="end" opacity="0">DSR</text>
<path d="M61310 37870
L61310 37370
L61430 37370
L61500 37400
L61550 37440
L61570 37490
L61590 37590
L61590 37660
L61570 37750
L61550 37800
L61500 37850
L61430 37870
L61310 37870
" />
<path d="M61780 37850
L61860 37870
L61970 37870
L62020 37850
L62050 37820
L62070 37780
L62070 37730
L62050 37680
L62020 37660
L61970 37630
L61880 37610
L61830 37590
L61810 37560
L61780 37510
L61780 37470
L61810 37420
L61830 37400
L61880 37370
L62000 37370
L62070 37400
" />
<path d="M62570 37870
L62400 37630
" />
<path d="M62280 37870
L62280 37370
L62470 37370
L62520 37400
L62550 37420
L62570 37470
L62570 37540
L62550 37590
L62520 37610
L62470 37630
L62280 37630
" />
<text x="62700" y="38900"
textLength="1420" font-size="660" lengthAdjust="spacingAndGlyphs"
text-anchor="end" opacity="0">CTS</text>
<path d="M61710 38820
L61690 38850
L61620 38870
L61570 38870
L61500 38850
L61450 38800
L61430 38750
L61400 38660
L61400 38590
L61430 38490
L61450 38440
L61500 38400
L61570 38370
L61620 38370
L61690 38400
L61710 38420
" />
<path d="M61860 38370
L62140 38370
" />
<path d="M62000 38870
L62000 38370
" />
<path d="M62280 38850
L62360 38870
L62470 38870
L62520 38850
L62550 38820
L62570 38780
L62570 38730
L62550 38680
L62520 38660
L62470 38630
L62380 38610
L62330 38590
L62310 38560
L62280 38510
L62280 38470
L62310 38420
L62330 38400
L62380 38370
L62500 38370
L62570 38400
" />
<text x="62700" y="36900"
textLength="1420" font-size="660" lengthAdjust="spacingAndGlyphs"
text-anchor="end" opacity="0">RTS</text>
<path d="M61710 36870
L61550 36630
" />
<path d="M61430 36870
L61430 36370
L61620 36370
L61670 36400
L61690 36420
L61710 36470
L61710 36540
L61690 36590
L61670 36610
L61620 36630
L61430 36630
" />
<path d="M61860 36370
L62140 36370
" />
<path d="M62000 36870
L62000 36370
" />
<path d="M62280 36850
L62360 36870
L62470 36870
L62520 36850
L62550 36820
L62570 36780
L62570 36730
L62550 36680
L62520 36660
L62470 36630
L62380 36610
L62330 36590
L62310 36560
L62280 36510
L62280 36470
L62310 36420
L62330 36400
L62380 36370
L62500 36370
L62570 36400
" />
<text x="62700" y="40900"
textLength="1040" font-size="660" lengthAdjust="spacingAndGlyphs"
text-anchor="end" opacity="0">RX</text>
<path d="M62090 40870
L61930 40630
" />
<path d="M61810 40870
L61810 40370
L62000 40370
L62050 40400
L62070 40420
L62090 40470
L62090 40540
L62070 40590
L62050 40610
L62000 40630
L61810 40630
" />
<path d="M62260 40370
L62590 40870
" />
<path d="M62590 40370
L62260 40870
" />
<text x="62700" y="41900"
textLength="920" font-size="660" lengthAdjust="spacingAndGlyphs"
text-anchor="end" opacity="0">TX</text>
<path d="M61860 41370
L62140 41370
" />
<path d="M62000 41870
L62000 41370
" />
<path d="M62260 41370
L62590 41870
" />
<path d="M62590 41370
L62260 41870
" />
<text x="36000" y="40900"
textLength="920" font-size="660" lengthAdjust="spacingAndGlyphs"
text-anchor="end" opacity="0">TX</text>
<path d="M35160 40370
L35440 40370
" />
<path d="M35300 40870
L35300 40370
" />
<path d="M35560 40370
L35890 40870
" />
<path d="M35890 40370
L35560 40870
" />
<text x="41000" y="39900"
textLength="2580" font-size="660" lengthAdjust="spacingAndGlyphs"
text-anchor="start" opacity="0">RX_TTL</text>
<path d="M41430 39870
L41260 39630
" />
<path d="M41140 39870
L41140 39370
L41330 39370
L41380 39400
L41410 39420
L41430 39470
L41430 39540
L41410 39590
L41380 39610
L41330 39630
L41140 39630
" />
<path d="M41600 39370
L41930 39870
" />
<path d="M41930 39370
L41600 39870
" />
<path d="M42000 39920
L42380 39920
" />
<path d="M42430 39370
L42720 39370
" />
<path d="M42570 39870
L42570 39370
" />
<path d="M42810 39370
L43100 39370
" />
<path d="M42950 39870
L42950 39370
" />
<path d="M43500 39870
L43260 39870
L43260 39370
" />
<text x="36000" y="39900"
textLength="1440" font-size="660" lengthAdjust="spacingAndGlyphs"
text-anchor="end" opacity="0">DTR</text>
<path d="M34700 39870
L34700 39370
L34820 39370
L34890 39400
L34940 39440
L34970 39490
L34990 39590
L34990 39660
L34970 39750
L34940 39800
L34890 39850
L34820 39870
L34700 39870
" />
<path d="M35130 39370
L35420 39370
" />
<path d="M35270 39870
L35270 39370
" />
<path d="M35870 39870
L35700 39630
" />
<path d="M35580 39870
L35580 39370
L35770 39370
L35820 39400
L35850 39420
L35870 39470
L35870 39540
L35850 39590
L35820 39610
L35770 39630
L35580 39630
" />
<text x="36000" y="38900"
textLength="3080" font-size="660" lengthAdjust="spacingAndGlyphs"
text-anchor="end" opacity="0">DSR_TTL</text>
<path d="M33060 38870
L33060 38370
L33180 38370
L33250 38400
L33300 38440
L33320 38490
L33350 38590
L33350 38660
L33320 38750
L33300 38800
L33250 38850
L33180 38870
L33060 38870
" />
<path d="M33540 38850
L33610 38870
L33730 38870
L33770 38850
L33800 38820
L33820 38780
L33820 38730
L33800 38680
L33770 38660
L33730 38630
L33630 38610
L33580 38590
L33560 38560
L33540 38510
L33540 38470
L33560 38420
L33580 38400
L33630 38370
L33750 38370
L33820 38400
" />
<path d="M34320 38870
L34160 38630
" />
<path d="M34040 38870
L34040 38370
L34230 38370
L34270 38400
L34300 38420
L34320 38470
L34320 38540
L34300 38590
L34270 38610
L34230 38630
L34040 38630
" />
<path d="M34420 38920
L34800 38920
" />
<path d="M34850 38370
L35130 38370
" />
<path d="M34990 38870
L34990 38370
" />
<path d="M35230 38370
L35510 38370
" />
<path d="M35370 38870
L35370 38370
" />
<path d="M35920 38870
L35680 38870
L35680 38370
" />
<text x="41000" y="37900"
textLength="1420" font-size="660" lengthAdjust="spacingAndGlyphs"
text-anchor="start" opacity="0">RTS</text>
<path d="M41430 37870
L41260 37630
" />
<path d="M41140 37870
L41140 37370
L41330 37370
L41380 37400
L41410 37420
L41430 37470
L41430 37540
L41410 37590
L41380 37610
L41330 37630
L41140 37630
" />
<path d="M41570 37370
L41860 37370
" />
<path d="M41720 37870
L41720 37370
" />
<path d="M42000 37850
L42070 37870
L42190 37870
L42240 37850
L42260 37820
L42290 37780
L42290 37730
L42260 37680
L42240 37660
L42190 37630
L42100 37610
L42050 37590
L42030 37560
L42000 37510
L42000 37470
L42030 37420
L42050 37400
L42100 37370
L42220 37370
L42290 37400
" />
<text x="41000" y="38900"
textLength="2960" font-size="660" lengthAdjust="spacingAndGlyphs"
text-anchor="start" opacity="0">CTS_TTL</text>
<path d="M41430 38820
L41410 38850
L41330 38870
L41290 38870
L41220 38850
L41170 38800
L41140 38750
L41120 38660
L41120 38590
L41140 38490
L41170 38440
L41220 38400
L41290 38370
L41330 38370
L41410 38400
L41430 38420
" />
<path d="M41570 38370
L41860 38370
" />
<path d="M41720 38870
L41720 38370
" />
<path d="M42000 38850
L42070 38870
L42190 38870
L42240 38850
L42260 38820
L42290 38780
L42290 38730
L42260 38680
L42240 38660
L42190 38630
L42100 38610
L42050 38590
L42030 38560
L42000 38510
L42000 38470
L42030 38420
L42050 38400
L42100 38370
L42220 38370
L42290 38400
" />
<path d="M42380 38920
L42760 38920
" />
<path d="M42810 38370
L43100 38370
" />
<path d="M42950 38870
L42950 38370
" />
<path d="M43190 38370
L43480 38370
" />
<path d="M43330 38870
L43330 38370
" />
<path d="M43880 38870
L43640 38870
L43640 38370
" />
<text x="49000" y="43900"
textLength="2580" font-size="660" lengthAdjust="spacingAndGlyphs"
text-anchor="end" opacity="0">RX_TTL</text>
<path d="M46850 43870
L46680 43630
" />
<path d="M46560 43870
L46560 43370
L46750 43370
L46800 43400
L46820 43420
L46850 43470
L46850 43540
L46820 43590
L46800 43610
L46750 43630
L46560 43630
" />
<path d="M47010 43370
L47350 43870
" />
<path d="M47350 43370
L47010 43870
" />
<path d="M47420 43920
L47800 43920
" />
<path d="M47850 43370
L48130 43370
" />
<path d="M47990 43870
L47990 43370
" />
<path d="M48230 43370
L48510 43370
" />
<path d="M48370 43870
L48370 43370
" />
<path d="M48920 43870
L48680 43870
L48680 43370
" />
<text x="49000" y="38900"
textLength="2960" font-size="660" lengthAdjust="spacingAndGlyphs"
text-anchor="end" opacity="0">CTS_TTL</text>
<path d="M46470 38820
L46440 38850
L46370 38870
L46320 38870
L46250 38850
L46200 38800
L46180 38750
L46160 38660
L46160 38590
L46180 38490
L46200 38440
L46250 38400
L46320 38370
L46370 38370
L46440 38400
L46470 38420
" />
<path d="M46610 38370
L46890 38370
" />
<path d="M46750 38870
L46750 38370
" />
<path d="M47040 38850
L47110 38870
L47230 38870
L47270 38850
L47300 38820
L47320 38780
L47320 38730
L47300 38680
L47270 38660
L47230 38630
L47130 38610
L47080 38590
L47060 38560
L47040 38510
L47040 38470
L47060 38420
L47080 38400
L47130 38370
L47250 38370
L47320 38400
" />
<path d="M47420 38920
L47800 38920
" />
<path d="M47850 38370
L48130 38370
" />
<path d="M47990 38870
L47990 38370
" />
<path d="M48230 38370
L48510 38370
" />
<path d="M48370 38870
L48370 38370
" />
<path d="M48920 38870
L48680 38870
L48680 38370
" />
<text x="49000" y="33900"
textLength="3080" font-size="660" lengthAdjust="spacingAndGlyphs"
text-anchor="end" opacity="0">DSR_TTL</text>
<path d="M46060 33870
L46060 33370
L46180 33370
L46250 33400
L46300 33440
L46320 33490
L46350 33590
L46350 33660
L46320 33750
L46300 33800
L46250 33850
L46180 33870
L46060 33870
" />
<path d="M46540 33850
L46610 33870
L46730 33870
L46770 33850
L46800 33820
L46820 33780
L46820 33730
L46800 33680
L46770 33660
L46730 33630
L46630 33610
L46580 33590
L46560 33560
L46540 33510
L46540 33470
L46560 33420
L46580 33400
L46630 33370
L46750 33370
L46820 33400
" />
<path d="M47320 33870
L47160 33630
" />
<path d="M47040 33870
L47040 33370
L47230 33370
L47270 33400
L47300 33420
L47320 33470
L47320 33540
L47300 33590
L47270 33610
L47230 33630
L47040 33630
" />
<path d="M47420 33920
L47800 33920
" />
<path d="M47850 33370
L48130 33370
" />
<path d="M47990 33870
L47990 33370
" />
<path d="M48230 33370
L48510 33370
" />
<path d="M48370 33870
L48370 33370
" />
<path d="M48920 33870
L48680 33870
L48680 33370
" />
<text x="53000" y="33900"
textLength="1540" font-size="660" lengthAdjust="spacingAndGlyphs"
text-anchor="start" opacity="0">DSR</text>
<path d="M53140 33870
L53140 33370
L53260 33370
L53330 33400
L53380 33440
L53410 33490
L53430 33590
L53430 33660
L53410 33750
L53380 33800
L53330 33850
L53260 33870
L53140 33870
" />
<path d="M53620 33850
L53690 33870
L53810 33870
L53860 33850
L53880 33820
L53910 33780
L53910 33730
L53880 33680
L53860 33660
L53810 33630
L53720 33610
L53670 33590
L53640 33560
L53620 33510
L53620 33470
L53640 33420
L53670 33400
L53720 33370
L53830 33370
L53910 33400
" />
<path d="M54410 33870
L54240 33630
" />
<path d="M54120 33870
L54120 33370
L54310 33370
L54360 33400
L54380 33420
L54410 33470
L54410 33540
L54380 33590
L54360 33610
L54310 33630
L54120 33630
" />
<text x="53000" y="38900"
textLength="1420" font-size="660" lengthAdjust="spacingAndGlyphs"
text-anchor="start" opacity="0">CTS</text>
<path d="M53430 38820
L53410 38850
L53330 38870
L53290 38870
L53220 38850
L53170 38800
L53140 38750
L53120 38660
L53120 38590
L53140 38490
L53170 38440
L53220 38400
L53290 38370
L53330 38370
L53410 38400
L53430 38420
" />
<path d="M53570 38370
L53860 38370
" />
<path d="M53720 38870
L53720 38370
" />
<path d="M54000 38850
L54070 38870
L54190 38870
L54240 38850
L54260 38820
L54290 38780
L54290 38730
L54260 38680
L54240 38660
L54190 38630
L54100 38610
L54050 38590
L54030 38560
L54000 38510
L54000 38470
L54030 38420
L54050 38400
L54100 38370
L54220 38370
L54290 38400
" />
<text x="53000" y="43900"
textLength="1040" font-size="660" lengthAdjust="spacingAndGlyphs"
text-anchor="start" opacity="0">RX</text>
<path d="M53430 43870
L53260 43630
" />
<path d="M53140 43870
L53140 43370
L53330 43370
L53380 43400
L53410 43420
L53430 43470
L53430 43540
L53410 43590
L53380 43610
L53330 43630
L53140 43630
" />
<path d="M53600 43370
L53930 43870
" />
<path d="M53930 43370
L53600 43870
" />
</g>
<g style="fill:#0000C2; fill-opacity:0.0; 
stroke:#0000C2; stroke-width:60; stroke-opacity:1; 
stroke-linecap:round; stroke-linejoin:round;">
<text x="71600" y="35000"
textLength="4110" font-size="660" lengthAdjust="spacingAndGlyphs"
text-anchor="start" opacity="0">DB25 Male</text>
<path d="M71740 34970
L71740 34470
L71860 34470
L71930 34500
L71980 34540
L72010 34590
L72030 34690
L72030 34760
L72010 34850
L71980 34900
L71930 34950
L71860 34970
L71740 34970
" />
<path d="M72410 34710
L72480 34730
L72510 34760
L72530 34800
L72530 34880
L72510 34920
L72480 34950
L72430 34970
L72240 34970
L72240 34470
L72410 34470
L72460 34500
L72480 34520
L72510 34570
L72510 34610
L72480 34660
L72460 34690
L72410 34710
L72240 34710
" />
<path d="M72720 34520
L72740 34500
L72790 34470
L72910 34470
L72960 34500
L72980 34520
L73010 34570
L73010 34610
L72980 34690
L72700 34970
L73010 34970
" />
<path d="M73460 34470
L73220 34470
L73200 34710
L73220 34690
L73270 34660
L73390 34660
L73430 34690
L73460 34710
L73480 34760
L73480 34880
L73460 34920
L73430 34950
L73390 34970
L73270 34970
L73220 34950
L73200 34920
" />
<path d="M74080 34970
L74080 34470
L74240 34830
L74410 34470
L74410 34970
" />
<path d="M74860 34970
L74860 34710
L74840 34660
L74790 34640
L74700 34640
L74650 34660
" />
<path d="M74860 34950
L74820 34970
L74700 34970
L74650 34950
L74630 34900
L74630 34850
L74650 34800
L74700 34780
L74820 34780
L74860 34760
" />
<path d="M75170 34970
L75130 34950
L75100 34900
L75100 34470
" />
<path d="M75550 34950
L75510 34970
L75410 34970
L75360 34950
L75340 34900
L75340 34710
L75360 34660
L75410 34640
L75510 34640
L75550 34660
L75580 34710
L75580 34760
L75340 34800
" />
<text x="72600" y="36200"
textLength="1890" font-size="660" lengthAdjust="spacingAndGlyphs"
text-anchor="start" opacity="0">7 SG</text>
<path d="M72700 35670
L73030 35670
L72820 36170
" />
<path d="M73580 36150
L73650 36170
L73770 36170
L73820 36150
L73840 36120
L73860 36080
L73860 36030
L73840 35980
L73820 35960
L73770 35930
L73670 35910
L73630 35890
L73600 35860
L73580 35810
L73580 35770
L73600 35720
L73630 35700
L73670 35670
L73790 35670
L73860 35700
" />
<path d="M74340 35700
L74290 35670
L74220 35670
L74150 35700
L74100 35740
L74080 35790
L74050 35890
L74050 35960
L74080 36050
L74100 36100
L74150 36150
L74220 36170
L74270 36170
L74340 36150
L74360 36120
L74360 35960
L74270 35960
" />
<text x="72600" y="37200"
textLength="2270" font-size="660" lengthAdjust="spacingAndGlyphs"
text-anchor="start" opacity="0">4 CTS</text>
<path d="M72960 36840
L72960 37170
" />
<path d="M72840 36650
L72720 37000
L73030 37000
" />
<path d="M73890 37120
L73860 37150
L73790 37170
L73740 37170
L73670 37150
L73630 37100
L73600 37050
L73580 36960
L73580 36890
L73600 36790
L73630 36740
L73670 36700
L73740 36670
L73790 36670
L73860 36700
L73890 36720
" />
<path d="M74030 36670
L74320 36670
" />
<path d="M74170 37170
L74170 36670
" />
<path d="M74460 37150
L74530 37170
L74650 37170
L74700 37150
L74720 37120
L74740 37080
L74740 37030
L74720 36980
L74700 36960
L74650 36930
L74550 36910
L74510 36890
L74480 36860
L74460 36810
L74460 36770
L74480 36720
L74510 36700
L74550 36670
L74670 36670
L74740 36700
" />
<text x="72600" y="38200"
textLength="2300" font-size="660" lengthAdjust="spacingAndGlyphs"
text-anchor="start" opacity="0">6 DTR</text>
<path d="M72960 37670
L72860 37670
L72820 37700
L72790 37720
L72740 37790
L72720 37890
L72720 38080
L72740 38120
L72770 38150
L72820 38170
L72910 38170
L72960 38150
L72980 38120
L73010 38080
L73010 37960
L72980 37910
L72960 37890
L72910 37860
L72820 37860
L72770 37890
L72740 37910
L72720 37960
" />
<path d="M73600 38170
L73600 37670
L73720 37670
L73790 37700
L73840 37740
L73860 37790
L73890 37890
L73890 37960
L73860 38050
L73840 38100
L73790 38150
L73720 38170
L73600 38170
" />
<path d="M74030 37670
L74320 37670
" />
<path d="M74170 38170
L74170 37670
" />
<path d="M74770 38170
L74600 37930
" />
<path d="M74480 38170
L74480 37670
L74670 37670
L74720 37700
L74740 37720
L74770 37770
L74770 37840
L74740 37890
L74720 37910
L74670 37930
L74480 37930
" />
<text x="72600" y="39200"
textLength="2270" font-size="660" lengthAdjust="spacingAndGlyphs"
text-anchor="start" opacity="0">5 RTS</text>
<path d="M72980 38670
L72740 38670
L72720 38910
L72740 38890
L72790 38860
L72910 38860
L72960 38890
L72980 38910
L73010 38960
L73010 39080
L72980 39120
L72960 39150
L72910 39170
L72790 39170
L72740 39150
L72720 39120
" />
<path d="M73890 39170
L73720 38930
" />
<path d="M73600 39170
L73600 38670
L73790 38670
L73840 38700
L73860 38720
L73890 38770
L73890 38840
L73860 38890
L73840 38910
L73790 38930
L73600 38930
" />
<path d="M74030 38670
L74320 38670
" />
<path d="M74170 39170
L74170 38670
" />
<path d="M74460 39150
L74530 39170
L74650 39170
L74700 39150
L74720 39120
L74740 39080
L74740 39030
L74720 38980
L74700 38960
L74650 38930
L74550 38910
L74510 38890
L74480 38860
L74460 38810
L74460 38770
L74480 38720
L74510 38700
L74550 38670
L74670 38670
L74740 38700
" />
<text x="65500" y="44060"
textLength="10420" font-size="660" lengthAdjust="spacingAndGlyphs"
text-anchor="start" opacity="0">DE9F-DB25M Modem cable</text>
<path d="M65640 44030
L65640 43530
L65760 43530
L65830 43560
L65880 43600
L65910 43650
L65930 43750
L65930 43820
L65910 43910
L65880 43960
L65830 44010
L65760 44030
L65640 44030
" />
<path d="M66140 43770
L66310 43770
" />
<path d="M66380 44030
L66140 44030
L66140 43530
L66380 43530
" />
<path d="M66620 44030
L66720 44030
L66760 44010
L66790 43980
L66830 43910
L66860 43820
L66860 43630
L66830 43580
L66810 43560
L66760 43530
L66670 43530
L66620 43560
L66600 43580
L66570 43630
L66570 43750
L66600 43790
L66620 43820
L66670 43840
L66760 43840
L66810 43820
L66830 43790
L66860 43750
" />
<path d="M67240 43770
L67070 43770
" />
<path d="M67070 44030
L67070 43530
L67310 43530
" />
<path d="M67500 43840
L67880 43840
" />
<path d="M68120 44030
L68120 43530
L68240 43530
L68310 43560
L68360 43600
L68380 43650
L68410 43750
L68410 43820
L68380 43910
L68360 43960
L68310 44010
L68240 44030
L68120 44030
" />
<path d="M68790 43770
L68860 43790
L68880 43820
L68910 43860
L68910 43940
L68880 43980
L68860 44010
L68810 44030
L68620 44030
L68620 43530
L68790 43530
L68830 43560
L68860 43580
L68880 43630
L68880 43670
L68860 43720
L68830 43750
L68790 43770
L68620 43770
" />
<path d="M69100 43580
L69120 43560
L69170 43530
L69290 43530
L69330 43560
L69360 43580
L69380 43630
L69380 43670
L69360 43750
L69070 44030
L69380 44030
" />
<path d="M69830 43530
L69600 43530
L69570 43770
L69600 43750
L69640 43720
L69760 43720
L69810 43750
L69830 43770
L69860 43820
L69860 43940
L69830 43980
L69810 44010
L69760 44030
L69640 44030
L69600 44010
L69570 43980
" />
<path d="M70070 44030
L70070 43530
L70240 43890
L70410 43530
L70410 44030
" />
<path d="M71030 44030
L71030 43530
L71190 43890
L71360 43530
L71360 44030
" />
<path d="M71670 44030
L71620 44010
L71600 43980
L71570 43940
L71570 43790
L71600 43750
L71620 43720
L71670 43700
L71740 43700
L71790 43720
L71810 43750
L71830 43790
L71830 43940
L71810 43980
L71790 44010
L71740 44030
L71670 44030
" />
<path d="M72260 44030
L72260 43530
" />
<path d="M72260 44010
L72220 44030
L72120 44030
L72070 44010
L72050 43980
L72030 43940
L72030 43790
L72050 43750
L72070 43720
L72120 43700
L72220 43700
L72260 43720
" />
<path d="M72690 44010
L72640 44030
L72550 44030
L72500 44010
L72480 43960
L72480 43770
L72500 43720
L72550 43700
L72640 43700
L72690 43720
L72720 43770
L72720 43820
L72480 43860
" />
<path d="M72930 44030
L72930 43700
" />
<path d="M72930 43750
L72950 43720
L73000 43700
L73070 43700
L73120 43720
L73140 43770
L73140 44030
" />
<path d="M73140 43770
L73170 43720
L73220 43700
L73290 43700
L73330 43720
L73360 43770
L73360 44030
" />
<path d="M74190 44010
L74140 44030
L74050 44030
L74000 44010
L73980 43980
L73950 43940
L73950 43790
L73980 43750
L74000 43720
L74050 43700
L74140 43700
L74190 43720
" />
<path d="M74620 44030
L74620 43770
L74600 43720
L74550 43700
L74450 43700
L74410 43720
" />
<path d="M74620 44010
L74570 44030
L74450 44030
L74410 44010
L74380 43960
L74380 43910
L74410 43860
L74450 43840
L74570 43840
L74620 43820
" />
<path d="M74860 44030
L74860 43530
" />
<path d="M74860 43720
L74910 43700
L75000 43700
L75050 43720
L75070 43750
L75100 43790
L75100 43940
L75070 43980
L75050 44010
L75000 44030
L74910 44030
L74860 44010
" />
<path d="M75380 44030
L75330 44010
L75310 43960
L75310 43530
" />
<path d="M75760 44010
L75720 44030
L75620 44030
L75570 44010
L75550 43960
L75550 43770
L75570 43720
L75620 43700
L75720 43700
L75760 43720
L75790 43770
L75790 43820
L75550 43860
" />
<text x="65500" y="44870"
textLength="7180" font-size="660" lengthAdjust="spacingAndGlyphs"
text-anchor="start" opacity="0">Cut off DE9F plug.</text>
<path d="M65930 44790
L65910 44820
L65830 44840
L65790 44840
L65720 44820
L65670 44770
L65640 44720
L65620 44630
L65620 44560
L65640 44460
L65670 44410
L65720 44370
L65790 44340
L65830 44340
L65910 44370
L65930 44390
" />
<path d="M66360 44510
L66360 44840
" />
<path d="M66140 44510
L66140 44770
L66170 44820
L66220 44840
L66290 44840
L66330 44820
L66360 44790
" />
<path d="M66530 44510
L66720 44510
" />
<path d="M66600 44340
L66600 44770
L66620 44820
L66670 44840
L66720 44840
" />
<path d="M67330 44840
L67290 44820
L67260 44790
L67240 44750
L67240 44600
L67260 44560
L67290 44530
L67330 44510
L67410 44510
L67450 44530
L67480 44560
L67500 44600
L67500 44750
L67480 44790
L67450 44820
L67410 44840
L67330 44840
" />
<path d="M67640 44510
L67830 44510
" />
<path d="M67720 44840
L67720 44410
L67740 44370
L67790 44340
L67830 44340
" />
<path d="M67930 44510
L68120 44510
" />
<path d="M68000 44840
L68000 44410
L68030 44370
L68070 44340
L68120 44340
" />
<path d="M68670 44840
L68670 44340
L68790 44340
L68860 44370
L68910 44410
L68930 44460
L68950 44560
L68950 44630
L68930 44720
L68910 44770
L68860 44820
L68790 44840
L68670 44840
" />
<path d="M69170 44580
L69330 44580
" />
<path d="M69410 44840
L69170 44840
L69170 44340
L69410 44340
" />
<path d="M69640 44840
L69740 44840
L69790 44820
L69810 44790
L69860 44720
L69880 44630
L69880 44440
L69860 44390
L69830 44370
L69790 44340
L69690 44340
L69640 44370
L69620 44390
L69600 44440
L69600 44560
L69620 44600
L69640 44630
L69690 44650
L69790 44650
L69830 44630
L69860 44600
L69880 44560
" />
<path d="M70260 44580
L70100 44580
" />
<path d="M70100 44840
L70100 44340
L70330 44340
" />
<path d="M70910 44510
L70910 45010
" />
<path d="M70910 44530
L70950 44510
L71050 44510
L71100 44530
L71120 44560
L71140 44600
L71140 44750
L71120 44790
L71100 44820
L71050 44840
L70950 44840
L70910 44820
" />
<path d="M71430 44840
L71380 44820
L71360 44770
L71360 44340
" />
<path d="M71830 44510
L71830 44840
" />
<path d="M71620 44510
L71620 44770
L71640 44820
L71690 44840
L71760 44840
L71810 44820
L71830 44790
" />
<path d="M72290 44510
L72290 44910
L72260 44960
L72240 44980
L72190 45010
L72120 45010
L72070 44980
" />
<path d="M72290 44820
L72240 44840
L72140 44840
L72100 44820
L72070 44790
L72050 44750
L72050 44600
L72070 44560
L72100 44530
L72140 44510
L72240 44510
L72290 44530
" />
<path d="M72530 44790
L72550 44820
L72530 44840
L72500 44820
L72530 44790
L72530 44840
" />
<text x="65500" y="45680"
textLength="7320" font-size="660" lengthAdjust="spacingAndGlyphs"
text-anchor="start" opacity="0">Solder wires to J1.</text>
<path d="M65620 45630
L65690 45650
L65810 45650
L65860 45630
L65880 45600
L65910 45560
L65910 45510
L65880 45460
L65860 45440
L65810 45410
L65720 45390
L65670 45370
L65640 45340
L65620 45290
L65620 45250
L65640 45200
L65670 45180
L65720 45150
L65830 45150
L65910 45180
" />
<path d="M66190 45650
L66140 45630
L66120 45600
L66100 45560
L66100 45410
L66120 45370
L66140 45340
L66190 45320
L66260 45320
L66310 45340
L66330 45370
L66360 45410
L66360 45560
L66330 45600
L66310 45630
L66260 45650
L66190 45650
" />
<path d="M66640 45650
L66600 45630
L66570 45580
L66570 45150
" />
<path d="M67050 45650
L67050 45150
" />
<path d="M67050 45630
L67000 45650
L66910 45650
L66860 45630
L66830 45600
L66810 45560
L66810 45410
L66830 45370
L66860 45340
L66910 45320
L67000 45320
L67050 45340
" />
<path d="M67480 45630
L67430 45650
L67330 45650
L67290 45630
L67260 45580
L67260 45390
L67290 45340
L67330 45320
L67430 45320
L67480 45340
L67500 45390
L67500 45440
L67260 45480
" />
<path d="M67720 45650
L67720 45320
" />
<path d="M67720 45410
L67740 45370
L67760 45340
L67810 45320
L67860 45320
" />
<path d="M68360 45320
L68450 45650
L68550 45410
L68640 45650
L68740 45320
" />
<path d="M68930 45650
L68930 45320
" />
<path d="M68930 45150
L68910 45180
L68930 45200
L68950 45180
L68930 45150
L68930 45200
" />
<path d="M69170 45650
L69170 45320
" />
<path d="M69170 45410
L69190 45370
L69220 45340
L69260 45320
L69310 45320
" />
<path d="M69670 45630
L69620 45650
L69530 45650
L69480 45630
L69450 45580
L69450 45390
L69480 45340
L69530 45320
L69620 45320
L69670 45340
L69690 45390
L69690 45440
L69450 45480
" />
<path d="M69880 45630
L69930 45650
L70030 45650
L70070 45630
L70100 45580
L70100 45560
L70070 45510
L70030 45480
L69950 45480
L69910 45460
L69880 45410
L69880 45390
L69910 45340
L69950 45320
L70030 45320
L70070 45340
" />
<path d="M70620 45320
L70810 45320
" />
<path d="M70690 45150
L70690 45580
L70720 45630
L70760 45650
L70810 45650
" />
<path d="M71050 45650
L71000 45630
L70980 45600
L70950 45560
L70950 45410
L70980 45370
L71000 45340
L71050 45320
L71120 45320
L71170 45340
L71190 45370
L71220 45410
L71220 45560
L71190 45600
L71170 45630
L71120 45650
L71050 45650
" />
<path d="M71950 45150
L71950 45510
L71930 45580
L71880 45630
L71810 45650
L71760 45650
" />
<path d="M72450 45650
L72170 45650
" />
<path d="M72310 45650
L72310 45150
L72260 45220
L72220 45270
L72170 45290
" />
<path d="M72670 45600
L72690 45630
L72670 45650
L72640 45630
L72670 45600
L72670 45650
" />
<text x="65500" y="46490"
textLength="12940" font-size="660" lengthAdjust="spacingAndGlyphs"
text-anchor="start" opacity="0">Match numbers on pcb silkscreen</text>
<path d="M65640 46460
L65640 45960
L65810 46320
L65980 45960
L65980 46460
" />
<path d="M66430 46460
L66430 46200
L66410 46150
L66360 46130
L66260 46130
L66220 46150
" />
<path d="M66430 46440
L66380 46460
L66260 46460
L66220 46440
L66190 46390
L66190 46340
L66220 46290
L66260 46270
L66380 46270
L66430 46250
" />
<path d="M66600 46130
L66790 46130
" />
<path d="M66670 45960
L66670 46390
L66690 46440
L66740 46460
L66790 46460
" />
<path d="M67170 46440
L67120 46460
L67030 46460
L66980 46440
L66950 46410
L66930 46370
L66930 46220
L66950 46180
L66980 46150
L67030 46130
L67120 46130
L67170 46150
" />
<path d="M67380 46460
L67380 45960
" />
<path d="M67600 46460
L67600 46200
L67570 46150
L67530 46130
L67450 46130
L67410 46150
L67380 46180
" />
<path d="M68220 46130
L68220 46460
" />
<path d="M68220 46180
L68240 46150
L68290 46130
L68360 46130
L68410 46150
L68430 46200
L68430 46460
" />
<path d="M68880 46130
L68880 46460
" />
<path d="M68670 46130
L68670 46390
L68690 46440
L68740 46460
L68810 46460
L68860 46440
L68880 46410
" />
<path d="M69120 46460
L69120 46130
" />
<path d="M69120 46180
L69140 46150
L69190 46130
L69260 46130
L69310 46150
L69330 46200
L69330 46460
" />
<path d="M69330 46200
L69360 46150
L69410 46130
L69480 46130
L69530 46150
L69550 46200
L69550 46460
" />
<path d="M69790 46460
L69790 45960
" />
<path d="M69790 46150
L69830 46130
L69930 46130
L69980 46150
L70000 46180
L70030 46220
L70030 46370
L70000 46410
L69980 46440
L69930 46460
L69830 46460
L69790 46440
" />
<path d="M70430 46440
L70380 46460
L70290 46460
L70240 46440
L70220 46390
L70220 46200
L70240 46150
L70290 46130
L70380 46130
L70430 46150
L70450 46200
L70450 46250
L70220 46290
" />
<path d="M70670 46460
L70670 46130
" />
<path d="M70670 46220
L70690 46180
L70720 46150
L70760 46130
L70810 46130
" />
<path d="M70950 46440
L71000 46460
L71100 46460
L71140 46440
L71170 46390
L71170 46370
L71140 46320
L71100 46290
L71030 46290
L70980 46270
L70950 46220
L70950 46200
L70980 46150
L71030 46130
L71100 46130
L71140 46150
" />
<path d="M71830 46460
L71790 46440
L71760 46410
L71740 46370
L71740 46220
L71760 46180
L71790 46150
L71830 46130
L71910 46130
L71950 46150
L71980 46180
L72000 46220
L72000 46370
L71980 46410
L71950 46440
L71910 46460
L71830 46460
" />
<path d="M72220 46130
L72220 46460
" />
<path d="M72220 46180
L72240 46150
L72290 46130
L72360 46130
L72410 46150
L72430 46200
L72430 46460
" />
<path d="M73050 46130
L73050 46630
" />
<path d="M73050 46150
L73100 46130
L73190 46130
L73240 46150
L73260 46180
L73290 46220
L73290 46370
L73260 46410
L73240 46440
L73190 46460
L73100 46460
L73050 46440
" />
<path d="M73720 46440
L73670 46460
L73570 46460
L73530 46440
L73500 46410
L73480 46370
L73480 46220
L73500 46180
L73530 46150
L73570 46130
L73670 46130
L73720 46150
" />
<path d="M73930 46460
L73930 45960
" />
<path d="M73930 46150
L73980 46130
L74070 46130
L74120 46150
L74140 46180
L74170 46220
L74170 46370
L74140 46410
L74120 46440
L74070 46460
L73980 46460
L73930 46440
" />
<path d="M74740 46440
L74790 46460
L74880 46460
L74930 46440
L74950 46390
L74950 46370
L74930 46320
L74880 46290
L74810 46290
L74760 46270
L74740 46220
L74740 46200
L74760 46150
L74810 46130
L74880 46130
L74930 46150
" />
<path d="M75170 46460
L75170 46130
" />
<path d="M75170 45960
L75140 45990
L75170 46010
L75190 45990
L75170 45960
L75170 46010
" />
<path d="M75480 46460
L75430 46440
L75410 46390
L75410 45960
" />
<path d="M75670 46460
L75670 45960
" />
<path d="M75720 46270
L75860 46460
" />
<path d="M75860 46130
L75670 46320
" />
<path d="M76050 46440
L76100 46460
L76190 46460
L76240 46440
L76260 46390
L76260 46370
L76240 46320
L76190 46290
L76120 46290
L76070 46270
L76050 46220
L76050 46200
L76070 46150
L76120 46130
L76190 46130
L76240 46150
" />
<path d="M76690 46440
L76640 46460
L76550 46460
L76500 46440
L76480 46410
L76450 46370
L76450 46220
L76480 46180
L76500 46150
L76550 46130
L76640 46130
L76690 46150
" />
<path d="M76910 46460
L76910 46130
" />
<path d="M76910 46220
L76930 46180
L76950 46150
L77000 46130
L77050 46130
" />
<path d="M77410 46440
L77360 46460
L77260 46460
L77220 46440
L77190 46390
L77190 46200
L77220 46150
L77260 46130
L77360 46130
L77410 46150
L77430 46200
L77430 46250
L77190 46290
" />
<path d="M77830 46440
L77790 46460
L77690 46460
L77640 46440
L77620 46390
L77620 46200
L77640 46150
L77690 46130
L77790 46130
L77830 46150
L77860 46200
L77860 46250
L77620 46290
" />
<path d="M78070 46130
L78070 46460
" />
<path d="M78070 46180
L78100 46150
L78140 46130
L78220 46130
L78260 46150
L78290 46200
L78290 46460
" />
<text x="65500" y="47300"
textLength="14370" font-size="660" lengthAdjust="spacingAndGlyphs"
text-anchor="start" opacity="0">to pin numbers on DB25M connector.</text>
<path d="M65570 46940
L65760 46940
" />
<path d="M65640 46770
L65640 47200
L65670 47250
L65720 47270
L65760 47270
" />
<path d="M66000 47270
L65950 47250
L65930 47220
L65910 47180
L65910 47030
L65930 46990
L65950 46960
L66000 46940
L66070 46940
L66120 46960
L66140 46990
L66170 47030
L66170 47180
L66140 47220
L66120 47250
L66070 47270
L66000 47270
" />
<path d="M66760 46940
L66760 47440
" />
<path d="M66760 46960
L66810 46940
L66910 46940
L66950 46960
L66980 46990
L67000 47030
L67000 47180
L66980 47220
L66950 47250
L66910 47270
L66810 47270
L66760 47250
" />
<path d="M67220 47270
L67220 46940
" />
<path d="M67220 46770
L67190 46800
L67220 46820
L67240 46800
L67220 46770
L67220 46820
" />
<path d="M67450 46940
L67450 47270
" />
<path d="M67450 46990
L67480 46960
L67530 46940
L67600 46940
L67640 46960
L67670 47010
L67670 47270
" />
<path d="M68290 46940
L68290 47270
" />
<path d="M68290 46990
L68310 46960
L68360 46940
L68430 46940
L68480 46960
L68500 47010
L68500 47270
" />
<path d="M68950 46940
L68950 47270
" />
<path d="M68740 46940
L68740 47200
L68760 47250
L68810 47270
L68880 47270
L68930 47250
L68950 47220
" />
<path d="M69190 47270
L69190 46940
" />
<path d="M69190 46990
L69220 46960
L69260 46940
L69330 46940
L69380 46960
L69410 47010
L69410 47270
" />
<path d="M69410 47010
L69430 46960
L69480 46940
L69550 46940
L69600 46960
L69620 47010
L69620 47270
" />
<path d="M69860 47270
L69860 46770
" />
<path d="M69860 46960
L69910 46940
L70000 46940
L70050 46960
L70070 46990
L70100 47030
L70100 47180
L70070 47220
L70050 47250
L70000 47270
L69910 47270
L69860 47250
" />
<path d="M70500 47250
L70450 47270
L70360 47270
L70310 47250
L70290 47200
L70290 47010
L70310 46960
L70360 46940
L70450 46940
L70500 46960
L70530 47010
L70530 47060
L70290 47100
" />
<path d="M70740 47270
L70740 46940
" />
<path d="M70740 47030
L70760 46990
L70790 46960
L70830 46940
L70880 46940
" />
<path d="M71030 47250
L71070 47270
L71170 47270
L71220 47250
L71240 47200
L71240 47180
L71220 47130
L71170 47100
L71100 47100
L71050 47080
L71030 47030
L71030 47010
L71050 46960
L71100 46940
L71170 46940
L71220 46960
" />
<path d="M71910 47270
L71860 47250
L71830 47220
L71810 47180
L71810 47030
L71830 46990
L71860 46960
L71910 46940
L71980 46940
L72030 46960
L72050 46990
L72070 47030
L72070 47180
L72050 47220
L72030 47250
L71980 47270
L71910 47270
" />
<path d="M72290 46940
L72290 47270
" />
<path d="M72290 46990
L72310 46960
L72360 46940
L72430 46940
L72480 46960
L72500 47010
L72500 47270
" />
<path d="M73120 47270
L73120 46770
L73240 46770
L73310 46800
L73360 46840
L73380 46890
L73410 46990
L73410 47060
L73380 47150
L73360 47200
L73310 47250
L73240 47270
L73120 47270
" />
<path d="M73790 47010
L73860 47030
L73880 47060
L73910 47100
L73910 47180
L73880 47220
L73860 47250
L73810 47270
L73620 47270
L73620 46770
L73790 46770
L73830 46800
L73860 46820
L73880 46870
L73880 46910
L73860 46960
L73830 46990
L73790 47010
L73620 47010
" />
<path d="M74100 46820
L74120 46800
L74170 46770
L74290 46770
L74330 46800
L74360 46820
L74380 46870
L74380 46910
L74360 46990
L74070 47270
L74380 47270
" />
<path d="M74830 46770
L74600 46770
L74570 47010
L74600 46990
L74640 46960
L74760 46960
L74810 46990
L74830 47010
L74860 47060
L74860 47180
L74830 47220
L74810 47250
L74760 47270
L74640 47270
L74600 47250
L74570 47220
" />
<path d="M75070 47270
L75070 46770
L75240 47130
L75410 46770
L75410 47270
" />
<path d="M76240 47250
L76190 47270
L76100 47270
L76050 47250
L76030 47220
L76000 47180
L76000 47030
L76030 46990
L76050 46960
L76100 46940
L76190 46940
L76240 46960
" />
<path d="M76530 47270
L76480 47250
L76450 47220
L76430 47180
L76430 47030
L76450 46990
L76480 46960
L76530 46940
L76600 46940
L76640 46960
L76670 46990
L76690 47030
L76690 47180
L76670 47220
L76640 47250
L76600 47270
L76530 47270
" />
<path d="M76910 46940
L76910 47270
" />
<path d="M76910 46990
L76930 46960
L76980 46940
L77050 46940
L77100 46960
L77120 47010
L77120 47270
" />
<path d="M77360 46940
L77360 47270
" />
<path d="M77360 46990
L77380 46960
L77430 46940
L77500 46940
L77550 46960
L77570 47010
L77570 47270
" />
<path d="M78000 47250
L77950 47270
L77860 47270
L77810 47250
L77790 47200
L77790 47010
L77810 46960
L77860 46940
L77950 46940
L78000 46960
L78030 47010
L78030 47060
L77790 47100
" />
<path d="M78450 47250
L78410 47270
L78310 47270
L78260 47250
L78240 47220
L78220 47180
L78220 47030
L78240 46990
L78260 46960
L78310 46940
L78410 46940
L78450 46960
" />
<path d="M78600 46940
L78790 46940
" />
<path d="M78670 46770
L78670 47200
L78690 47250
L78740 47270
L78790 47270
" />
<path d="M79030 47270
L78980 47250
L78950 47220
L78930 47180
L78930 47030
L78950 46990
L78980 46960
L79030 46940
L79100 46940
L79140 46960
L79170 46990
L79190 47030
L79190 47180
L79170 47220
L79140 47250
L79100 47270
L79030 47270
" />
<path d="M79410 47270
L79410 46940
" />
<path d="M79410 47030
L79430 46990
L79450 46960
L79500 46940
L79550 46940
" />
<path d="M79720 47220
L79740 47250
L79720 47270
L79690 47250
L79720 47220
L79720 47270
" />
<text x="72500" y="40200"
textLength="2870" font-size="660" lengthAdjust="spacingAndGlyphs"
text-anchor="start" opacity="0">20 DSR</text>
<path d="M72620 39720
L72640 39700
L72690 39670
L72810 39670
L72860 39700
L72880 39720
L72910 39770
L72910 39810
L72880 39890
L72600 40170
L72910 40170
" />
<path d="M73220 39670
L73260 39670
L73310 39700
L73330 39720
L73360 39770
L73380 39860
L73380 39980
L73360 40080
L73330 40120
L73310 40150
L73260 40170
L73220 40170
L73170 40150
L73140 40120
L73120 40080
L73100 39980
L73100 39860
L73120 39770
L73140 39720
L73170 39700
L73220 39670
" />
<path d="M73980 40170
L73980 39670
L74100 39670
L74170 39700
L74220 39740
L74240 39790
L74260 39890
L74260 39960
L74240 40050
L74220 40100
L74170 40150
L74100 40170
L73980 40170
" />
<path d="M74450 40150
L74530 40170
L74640 40170
L74690 40150
L74720 40120
L74740 40080
L74740 40030
L74720 39980
L74690 39960
L74640 39930
L74550 39910
L74500 39890
L74480 39860
L74450 39810
L74450 39770
L74480 39720
L74500 39700
L74550 39670
L74670 39670
L74740 39700
" />
<path d="M75240 40170
L75070 39930
" />
<path d="M74950 40170
L74950 39670
L75140 39670
L75190 39700
L75220 39720
L75240 39770
L75240 39840
L75220 39890
L75190 39910
L75140 39930
L74950 39930
" />
<text x="72600" y="41200"
textLength="1770" font-size="660" lengthAdjust="spacingAndGlyphs"
text-anchor="start" opacity="0">3 TX</text>
<path d="M72700 40670
L73010 40670
L72840 40860
L72910 40860
L72960 40890
L72980 40910
L73010 40960
L73010 41080
L72980 41120
L72960 41150
L72910 41170
L72770 41170
L72720 41150
L72700 41120
" />
<path d="M73530 40670
L73820 40670
" />
<path d="M73670 41170
L73670 40670
" />
<path d="M73930 40670
L74270 41170
" />
<path d="M74270 40670
L73930 41170
" />
<text x="72600" y="42200"
textLength="1890" font-size="660" lengthAdjust="spacingAndGlyphs"
text-anchor="start" opacity="0">2 RX</text>
<path d="M72720 41720
L72740 41700
L72790 41670
L72910 41670
L72960 41700
L72980 41720
L73010 41770
L73010 41810
L72980 41890
L72700 42170
L73010 42170
" />
<path d="M73890 42170
L73720 41930
" />
<path d="M73600 42170
L73600 41670
L73790 41670
L73840 41700
L73860 41720
L73890 41770
L73890 41840
L73860 41890
L73840 41910
L73790 41930
L73600 41930
" />
<path d="M74050 41670
L74390 42170
" />
<path d="M74390 41670
L74050 42170
" />
<text x="68400" y="38800"
textLength="2080" font-size="660" lengthAdjust="spacingAndGlyphs"
text-anchor="start" opacity="0">cable</text>
<path d="M68760 38750
L68710 38770
L68620 38770
L68570 38750
L68540 38720
L68520 38680
L68520 38530
L68540 38490
L68570 38460
L68620 38440
L68710 38440
L68760 38460
" />
<path d="M69190 38770
L69190 38510
L69160 38460
L69120 38440
L69020 38440
L68970 38460
" />
<path d="M69190 38750
L69140 38770
L69020 38770
L68970 38750
L68950 38700
L68950 38650
L68970 38600
L69020 38580
L69140 38580
L69190 38560
" />
<path d="M69430 38770
L69430 38270
" />
<path d="M69430 38460
L69470 38440
L69570 38440
L69620 38460
L69640 38490
L69660 38530
L69660 38680
L69640 38720
L69620 38750
L69570 38770
L69470 38770
L69430 38750
" />
<path d="M69950 38770
L69900 38750
L69880 38700
L69880 38270
" />
<path d="M70330 38750
L70280 38770
L70190 38770
L70140 38750
L70120 38700
L70120 38510
L70140 38460
L70190 38440
L70280 38440
L70330 38460
L70350 38510
L70350 38560
L70120 38600
" />
<text x="77800" y="31300"
textLength="7440" font-size="1330" lengthAdjust="spacingAndGlyphs"
text-anchor="end" opacity="0">"Model T"</text>
<path d="M70570 30250
L70570 30440
" />
<path d="M70960 30250
L70960 30440
" />
<path d="M71380 31250
L71380 30250
L71720 30960
L72050 30250
L72050 31250
" />
<path d="M72670 31250
L72570 31200
L72530 31150
L72480 31060
L72480 30770
L72530 30680
L72570 30630
L72670 30580
L72810 30580
L72910 30630
L72960 30680
L73000 30770
L73000 31060
L72960 31150
L72910 31200
L72810 31250
L72670 31250
" />
<path d="M73860 31250
L73860 30250
" />
<path d="M73860 31200
L73770 31250
L73570 31250
L73480 31200
L73430 31150
L73380 31060
L73380 30770
L73430 30680
L73480 30630
L73570 30580
L73770 30580
L73860 30630
" />
<path d="M74720 31200
L74620 31250
L74430 31250
L74340 31200
L74290 31100
L74290 30720
L74340 30630
L74430 30580
L74620 30580
L74720 30630
L74770 30720
L74770 30820
L74290 30910
" />
<path d="M75340 31250
L75240 31200
L75190 31100
L75190 30250
" />
<path d="M76340 30250
L76910 30250
" />
<path d="M76620 31250
L76620 30250
" />
<path d="M77190 30250
L77190 30440
" />
<path d="M77570 30250
L77570 30440
" />
<text x="40500" y="32900"
textLength="3820" font-size="1330" lengthAdjust="spacingAndGlyphs"
text-anchor="end" opacity="0">TPDD</text>
<path d="M36800 31850
L37370 31850
" />
<path d="M37080 32850
L37080 31850
" />
<path d="M37700 32850
L37700 31850
L38080 31850
L38180 31900
L38230 31940
L38270 32040
L38270 32180
L38230 32280
L38180 32320
L38080 32370
L37700 32370
" />
<path d="M38700 32850
L38700 31850
L38940 31850
L39080 31900
L39180 31990
L39230 32090
L39270 32280
L39270 32420
L39230 32610
L39180 32700
L39080 32800
L38940 32850
L38700 32850
" />
<path d="M39700 32850
L39700 31850
L39940 31850
L40080 31900
L40180 31990
L40230 32090
L40270 32280
L40270 32420
L40230 32610
L40180 32700
L40080 32800
L39940 32850
L39700 32850
" />
<text x="71500" y="32200"
textLength="4800" font-size="660" lengthAdjust="spacingAndGlyphs"
text-anchor="start" opacity="0">RS-232 DTE</text>
<path d="M71930 32170
L71760 31930
" />
<path d="M71640 32170
L71640 31670
L71830 31670
L71880 31700
L71910 31720
L71930 31770
L71930 31840
L71910 31890
L71880 31910
L71830 31930
L71640 31930
" />
<path d="M72120 32150
L72190 32170
L72310 32170
L72360 32150
L72380 32120
L72410 32080
L72410 32030
L72380 31980
L72360 31960
L72310 31930
L72220 31910
L72170 31890
L72140 31860
L72120 31810
L72120 31770
L72140 31720
L72170 31700
L72220 31670
L72330 31670
L72410 31700
" />
<path d="M72620 31980
L73000 31980
" />
<path d="M73220 31720
L73240 31700
L73290 31670
L73410 31670
L73450 31700
L73480 31720
L73500 31770
L73500 31810
L73480 31890
L73190 32170
L73500 32170
" />
<path d="M73670 31670
L73980 31670
L73810 31860
L73880 31860
L73930 31890
L73950 31910
L73980 31960
L73980 32080
L73950 32120
L73930 32150
L73880 32170
L73740 32170
L73690 32150
L73670 32120
" />
<path d="M74170 31720
L74190 31700
L74240 31670
L74360 31670
L74410 31700
L74430 31720
L74450 31770
L74450 31810
L74430 31890
L74140 32170
L74450 32170
" />
<path d="M75050 32170
L75050 31670
L75170 31670
L75240 31700
L75290 31740
L75310 31790
L75330 31890
L75330 31960
L75310 32050
L75290 32100
L75240 32150
L75170 32170
L75050 32170
" />
<path d="M75480 31670
L75760 31670
" />
<path d="M75620 32170
L75620 31670
" />
<path d="M75930 31910
L76100 31910
" />
<path d="M76170 32170
L75930 32170
L75930 31670
L76170 31670
" />
</g>
<g style="fill:#0000C2; fill-opacity:0.0; 
stroke:#0000C2; stroke-width:0; stroke-opacity:1; 
stroke-linecap:round; stroke-linejoin:round;">
</g>
<g style="fill:#008400; fill-opacity:0.0; 
stroke:#008400; stroke-width:0; stroke-opacity:1; 
stroke-linecap:round; stroke-linejoin:round;">
</g>
<g style="fill:#008400; fill-opacity:1.0; 
stroke:#008400; stroke-width:100; stroke-opacity:1; 
stroke-linecap:round; stroke-linejoin:round;">
<circle cx="47000" cy="30500" r="200" /> 
</g>
<g style="fill:#008400; fill-opacity:1.0; 
stroke:#008400; stroke-width:0; stroke-opacity:1; 
stroke-linecap:round; stroke-linejoin:round;">
</g>
<g style="fill:#008400; fill-opacity:1.0; 
stroke:#008400; stroke-width:100; stroke-opacity:1; 
stroke-linecap:round; stroke-linejoin:round;">
<circle cx="51000" cy="30500" r="200" /> 
</g>
<g style="fill:#008400; fill-opacity:1.0; 
stroke:#008400; stroke-width:0; stroke-opacity:1; 
stroke-linecap:round; stroke-linejoin:round;">
</g>
<g style="fill:#008400; fill-opacity:1.0; 
stroke:#008400; stroke-width:100; stroke-opacity:1; 
stroke-linecap:round; stroke-linejoin:round;">
<circle cx="47000" cy="35500" r="200" /> 
</g> 
</svg>
